<mxfile host="65bd71144e">
    <diagram id="ouZEaZhO0vKfEVV41JMu" name="Page-1">
        <mxGraphModel dx="1922" dy="535" grid="1" gridSize="10" guides="1" tooltips="1" connect="1" arrows="1" fold="1" page="1" pageScale="1" pageWidth="850" pageHeight="1100" math="0" shadow="0">
            <root>
                <mxCell id="0"/>
                <mxCell id="1" parent="0"/>
                <mxCell id="2" value="" style="shape=image;verticalLabelPosition=bottom;labelBackgroundColor=default;verticalAlign=top;aspect=fixed;imageAspect=0;image=data:image/webp,UklGRh43AQBXRUJQVlA4IBI3AQBw+wOdASo4BJgCPm0wlEckIqIhJzKsuIANiU3fzVeh/B0j+TdpLyANpC45/zPYHjq8EGvPIj/NP7bqKVGdrHdJI69FHm/1LzFP5r+GeoJb59X/wf6PvX5b9y/wf8H/m/+D/kvgS5P8Tvh/4P13/7/eD7v/1PK46I/8n+U/Nj5xf7D/0/6T/VfBX+p/6j/6f6T4Av7D/fP2N/wvtmft97n/71/0/zP+Af86/wv7U/8n4gf9d/7v9J+//ym/t3+4/93+q/4nyA/0r/Cf+j2wv+l/+Pcr/vX/H/+//F+Ab+bf33/3/n////nb/cf/i/Kd/Zv+d+6X/S+Rz9p//3/v/+L8AH/z9sD+Af/X1AP/h7N/kX9Y/sv9x/bb+2/H/5T+q/4D+//5n/K/3L03/HPnv7l/cf8d/of7f+4vxs/0v+D8j3T//I/ynqV/Jftb+P/uP+O/6P+F/fD7vfvP+r/v37rf4L0z+FH8//j/27/wfyEflH8t/wf9w/dn+++qH/g/6Du/Nc/3f/C/z/sEern0T/Yf4L/L/+H/G+/n7//lP7p/nP+x/cv///6/o/8//uf+h/v3+V/6X98////t/QH+Vf0v/S/4b/L/93/Gf///4fcn++/5n+L8sr7v/u//D/l/gC/mn9j/2v+A/y//i/yH/////4wf0n/h/zH+y/cf29foH+Y/7n+f/1/7Z/YR/Mv65/w/8B/nf/z/rP/////vV//v/G+Cn7r//7/jfCf+0X/9/4//mN0Adg0GJirqH573Ud8HtPR9GWk7D3EFUW5xBkj+xtAD7yno+jLSdh7iCqLc4gyR/Y2gB95T0fRlpOw9xBVFucQZI/sbKwI2N7GD7kjhsneGG/2j1weMC34N6bOzIGwBJzMjemzsyBsASczI3ps7MgbAEnMyN6bOzIGwBJzMjemzsyBsASczI3ps6LKi0+sjizcTdw5GqBylsNhajICqDdW76SdZ5s1pW8wWHVSrKa691VK95HIM+cpSq22pKv1KSuA1VyFA/7g+G1B0VX9T9xI7FsK04A0Pt4rFsK03/X06/KiUNt8SPK7ybb1QotyBDAJTnXIRw02K/NkQ+07JWbfd3EZBx8llm6LJvcQirazQ75SpDBS1mwhwBofbxWLYVpwBofPzS95HMNipfkXDdXhEkQWNzyu6T1yIWFNEFoLbBjL55jtjQAvysz2zExDwTPmrWEJa/nSV4/pKfCwui/8M0MsW77vv41Nwaoo/DNtu6BffbBFQ/GoH6/UMlw52iFjLX40LCfOXxvyJOe0P55swBMqAjguv20BG+ZxS/9woVH4Z1NpwBofbxWI2ffPvyRPJimYtJY9RnWQG4pg1Ood5i4EetXBe60E+UiGk0hi2FacAZJs5huGLSMw7Tpfd3WtHPGCu7zw1VXTxDIFQaFTgP/BjLj8v+Qy4cIApGyewdKXuB2X8COanR4xilPPUg+yt8x1ADIV46G+xs8mnEK9VwQsStctCcQXBRRlhy7CcXsosJc3KwE2sAX5Nu12JoAFw1/KyX/rHFKDh9iEFiX99QpWiuBeesp+JcZDsIfwmwzTPz9cJHyntDVbI46qXMpws/EBHu3Q8CWuFH3HKjjHzj4QqY4Md2tyckzqlJDDlmtcf2/B11wZ8g0VATqAfgP0kyJFt/nx1EWJv8qghnNZa3Moqy814WFPVnV87I+NUg7X4idG1swVOj8M6h8hh0ex6RsdW8jA+KZzZ/73qOgQO3hJPy298KGAdpd4NopliwREp9Yrwzqm+15khHxWJrAfdfbLc3IA4sdGFAVpTClFB/nGRtvh6JhBiiX3Me6xuYqDHMb86kwOwaEnFHscVzfaI/jrXyGpJ+RVDKZV/LStCPvZ6xNtkQ2A1lpwMDG7qBpZ8v6Z5AQWLmOJOEUo4kBZ4JXCw5ZNc7CtjiUBOAmMFJk7XrpQoG3LykAsyMxIZs4V64liH3wRIDgTFGohetcWFKdZe8H8W29RDO+3tVFtOyZUUaeDOTK91GHIe81hDegysRXS2OS5XUUHR/s/E45PYbYUmvGNuv9qA5IjSV+VLDf3yBZ2985Wr90ceDHJcNMEH2uV+8xhPygJEBNwWe8vD17rSo8J4QAnGEDYvE6RLkGLhd/Dprhgt5JYOCZaLQU0JjxCDQNgyVRfSEEbTbDR8hAXWU3og21D66c2SPAdcCgHKzypLHxhFvVMGVsCwmmERwWOFaw26ca4HMHXS8DGjnxlcmw4UC/69wyQj9nE4pprOvMMDKkEzKX3wN917TPdlVJ0ApGiqckNCi7x5k/oPugCBuwrkAPGO7SHOr2ctTIHc7+FDSIs6VlIDrGONGZZkoE8B/hKTSgO52duHwUZu1dcsph0J2NDCAJkYZa+92yanFx0BzkL9ABbll3uSPpnTnkhmWdWgZ0XvsR+xeMtziCW4Pc5+cZLxnWX9GpYB5JsjRUCVeW/p0S/oz4uncsH+geQ5ngRqObiM0X0euII/RnxVGsVrhsnW4xq+p7D+jPV7TOD39QUh0H10JHgr0Z8rTkRqrutuSQyE9Dz9GfF00xpM2+oqOIJD13rhvBqr8o90S0jk997YlWRSCE2zIePM7DvWDEWNwjn8ehpix0X0WeSMQQkeKqeLFIKSRvy083hrztvL4kM7JGgYsqcglujgO7FBzRmKX/wuqiiK5JzEzI/1eXJlpF0KoILmzamO2XACWywICUTV+q13afjOoiuov0Eb1COxz0VSKtMqoAVuOS5Aft2L+lyAfaxVLdoYcG2EFkpBwT5Mg6ZYVVDZQRUAKn/aKQBzurGXwebICFwJeIoCjUtt3cGLBaTu6CEC0LVtMijCZsygxHy630WBdjW1G15dubC/4tOk0XcXwM/9p9GWk4sgnVsdMK2q5arxiicRcT98HWgeWrNwKH11dEAYF2F8aYrUaCUAGE4vHqKzZ/yB7dIrM/SKSjg+5ggobC1jDtS6+Zm4wlGY2esMzck5Tmg9hPdRA/lCs9rGKcbF2BoicVtTNzv3zmtXxQ7/tXYWb0j1kTNEWLQN5vD3vEz2ypkWPeTEY9cA4JFpeHcFI/ymO3KbvHhhfrXypC2TPKjiUuwXX39U+Rxxf/dn7hWJLDYZTEfcjxfO/4RBm5dc+eXQPixVb9qcQC3RkTQTB6SnT68QFjtxxZ+yW45f/iSV1AmR6mGCLIdwN+RKG4wcgGXOf0FF9BpYZaTcrQxkDJ6zusqR9DPMSJ85Ei5FcmunuyFnsL1dmHUxdR4goIIFymMjClqyrp1nkc9uGFJmMQ9AZwddP0lfmm9zq2BO/BOUOYt2fZbYaxWfEJWXXporPx+cjqqqepf+VXNxjrtiVFnNULbfY9UAux0YwZ/xvbI3Okii5e/4+SElExOxK0pDBwVtvjKMCnAqa5g/+D3gDa8x5PprS0pTViJPHoVqMnQLLaaoJk/gO9V95qNcleBwXexT2vYYO/9il3QoDpkhv3RizYbJdexUKlg5VA0IwcvqWJznpjW5sG+1cwnVCQCc3GGSOWGkVT2MIYxxmpaxAhwcvTuDw6h+49A4BFgsRQe7H3dGe/4S3RU874w0JDd6Ku9aP2dCm7JxTDYn7UwPD+TVK8bfMujDty/y8hTWMPau0kYZbSZKhF8j7BQm1tKH1SAVRo9A5qnwPTXZfBho+jHQetlUzXtPTYv0B/WbsCS93vpWZ6pS3u6M/GHyii584YRPmajWJFg4OfP9stZIorGCEXo8/uMxZUzyihTpFPX4Uz8atscw9+07p9f3zEhcvnS5HWNx+tPrB6m/KvOtWL4Ak5mRvTZ1Q3e9U8jlW8z/5xL9MTLsWgA6z7DaYol/SVPjxD0ZJTlhvE24YxE4Gu5m5E77oQU6yno+xk6C4AaCn9BPXc30xNh4IZyKghnTaK91J82JEjmajd66uAgUzJZMMbb/o2Kd8Zny6D5ieQjM48Upe+pFhaQG8NU3fX3qns1P+1vrfORYck06agwT7GLtaYpDjYYIzUcMcVoEzfdk64ND7eKxbCtN3n7LFgQRFbUtTFIzbUBmcbeam/aWXVWT9SHQo6GfckSmyJh8jibRmF2UKnz6xbVlwMLy4yDLLV+qgpANtUfA+jy26VetzMkTtfnW6DsGpHqw5ndE60U7wHVyrmW3s3P2E1RjJwf1hl6rmutE/dpiOBZCSZPHroGTFv7ZiuIYbwlRH/30wYNEUcBpF+8s/ZizK0skcPj0Ha/MkcPj139fPxbipl39fPrZkZsPnPrRwHIOF4Jqz67eXk8+cdOzozxRL+jPi6cr1McpVZJNLGKuwnBDFVdz2KzH5YIHsWJCabSSGCJWK8EL6mkBrSrv1pwpQowwK81r32CRft6WTe1s7Dt6WTe1s7zYh6NThofbxWOJ+cAXxG1KNWsK1QCouhbeXwt0xr58TPxam4P46Pwzqay0Mhlahm7m8gbQHe6YR0Lm4VrSx7qrm4VrSx2AZkEMtZ22c+dZ0dNDkZPZq/PSeZ+PcXjMR+fxplPcCVKx2q4HwhLLxlXx4T+WG6V41oppj+9NtU2M/hgArjMI0ai3CIsNU4aG7DzRa4eHBMvAib5y3GQTmG2v17I33jeisgHfCM84XhsaNM+nJhT4Pj/pygCST1DXz8WUAvJ06TpUO+GVcgWmN4c5c1tuB4DZcPeqA9vycBiAUW9c7Y4rvidTFE5edpygs3O2VMHB42JVxz8qN2hT51M9JhBkcifeuavJ/HZU+bqQvVVqi1ioaT/+z3bRftZbvkg/ajVyQCjeWYW5GC4f5jrcLgGBcuNXY/EXxG4SMdo9deHYPvCRvQT6QVoc9rCu7snPNclha6JiA4/Zij+jN/n7KiCtA3oHnon0JXs57w0dM2RN954fpD2/fVHRJKx6iy+C5ZIx6AQeGPr0sgL9OKII8YHnIxmHO2XJ7h5XA+XCU30rrtEcLHIDacWkpKIQMU/KHph3Eyp5SXoYkygZKw48t9mJUVHCeoBP/iO0d4NuAltKET1+6v6Dco5AXkWxCTsqgRP/ecKbp3ut7/zdKubNlemXEib7EL/v6KrTgDQ+3isWwq33lZNAvMxM06bHMYk3NcEMSppuOYL5NIru1WDnNiNC+mz+EbYG8mlTxWLWqHqDU6Xffxqbf/TVOUzwMeMMtZJjkl8P4gcNMiJ2S+ViNVugNWxeHdsx+Lp2xypENvXd9338am4NUUfhbfrsC1iw69G8gbIYnTzCWlaSDrKDA7BgpL9AwT7JTx13iDJH9jZ/wSHXY3LX1MepqZd/Xz8W4F8OyKtP9WnV2vTayOnUMUWulpYjdJMeWnHy5wtPFpoQR5x5ULlGGBNDZ4c8wJ3ZcaZtXJzoVDwLFYthWnAGh9vFYtg39F2b32ov1QujyqHjvgEFo9PbxO+bHJZ5Qv+l7aha8eL3WDuIH6XgTZ0gcQkdZGR5V6WwLliFR1riBch+6MI2WhEQQISqY2gusDDAtqyey7XIc5aEKvihtDYnBtfbmLG2212WW24piX04UqfxY8sXN416OgVaI62+a2mB2u0CjKXNWCdiFHpvyG6TWEEh2dW62JuY06azOTgnIICfXXsi9i5klIZKbQp22hsT9bctNYn7yTdo9ShzdY+E9YXXuhn7R+1DDP1ETVnS7vqR/exXRjZuqEIF7MJ+LBt5dVnjvW1fRkGpN6QZkqS0HjHIJqbDo7FXnhgqbB+UgpmFtqkQSvnj4hJnNORPbG684SqzDolgT3aMOhzJl3h1g3/OtJT7oEq15Ri4ZaHxGgbHUEPQuNumnqbC6HxoMrzVpxjyF+dr7n6yrsxDypOFSuR173uEzrvQeW3pOvdLxoIZsddyBI4XAdU2wuqXBESVnlPseH8U9pOQY0Zlmq9hV9Gi0+7Rd+AIT0x9Yl1BSzNm2E0O0rKJsAVh+x+j7+E26CWrMkzCoZ5ReqltVaaQ+Ry6SH5qq7tLhZSBy85QD3AFPHfrH2a3WyQn/fzqteX6vSsB0A3L6o/eiDXeZ/zgCWTnSK+ak7f2MxdbFT9ZK6YKmgvgqM5kMDtyP/PIAyvj4WsaGX/IehWtU9Wp/iFhUDbzo7y8MoloCq6T9yMcF327INX461OhPTbI6ie1nQxfFa7MtgWLu2pi24mRr+YQq6n/xSdxio/L6MtJ2HuIHxdQSsWL8/ZLaBrX/QoEKC9nIfMNdmpi7Idf9HrPX7qiYSZJBRpkyNWdvDBxKqtQs8MJjgBl478oVq/KUT9uO4lDFA22PegC9CjJ2Vv1kNQ743M6jKy01zdZA+8MgcftxwE3XDdkBVzKna7OC3kJL9OqwbkgNGG/QMi7oUMx863s1ocVHd1CvHzW11ySH3kkB9kamVro5oSYOxhnl/9C9AUecBUKiAraSo+ZvOa6YF3EuBsBh8X6WLc1zjHopeSolnrBEONgTsT+EQZiHRrHRa6Yo076PMIpO0gqs80fNvjdC+AJOZkb02dmQNf+X0EHInrXqCUj2bxGhwfkhBwoYAjd4dxgOisZNb7mORtBzp17k6MJNTqA/DAaW37XrXkE50LPrW7/DkgOlNNn9zR4pRieKj3hpeWu+g4G8PsW150WuIK5uUHkWNq47NwFBE1KINZNUH7EEAbxVX9umivuJWKCPA1awLRyaqHm3WIiN9F8Vl5UmkYHL8Z9AoImD38gFUpGbRJDS+kfoGPkk7wUKbWIPMrXWkYtwpE6SXJztig+up0370rbrdMB+mrrnD3TfEtXc3Tk0P34cSj2oJjEmvuchsPwOB9KfksqmeOwXx3SCRQiguF89HJ/OO+tZwU/eSigRIizE6oGoR5yrcD5EWV5SynxNBigNeJ5OgFlna4YoeObWCAuiBEfT8hD6Ks6fmCCl6vc+lpFS5lW3bNi8CrF8FdwuA/76j7/h4X0gTW/y2v5r8xaBL0U/5UZKQ14X+FUL9pbd7CMcwifClB7vT6xal+899/bn+Sf62byyZpXtEFWGtIjf/xsktDvE+4qz5ceGbev22ixdnnO7qEnRM7g6LwXQXxS3KQvfgfsTebnrTxssWGrSW78rHWcK76m8vBdowSNlt/b0sBD8noxZFvL8IoNKQiaKSHxV6yOpbp08rG0bB5ApsTRvoOlh9O1YS9rdscIMC5J7ns9zIx3y1EMyJEKhDfI3KuTooX+5iv+0K/ZExxWwUjvvUHTQm3udojCDLzm/X7XPlHye+r3RCiXvNc/McpGHqQ894Ib8AmLSjjVO0id6FMpdgzzELUm1WUeUIwwAMQbC9EKgdgxnR8ImFiY4+fkzYiIcX4eUMGCIsd5nG0D7Bc5ENcaSlkjh8dQfMwqPt+dk2iDF0w7uTulKA8+91SVkvLafdspEjN4vUXvQ2knlep79uioRMYn/0m9lrlR7maby+MQs4JsUH/5+4UldWbr01tWIDVuGoDbSuHP+mKugFi8wHbqnoNdzC0U3WeZVpzo4dwa17M8GCNjT3WxqOjxcS9UKAPu68wMWd9bqptvMqBTTzXe+pPy+k+HU0QNB0Os02UF22+7jlUqO6UHzH04TLDuGgRTVhknBS0eKZfwNec+iSL7dYbGedcoc6Zu9uw5QmLW3HlStRMXh6MH5oS9rrKzzIVykBq4Ct03S+qC4KTUPz0DozDYXi9ppRAEN4WylrmW7/kkxJFy0pQIArIeJVlfKDWsPjGmsC/ab3KCllDE+lbQWqTE/rSshnywaO/InnDLBUK80XWqPugdViZTauvxCScxBO6XcAqm9MZ+TdMi7BCRD0Kgo7BnmKJO52XcmqF2gVpWhK+6xENhlMrNLy1x4+R8A+XMoJXKZWLFS1QGdcrNvkFmzN3KRToJrz107y+XNuKVoRvwXV27YknnuRTtBE5qDyDuZIFnitAlbZr3b7Q9BSmNP9wUgQdJBYJI8VQ2tibRo3n3wAJWzoLkwWY8LLtFiOjSYXoK+k3nMQYoUyoG8CKTzAiqwk4tbfk7Rq2hY+jiEGUsxiLe4l+1Azb3Vpek6bxDask2ggByZMOTZsAkyIu7q5nEvS2JPp8UpxEDT+KvEGMiRatE85RcCePmsbiPXAfg5aTdVOJGi1yYMxDtbH7F7T2LarqqanDpWl8dCJRa7BRB8+qZS2hLmEcl5Lh+x4YUo09Bpxw3tJ2YxIfwyirpTu1rszDGYOd6MnxGtWn3Dpj/5717zzAnQBToOpjJDePxmhyC2ahShOSDp7b7rGHubVAJYQEqglYsVV63vY/zbzzoXh7PKoVM57MdFgktOPXm1a01kqnsrqq7HoQfEHnig5HIWBvw29Tg3X/DoizdInXYX9S2yXM0MWcrBh+futFi3AOPnjVEjtsWcqXaJEBmBd3JLDc3GsoFZ+WHXjFs2GOjpCvWgoh8IRqnsbeW7px5RTf0P+pqyopK7q8bluuOQr42CQL91atEK6KmrRe7vofyqoFn8XmpxJUFnvNpfOUEzhhHyV+mle1R5Gm8AdkfQa0EatuK50MBXCRsOsJsqwEaO6nL1CWb57BKFsEfRUhgDqAFr1eMPx166fY0NvFUOxAh3Gdzs8dpbhbVtAN0kRmp2EO1l0giNsiL6a81vXz6dxs0YvDV4PMxCjWy5dwlSbU4PS4IvjKQ10Cr8Aaku9MjSlhm2Vmkahgiw+Z47vGjaUWNZK6Sk172GUih3IBUayB77Fkahj0zg6jOxdx4vbQf6guLEb5OiGNdc4iP02IygB54NKIqmm/BHqLSScqffEvsoz4uoJWLFTIbUaSRlPQ3y8tyVixVX5RJmiFQH9bX+1K0zns71zXI91ujWaPuBYpGzPPxhH/hBqr01aY26Q47szVv8B217bX0OjGFuhQeCHyH/0wMHEJNewKMZxasq6BhyxOofwP/9joMXFuQcJxL5vd/wYlKtpfcoKXXQ+s4mNc14oGF3aO2QjRygheJbbU5JNOkhW1grDmkUpxfJaPKVGut2lGQ6MVgqoQVcXVt0RpChzWD7wkb02dmQNgCTmYOuzjDKHTNjxYO/TfcV1YjgcCfjGV9ZIaKnalxp+yRV034fTv1WmipARB9Inta5FaCto1DqmVS7s2qB6MujWt410iNr2XzB4KOXL3AcjGy2SImQTRNzWuu5w9H3xA/XJlsAXYYpJjSdYnRMws8iW6LTMMRi2DFAE0dHLNzCLOc4/aNec7+OyAIEmu1XHf8IqqF3jAATrRBL0dinxIVN1lb8y+YE5ZeepsPMf8fk3guXsE9OtfVCpHzJfs/GEVy+9xVZDTkeJXePzMQ9SyLnJR4BSyl6/GqMxIGS6Jrt2iIhwxhBI/Zpz1AeuzLarCqQjR4ziy/9BlxtqXwauqgL9aC9/hQpZXD51HQcJFvEHvTgOf6UcuP0kW7B8qH77XRtS+ODQf6qku5XY6RFfLPlwnpftJszIiCoYppqaHnHYnO3GGft/DWHUmT94RPcM1n9fs4Rww1qQZQ4lwcdkAcs3Y7nTuj6eUaFCn9puLByBRGsGh9NPOqAYLZ9GEd3zRfOlSe5aUZXfkfC0HXT0AAPnOcysybwjSvNdWNyt3x89DQII1MuiUbXqrgQI/0s42Qrj+nwh05G0z8rLiXGgU0YrH8G1g091ZhUhN5zoQ2pU+C8Mklu3B2uxbxt1oJth0Zcq1/Og+uVHnFJEzXlwW+Ovi6WZhhu5oc0lcQRjlPtg6RTl/cPCM+vzeapT44iFtipUnR3/BopOZkfTSyycRhSa6xcXnOG1UFbdxsQ37RcLzx1m1bcQmIqjke/dsiNDmY2fRuEIWwa5WvhRZYAWm9x5GJf+mUPoAkwpMBfYDJfnWk2pQq82NsjU+ghDauyn19BX16x+6GZRP/nKDSnR3j1Igc3hYYbN3jRA0mItt7H1LE7qFFxjDt7Z0KWDy7m9PYDI6KzsTe3sp/K5eGCi+ZwN9BvdFDpvfUr4p2AO7OtBPbbxPmYXPZbNlVtLLcjGMEs8RsDAg/5XOH+jU609KwFKtYkODsI7m9evs8RKcmEDYXjgdDr3WSqGo8Q9eFkQZWZB2dl1yROmtW34XpWOQR+ihC+S36u4ryqQvpDoYs5Mg+95FE3DvhQU18zlXxRbcGPhPbSALuD6Gp/eYAizmg6R8L3RhiW6Hm3psOBTSxz+oe7fxqKhutmF8zJjKf4dFV6ZfjPLeYNiMYz6L1uEGl5Y1DGHuu+9Ib61wHSoUOK2FNkb+GUbE11TJuArgDF1j7+6rETdCLEaXQXZFtxIwT+FDHCWenUOivG9sCoHhO0LIGVElLy2jNdCmmKfrFCD08i9jNg0+oUq8aLwFyMXRFXxg8hWX8RUD/ktt7ZZRfHg/Veh3rkwdE4WITZ99oMPKjqhkS93wMOwmuSK6CpHs37rHWgtKRLS+izx9wtSaDWthonDJGBs0MjQEIQ1FNEvEaR4P8mrIsKsFFC35UzI7XYv0Lkgte6yWMoAkQMuZo6/fq5OnLVbCbRF9MrrmUuwYTn9cxfvsec46UoyISSIbl3qEfIF9LKZ862MVcDb7lEkUN4nCn3b68KT6GXJy9jFqc3V0G3i6cNpXKUSZohUDsGeYol/RnxdQSsWKq/KJM0Qn5+8WV0Xpg95g4jOyTFbXFnNTkNfW8+hYtFbA68txsO8PdUBBpcLzGMKA4ct/mPyUDc11GFHJYrX1eJTBu8bPHZY5l0ytucdkdAswiH7zXYDnmP1jObIZefUGcpjqmdG8DI+O8oW3V0GPo/xJLzpY8RldkQeif3LfGlvKnP2HZ+0awJhNalI6Yb2iD0+r9RLRApXmESuKtUJGLeuDj3DpaVkmSTQ5R4YCDAo/v5NLjYldpVSV/ugWtLivZ16nyRh3WKXAbDqzlkZDqamPTVXc+4Z5uFUsgPcq+q5EycApQgwCJ+rp/ank4zaSD6+OZKN4AIPD4dUNx2Qki2x0nCWFN79kK7Pky3ZtsQaqNCSaAAP7veQYM4KY3S2dV8yMJ8BRPHVemRlpZctAb5WcUbNB+c3mccs1JNV8Z3N0B+ZVHain1bBNOVnDLKQGqgO+dfQ0VKR3pqYf9fhdF8GxHtfhrYXaW/b6wbqNcgZ4Aag+xiDR2NY8FXRgAR2hEAAAAAAAAAAAABq5OxhBvs8WtGLji5uRMxXXTBQUNHzFv1j46nQVSslY/KnlY5bIZT9e35iF6kI7LYR32dFF0l8kCoKzV5KEhYRanLcNSJiYO1rSZBS+kUBJ4QB/5M7ZhVTSvZim4RsGprrap3adf9Fy5qhccxYznBwTmnvlO73IQi3ebjLn4JzN7fagKP3dQJxK4m/P24P8rxEoe40ImO/eHMrhCbVHj3ibzEWFmdIUBqAAAAAAAAAAAABBxzXfyqdHncpUpZPz/MU7CQzgsVCWCXl81MQsc99MpQLDu0KPtKjwof+qsiemmpTdrGGXgzM0Pmhao4dC2K5tAvNTU1jXOzAbhBGdHU4DrRrCwLvdZxzp59vXD8UVjBwDBDmDReXHJrgTiYpphEE65YbZBjI1e5xbW77DHtNWpHx7OR81fwE13/J0kaAd18EXEa5Z8yrxZRMBw0ws5IKhudSgfglcq8JrHDaDkyjIzZ7npsvvQo8mLtiYdxl0ufeT3jDBCaM9GQlhpZpmxfDsVf8Fec34UHH6ImZy7SDHunhCS5azXOPedUaNiv9/AVpke7kHk+vd/vE+SBMJwaO224TE7Ns6MUFp9UaZnPLQuVxoSupLCJT2bR8KwHhAjrTreRDP74ysrRZ83Bf24OIa83gPESU/zF5UgZbAaBIu9VLSSvmW1xJ4pVmzOrGMPnvfbltFyblJggqb5kkZDuTkUzMrIdDPboebwHofJnCBl4+8nYRk3t9t1RriOMeJnvAsfqxRqBYdwQ/3EPOabOmhE6d46+BEyNBjNo+/Sx9yaGvmJVXK/3s7XN3qCg5dLN9ORlWSntGTq6hlgnKlR8lk5btI+i/3L3OE2nN4WoJxuKdejP4on9K1gReEExfD+Wc9U608ofKPJ6ygB9Hn9BlScR6QBL783dg9HsNBWmWycUYaYGEO0hI5apyNe0qWuMhFFBRc8laago5zQtRTXa4iGzw9zDjQQwngKwiCc1A2+fVxW4Qux3X64LcOa57d8n5X0JInvBoGktj0hu208MfxErwqJwMEvfKQRDl1zOxRR8Wo58LGXgI6pJoIy78Td2vIgG89EyHP0ZaLaIR1c0aeAoFlX05PoB2Gr6MZXv2DKMjVHWDL5KstoJFTl3pE2ONOFApOgxA5oluABP8Ed5qoIGJo0dDRAzCtPPl97OFKpE+3/Psi5AcwYzbP03LmwNbAPLzlwb48VHMoNJIPXh2SFixfynhlwFd0W9pTsl8nUhAsqYc8GSuKIiwnqZUsRA/PsGX3dwXsMSw2xzqdPSirTvIF95Nr4dtLS4MT+FiZ5cm7G7VbMSd/FCZYN0A1ruNMh85A2RI8NspyYp09Bc+3Cn0mtKtGEShVZn1w+9UCYcijX9hSrhU7vet0e44r5gpRsJ7484wS91tj8ioEGMzzs2Q2KyMN7BJp7sd8vEoGEvhNFgByOtGBwJSsdd27fzi9gR9L+tDVEww2tbCrbg8Be5EPoFpg7+GQnZhhRXCnb+w84WEMBMHMcFhiqXngNsa9cJPVHuktsrEI0qiJ/2ImM3V5w1lLP9oFAHTVAAAABI7hYUhzq70dcxAcaKHjtkEQV8A0+aEUkFZcA+vNF+PrWFvJSh1r2MNb6MQEFZWOn/44rPLEZhvn9LwphpqMJyuSUrQtx9quz99Baur1mkb17hawdLo3Pee5iIOJnfKocvqRdwy1Nvzisql1Vfn35D77ZgFKD8R/vbwGegGEjjj9vyiNqtz7fGCtohyF6JdkLFLorummcB5rL8CU00NrqKbvl1zeFJ9YrX0OyWyF7H9ZrOiO/lx6E3L8vxcEFG8YFbrbK43Evzsyg/D73Xph9KJ8D9QYj9dCBju2v50LrDz3jC+jVT5N/6+XDqpQq8tuSi7GXHbzWTQtOGz1rjiWuTj0Wzn5cKmPKQcYQhfSnOQjAOp6A8H/sZ9watHfLuSf/X1C9265wVeUvrEnHyCE5ItlWmOraDin9lXEuBKVqb+bZhOtfuUygmsI2X+fkdzX4rCjQ3xBEkEK1EUO5Eq4YMWnBZ0EP6BCFznkRwooj7ahuYeDJ+MUkOPbTTkYv273oUchq9Ut9nJ93Gy1IvpOWo/No6KPv/xBF/Wov0l8fkTtlf7/+gN0Ubdq6JZMqtUC++JMBFlSW9Po/XOjN9Q6ARmfXlDciqNRhDoRumU6UI/m6kHAlqAtp8oO3EJoH0RHAGe0M2EJPoSiTYlv/CdMYWvgpFSLLs8QkRP0f/BMYFwyVMaZtuN0WpJkAedaJOip3NGAgwinyiFmDBV5WL6rNEQ8n7JgM2hmLJz/F6kg0NG++56fWjiGL5bfHvg1MscaM6Uf9162tmpw6fjoxStid0lftHOmRRT77ic8ad6PIn82Zi2UBB65dRBwx2Qf7fGu3i1HBc88ChCWbJDE8qmxqIzaVmX917/g/xG9ZD8135dGSeUlLYruy+xBv0Lf/Ebb2yWbBoUVQtGNn6k4Xfiu0suPKqG9s39l+us5vBuDHpfMK6nOzi/5XZAdtDBParAO3NS6enZXd1+EeviUSpHIQcLNjeZCFh9ELrnb8o6dk77IVqVT4RiqztTJOjoqXaAORZWmKrnO/h2FSb6thABw3zBOQOe2FFEFEx514T1zt7VAAABG3Re+e8YCSffa++RQPG8MwhVnaHwCS06/rjXFJ/SVQMhr1dkgGZctKfJriI1VH0xHUQngBbpuNqTOwljupWsNL0m1bam9L9quBAizRzxEWi75EHubc8q9YchEaOhkFjlwrzyBuRrDVDrZlMFqIJCvHsSqxQbY7x83iFIbkON9oUCGMkCKEVCGIHxML3Qf+BE89CTtV30ienpl3XpP1Upnl25i8gc6hRqE1un1HOC00TkUo4nQKK6lOMCiBK6iTyKVELrFlOwqJoZedRkqwSxUfHQ8yiKBiIZAXLqBZnhqhg9ToeNbyuGJpLFYRDIgl5ITpHYiGVRT4Uaqeq/Zn47QgshkJhog87z4tJo5PS5izr0evVEANmXRWzHaZGQ2sVrHnTPOcVjwufQBUPC0HUioHUm+0/WtkZjesEeh0jQwoV0yCrvYJFOkr5mHp80xa7BXJEycyGRNKzwAIAjtZOUwQDiuVQt264GY0E/PrB/XfofFKXwxortDNEIt6vBgU0rMxZjPR0te9SrvJJ+o2Q/4NYSBcsmHQhrod6TFcXjcBkG2mXnPE7uwLqRp/QoCA/Qjp+tu7eTtKj1Q0h043IfCunAJFUvFeQO4UOMYAElQPGRDLBxBGiunyMOvYaRtLLzkzouWsMqGzDR7zFNa0iaYL8tGn4s1l/FGzcbxCiB1bjdxxvx+qRiEu/NWu6c0MMggWH/of5nVCc3jFRPKrTcjeWwymjZYC3x4uKw+J3ux1s3iOi/UgW2YH4IoGJuAYFC0HMDxR5SIpQXfNq4ossRus855kWiVZXNpnTXGq6/m2pZI0SO7DVlP1Cp0IFWxXR1i2ASC7VUwLWajIPNeghsrbRjScNZk1ggHpCBfkEl9CLxVs7CcAAALi/nmfKEZXjZPYOYYQ5o77IFrpgyO9t2ofiJjeQVHPrrfZBbaLSrYQimRs2i47mdajY2kx/00LsjnbxuV7kY/QWFKC09lJgkN+YOIyLnY4wmbCs2DCgPq3+J+IWCeO7dg3PGmqSgK+BofiWcnYNm/V4uLiW4z46Rr1/mXcJ49ajV+L7fN0SAhrFYuLCpPOem2IjqUjAe/SxxAONcBeR7g1IB289bLPHmx2/C+CxQ/urI96xRxmCp7JilcxF8gzpPOQHZf0Vew+t5Z+htBDzz9NGUqb5U8tAQ9NN+VhgzqA2+MI8a2Tzc2Z+Q452Lhxtv06HDA6h/wJHUi/eQpGZD2w22GNHtR8xHQaSF7eHwNgJAzY5yQvQQMDkUWZLXIpm6bdLYMIAQAitwLPcFgBNQf/rvp9vchdWnFP0R9ZD/RiFoy2df1KjbNL4mE8uZhtzBSZYm7Z2qgVmpPgImupls/XBx7q1hQ1TMz4eLjpB9K/FaJjM15udXi4iRFbLmHg1XRDkZE65WT41vDzvobq9gHhWS4hzsA9temXt63HNJaB6sJ+3KXyuXREDG7Mvn7hq1ocnvW1+r8UyiKM51vLLYP/xF3a9mU6NXb1EdHOkgYEEmaHNG0kRmeBBc598e7Zr9afvh/gAAAAc9mGd79ablAh3icFPk9idLXfcCboZuuNSBykMkVpVEReg6Bmn20Yb08qCdLYwfRE2l+16Bfy5t3ai6ZpDlHWv/aSLJKr5Js9l3bYTuniP6JNGYXHMBXfHMsFZfXMCLfBPV/+TX7TPQX7sCrUFtnASYsRM/oAhrwssSQJU3b2RDqVbrPHetImpbBqM7/A8uCcpkn3ro6qob12Tj/QCo1n7PdTITC2CCSpb/NN3bFd1dNL7bWh6Enm5920U5QBL5e1vf5gQ82US2h0LJ+UZ81oHnmtA9FB+fgUf5bLJz0TAl0Ljk7nYpPVeg/ivfENq90GxmlULd/lcGG7tquTFd1CBz+0Vn71U6gnkYI81zCAfGZ61X8o7lXdHVSv0Bfj/TKyK3nSxwNIjgssYZbhKHQU1Lt+KpUq/zXAAdHdQTi/CYrV0wNskfiQA56ho827MZJwAkDarlrgtK7QwFUp3y38LcUT957wRw8U7po4r0+5hrkaQBWv/4sgv2mmo/xUQ38AZOBNfoQNF+68sqLUkhybwtYWC4nLhfdKkCdldAo9CU49ghwsgAG0ty09gSFXmC+t8qNGCHB1TG/1h5NeiFxKTzPXajl98FqFmBw4odLsyRzsqSMRdMHl0TX5tWUVxNG7ZCpEOsQecScdZh9yBcLdsN3f9UlQbQAc5GscvuXjVJUgSUeEc9stm01rDjNsmyPGkVw5srn4YAmxLDdeoEPEBjnG48wHNJyYBNKk9WS6BkG0HF7PanKCDJD/7AAT9DHw1SPwnMwKfNZ3JM6c05WGxjHoovT+GMpnPF30TqjaxR1xFDuZfK7P5Scc/rRog7RjL1Kiw0nLtt8cak8i1yXplYy/wsq1SGFPcZRkR5uwghGQRP8wj7u8pFxvQhqznbBezLyEZzJYCwihXJuFfcYhUeQjZ/IQuaj/F/kKB8h9fQZtKb60MWCsrUIRF1E8oIc66v0H7ryX6DUuLRpiR08vlM8OrdKIKtiXODzG5VSyN1aAzTQo6SKo1hpUaemBWO48E6ZeWTF3gAjGviuYHW0X94zCeQiNvG09M8DXUOUhXzTbNqBhift3JPbP3lHNneHhB6z4l3yAqmDkoAUB9Zl69vM+YhmuqWHob+ANEbFSgcgaE/Y2AEGjhh0qJ/gp1GpGMTtqKvzixtsBGE05OQubp2Rk408dM0vg4fC+O92swP/SuYI6tojMwdYoeLB6ITk2RjX6YS3PnHk+rW/uX5P9Seyqc/urCccOiMPC0CB63OpZEs2VUR/91nxbYqh7m2IjPMkuwZ+Ukq3Hi7eHrgPbydly4jgQlKKddIWYJNlYwOMuqwUsICGoftdhh7V2dquJI1dglUzxo75a8T1h0bdtWhVKNWDZrlslkBV6UPEfvh+Fyx9KfZhiDzLPStxdMbVS2soRG0l43BzSOOeuyVfMl68eJk7q3FkQCRWIp3eeMUjqZ6uHDUsBEwl2V7JKThWdBqbjY+2rB7GE7ClhEXoS0zszvoglJLaw+bm+Sj9dUUK0XIXDkbENZFIE5kmHHW/6lCEfmCrfIZ/vKcD923sJdL5+ciMMlkDEh9lzdPIcXwOzjwCPriU+833b0Kcz+0iGCllf/RnjyfItrp2AfWh0OxswfF41BFadKTUDUo/DYR6gfhWfoRUkK59N83/7n6davgaIjZhGp96mcPxDtRgrph3Uq+uC+9pDgYDXddeMsunUxGycnMkZDULLRwcSElJ1ueddWpkIj67u2Hhy3AF2jGTroa+BB6JJYSMDZTTPnGooMsXT+4cMJqHTPXA+OENyGsf/g25/3dyJu+OnTK9li9DXv0aBknBONo/8XIhrDerLbgc4vgrvt9SvZPaW753YC2B8W3vqTSWfLBq3VaECv61hmnKwsUGXiNIecSkiclmdPnRRVLN56cxk0pDi8xDOmCL4CrHi60sR+GT2XeXM202T3VkO3weNiM5Zz7L/QXMRv4euC1Zm8zcBFHpiMLrc6kLrKSYzPOuDHXs967Tq7VfM77U603EPKMet7oQlxaM3Dhizr2hbYU5OwbOcKrdwidQybSUYGPB7iOHMgvEM0ftUyQ30/Q3wA1zSH+pl7wFVXM5+fg3Xm27fJ95kzz1rlxb48IIe8OrNN7NaT+qlc/cWOjnzVRJoD2hswoU9miuIfNOiStbqES0MXRudgTm/WfB+PdxvOEOe/sKiuq6nnhD4l4/DMrsxTlSZzgpdW/p6eZSRr7Bm3ykNJzfs6NoMPBIjikJCFhmq7jQWaB3sRgG/0e5KXKpatGQdmDCCUhO8aKp/grGC07HEgtrDs2190OAqJkTW0o9WIjOf8gm86Cd6/LogyzIiL5DCYe4SHqQLviyhP10+jqrdpgYkzq+iDG33Ywsie873SlqKirrKVpHH9Ly1Qxl7WDH8yTIjWvhbscj2mpV8TXS52sDlAsUtsJItfjzyD0TG5DVc2srPY162x7GG263S6SUNr4YcawXbyI875VC3e9ECySHvKnTZRTXQP1e+XSDMFL2VIgqqqft6YY5H3a+ubzRJOZWjg5Hm9wRnhILm22i0Dv4wd2zodi9brShbgbIHn6mHwH3a850OM1SJVsikuNxKuCyIFSp5ZZV0Z/aRwSKgOMRrGZID9CkYHnj5YvTpvpcKLuKHDC+XkgCxi+KtdjTpYzWK/y1vLxYlsgPrpWZH1euImEQzwVHakcKvQyGqo/RehDlWaPstAuE2NXAHE/pWSlz1PToPw6F5Mol644m3OV0KuZtkZqw1gDmK6F0AZrbyuE2eKUGhKBYDhp/i0MuVMeGe4SW8s/yVvEhOS+gTMZnDnoJWbuO+hVGjoDhBt4QNvDuEx1qKcO/FBtBPeJvDaQhc0d6ImRbX83qBew61WLkf6dgamLuO6E6qJdJzL+YqmVmclkt93dAE8I6ljiJnjlIi4/hKN97wDarWXEvq/uPKNJLKjuglSdTpx7I98GD2HeZYE5fUfP0vTbyGNNlnihxyuU/UIKDd7pcSOa0fvyhAC1NxVt1OSEZRiNmSkCwYyZH7EzBpsn4/2LUwqdXEkJ3oaPJE52cGoRMjHFIgGk1lTuOFiGBGn/ZSUq+F/xxz+iUFgRT2qOnf849PKDKnzlrQ+vc6IWuX6hvqJUrJ8qZVZeMIdy9Zop4w2kVCI9lsM5lC97VlQE+r5XVY5/CByTpxy9v0qq0aoogZUv3U3O9voVAnbqCSYToxoO81yAjCpVOuUbWqvRn5CejIprrMkFV7DWAeSc+aTajETqr2OrI7ZVIoUVnAZ4BoAo+KsuIzBsbElUqFBl3aqkh47L/AubAq8NOcKsQVCTESEHWsf+0G/8UDhGoAHqz8Nome/1+K87eJLNtANBP0564li8P30tHW+9rq6XFi94ZXnJ8pNGOLnJRBYjOxogNFKz2T2ukJa7V5LzQzy82lJz1iBvSTwTTK/6Gp0/S4sKfnfPgizHlQhVdlNsu5lpWv/70zLRTYgE1vFFyXFw4vae5SIAQCd9AR8+lkrT3KL8erwawdi03z0bcqUrxztPbhhHlwNubT6YIrJpDDP+KSY52tKt3FF6aZMMgAZ05A0LoASBdkyu48kk9t/WvhSZqfL6/a209XpcN2DLZSIMskLOPyJ1RJPp59+NsCdrdBf/lGnVzX1v/l9M5AlYXz35OHz8EAQOGYuwQj+2i8ZhugnayFhKlHTChB/cnmLFqOxcMn/OGa78XLBtxR0gRb6itBL1zvhRd2INpjw2Q6PkITzD4VOLDCZXzJ+p8zhTmiW1CjISv5NKhjjEZOkGFuB7/R/Iu1v89+QHG9XDSDKTDb+KvzdIjJiGkzUAyu+kX8EsS0I6LEwKDVAKg58oxk2QIEnXTvD10Cuv7lzak0Y4tBDeG9vXIcr4Eo2vkQgqTd3EP5bodialzL8ISJIuUMaGd4hl5TCDFRA+dRCArL7fk3s0VUHlRGrlK4QIjlKH+O1Xm+o94TO6YjcQHiC0yyGtA027pEA5klUpuoJKtNdwvFDNlNDnLqkWyaDqAwxz/gNx0bpAjQvXdxrzIRFaLwSA7pXNmqX/VKpSrBhyJeJ1NgceXndDcRHrS2FBN+dlkIkj1ynfMi2mkI5MXUQMWYB9U22JEEL1TzTnPZyD+vEStrK5CsqRjVxYKROprct3pt8ytbTNGPL+qo7giIRXE6FkrHhIL1r00Bxis1TaeP5G5A+IWuXpOtnRIQlSekDqZvLkOxGaYAe/nNZH8gMHskYZ3arEN1SkfCl3WE8TRFVcJE84RZH9OmMRFeM8K3ki874y2FB7R/eQny9KnVeV7Uw168lT3xQ4M6fQk4RK4FVQwdvsAxwqGAV9W3uToclFezPQHz9XfL3P7FQSXteh59IS7Q2vhqCokkBYwy9cGt7EqbRPnSNVmz5BwIr2qtWfEQgUULQBIB2dcrWiUN/UpSdfHY6p8StV098HZzPcakMgW/7Yc+wMwFVx4EEpHQbeaBCSlmNvQpvqkWAnDZVIKKqSf8E2PlDqyN1HD+knS3OLXswsJrlYJ8zk4ZO3JpXW8cTFmxgI+Lq0Z6tzzJPbLvWKp/gSkJ+1PDlmw6zCSctY4NKSpFwideBkIaourb2rPxukV6IdeAkvDxbsSYUGzqypfkBHs1xsX2N95PuqezJSc3F0/F8fFfvo2hmtfllKYok/BSjSuu/lAtku0JONzwSa0G4FKZKnhX9eONvzgqQU0ipsoS12w9hBSDIs+ZvolEs27X6EoQMnN0ebEonv1JxOUTOozGRfntjFc9oAlJt2du3ta/ak+s4CqgMD9RwiWN8ZHze0vQJlaCemdMnuARwm+/dS204YndUc8FxPN0EvjBbUQEtlDplD5g6SE7gl8tcydjjCHcvlo83Yxn0rLxtDsCEFVoZ4jFE8MVQ59tFwSLmMIr1U5MkIJ5GrbRsOBtpKvIXAkYmCKq9yJvbpmj8o//b6r7T+50V/NqGyi2siFsFfNQPfRe1M3DUXKN8YpMXplGDspxaXNAuMH2DwvmDlBY2PlZsKCEvEc4HFO0LKpM4YpImsDeyQrrZjGNFrmSBK9WH0zKEehhV6vGZYs3oBkLvBVTSstNrAPT+gE+ijzc0+dTTfkc2jLXH3YXJqsxzKHvheUjvQKqhneRoWaRkeB6dx745D8SEaepPzEKpcmg8CdOxcL6ics2SZc7K+T3lDff3eoI+pRILcl3fStRNcMQzBxsysSNEW/IMPVcy9o2AtQLdJh002kdlLgABBIbhBUCahasrtRI7vLKCMjCByiExj+e/AI340xUdB1rnMsk8aaOwajkz3TbKEdxeh68E16Ry5BaOX5vsvZn0WvoGL8+6s7j1jNQHg3U+ywdOoKCBaJci45vycjQ12prv2p8e1RDOC+VExQYOK+h8god+OHDbo/fDftPD96Z6WvZl4CxdDJoEw/d1HHEk9969Vu8VdxWlk4JPqJpS8Y9yHraf6ZAtdn3RLvMbjyrX9v7prEbr7H+7kfDTO9I8/dOAP2c8T9gnAuHebsaVDgLvYIFt5dhoo2FYhpGMBkJWKQ90S3OSjioYC6wfldk3BH3bVgW/SeBzuFXUi51rfxJ+nkEHhe3REGCVaV6oGd3ByQOJBnngmNWbS1zvz/rROgq6r6EK9W7xcrirgH/Hf/BcxUgpKei61jxZ6VT2c7SgMHjl8lIbRJ2OSJuZ2n1RE0afQLDOhOmSi7vViX7ST3cRGAlHWmPxi+876XblsfPUukEQagYOMpVWNDxJ/XoIExB4+3aXp8lf7fbaN5yycSbcUbITaxgZx2nsv++7H4ZY4AoMGRRHFx+xES9dGXu/XtsLORxams7GLZauO4ftt5mbUStvws5R8TdwWo1AAz1aNvCkzkHgCwe4WzfXPVQS9taoL2rJPKbNB9aSsG2Dxu33Qndw4NQwbkI6LcBBJUqrt9Aoby1svhuuutglmktKQVtMPp8i8aHKfEPUwHugM5EKAECJPO4DaV92QNz8QZfL02sa+I93m337X8hE6MCkBWOvObE9yG7XtkB3/NULbDhmDyvVtdlSmkL6Q0Spxq8Cp4Pus9QJAh2EV+etUSv7bw1v35uWL0QBNvHvgHyjA4UW/PeUBzqsJIVjMqjCo5LAHb7Wl9jcwzUeteh9+7vydjgQDr4juZqw/gshdmT51D7c9dH8tW+E1/70dmIPkMoyOidcVBZvJwgeXC+SVgNVsGhX4C7tDNEayTx/mbuE6btSixzqtMop1jOnr4MNkK0PP4mvl9L/ONlQXYyWXP5c+lCaFrVt88DxHCsj3gLOUdBMeJkC4WIEYyUiX9yr0Ig1F2Pv8gzAdYGBWYHB1hVouk7lgcyzf00dMcop5Rz8Gl/yHHTc1U2gxdOqfS2jHK9x9igoHLikxdAEBGDnMAlc0G0Gy/hWW15/5qiuk0XPtlxJEi8VzcOk4PKF6jjKVCKQS/FnzgB2jbgUcx0gvwb8S3RbogONgCZ11eCyOEnsJSI8msectbkSDdrtywbY0rbwhzo4y+Q+EBYqDlDM0UeoNGBc31omy5ttkDyAEKzA/YZpKiXvvL7IEVBREBtqERNAO7313E0izu8HcXxszNnpAtb8J1I20jNOy42uHCQo83BECF+Vw7LOIbdacLMoxy99C1201eMvmTD2gTvENyNQHRjCd0axKxp3ZT4EuOn3+a0ewVaonc+Qpvc5fsKXnpr7Yz1CF7o/AUgz/Ms+4oLo609hXZmGk5AHWyJpLuwUTBzUsB604qcWVtCVfwGRgcAYdWKN2kIuoYkoxgAIQbRWf+jDuYy2HPCZpXOdHtiFu/c7qI6Qr93J7J6w2fCt9+4Fr7hk9bQOz+jnI9mzDQpPxnftpM1Z9XM0YJU9CSSiT+yF4fMTlHI2Eg2x1n9u/RrYKQCAaCBPva2+oDFH/RBDzL9A3zlrHTxWyfwPijMGVeErSILM9dHEfTwy3tV17m4BmCOsHeRytvJJ1cDwoWDwkIfyCZ0op91l0KyHogGpvFgyCHmNLW1XqWbjqrpwKeWnnd4LzsP5KNUVzRZooVoDJ//bY10e4SFiECHpHtaUslopwpORKOG3QOZ8KAoHxL78nf1Z0pOY69iibJpgEneWHBzxSJyS+7UFgBkhOfSsSOO2pRtcFpOWaO6D7wILjrXlfTH8nGYLCLRw8flp8Mvh7JD0FA8xnw7Q7c1tO70snLDZIw5B+xGeJgBU3o37Fja1T22jEyv/2Rd7AqVOzz6iI6/eutxbtk8HwaKXv+gDmsfqa42vwlkGxVQQWFAo2fFC3NXfLtHt08MobWFyYTyPp5Rt8CrRVRQpADCYq6sg7CqlldxkRCQr0YYRatCwEmhDyNtxMyd2WXFaKG7RYWzFAA/A0ZftRLRqvJ8qb/2DVeSZPwmKXlPTXCOzC4v5ZOmlSEUMqehmgs7ADJTfWKHiJxPJV3RTO81Fvhs4ACe2j9TI33mea2cKu01xfRiIv7nYAPYhI47USwndpskBLJBONYc6DKuP51j0gh4qgWY7+Bv2rYHO4rGrH8wqXYB9H3GuqUNUxwvFnHfifCMiIjRQP18UZcMdDxgMMub4qWrHcL7ehGz9S3sMAx/OG3RXTLJ0mfuheZYiJ2sLzpz5fSb7R1e+nVpNKS9xLMgm1cDOpiyeKBuu6XsJSoibt31H14kRBVM2OewUZe2HvIr+l73zsxKxhGzwPv8Cy6zBosaIi+PFaU2rRKlIT76rHegT1HKmWAoExRPu3ya6Ws9WPhjBqWy9RODFZb6Emd/jZzKFIWx2QWZxMH714iMgLJbup5QMYSZPu/8/F+WB6tm9pBiSaE9po8DZBwptwIxMD7kRBdZrtAq0TNov+jV3UnlMvXz7QExvddHmRp9Bs+UKlXtR8EVUe97KkbocwyyUwyqfgSyF5bmxG8mxg/jUmBltQV3Yl4X25tGuJZres1wAiqHUGuiXuYZR7CH9Nn/h1KZI2j3DHn2Jkyc/K661veDjjna5x4nIkViFV3zL5m9kvlTuI1FO0bqzAdYf512GiPKwut0C069FEUsdHGxv3+JsXT8vW9pm4/oiKbRlRPzP1cXi9GOuX12ltrQ7fnzA8kI90KCOor8xCgED1O2Pcdlg3cT4N41az/jqwJaXts2RpCCS//kfI3bwC6twoi7hObMaraimB9lF93iy0FdQzg/8iIhvLUrb+WimShQXudLQCzZPzWU5EW7tUhYRpvHxnIzAOHm3yjmtD5nJN8q+L3KbXg/ffzkMlxmsO5dnIptJCO87hjAKZkffgpk2H5pmVlrZ5kiRrmZLB9iwbVgMU5vwYZP6vnNz28k5e/NdTfIZBfjDpmE1GoXU71XWI9Fo9AP1577mXv2b6u7eqXhAfKS12S/Kbr7g19LHZ6jDsX620HyZvQopLcfoyAM2Vvc1GB1k2tswxvSVRPNx+nRPKyPORj+01vUS9f7eSx2NSvRDSjK2ia3U4/4ClPBddZQYis0z5krs7gnDHl6m6PEd8+SbFjSPdA0QZV9qxkfgA0eawpIwbRfizhEKYS633A3clwoUBPXGGopfvxoNGPj+Sk11yXzg3WA7V1HJktHj+yKjLMx3wF7bPWPFpRtJqeeinxSiH8myt6igDu74b8v8LXi/wxUqyQYodP3yjm3W7NUcYJPo9rZhzdPBLYfCcNLYUbzW8oENu1ZzhteNI0eB7Xo2k1acGJY0HHmAah60nMhqQR2vONDKnPNbe+Rz7sFgFKVvIrf0imrq28FFmTcBvyMGZjdtjS2InZ+fN033FBZnOZ5iyqXTh7SqUbLQdI3ExEx9r50/JAbgZewCigZ5U0F+fseHLT4GRDX7CnjQy7mIDz1XYp2cUS+3H/0S2c9+kOhJJ1rtR3+yuu5lUyum9aoNlQGEeVSm/Q7IXUWFtuWBOJ03IiBWA+Mn9wcimNxN6zTPco3aK/kNaeDCgSGyJshFdgmz4gXsagmrSDWudDRphVGQtfgdBSjvxow4jMlC//q4zQ5ROBH1Vb/o+Kye+csLlb+E5mU+rng7uZ+QDeVfEQ9CyZ2jtRwuJnhvd3cnWcYp5yQHFz5MisRXlGuIVTKJqiRpEymxjeczfWuIWhqpe8WCh6ZcEfSssw+0mGh+R3CFCuZNWKJPpxYqJyOAY+UnEd62+RcU846im2C+H791WkJuFjT9r8wcneDIo3UipBu6YbkGiArHnlr2tcO2DOMtm3LwxsL4G2vXvWkF7ypi7HL5YyJn4UBbR4Vj7vrcHP3iLyZAgFPJ56hzbzx2F3Fy6Rcy0WxtMY1E/Et/rJGg/xbbTctpPFwBWOiGpeeYnQsp0lOi5eXyoX6s7OJDTnZLQ1pxMIdC69D3ljUT4Gv2TkuCbdpf4pQmOQVH07g/AMB9372GNprkBGKojUOD7hxa+C+3KrhmWFtmwGshof9lF9rgpIhBvHsiZmZbcTce3QvFGukou2BKV4hYF4M0x/iHNB+nWF6I1xnFYZP4e+A+BNspjAYNeQLmdgkCMdgksJ0SbhT5tyn1qjUQktrA3xcjoS59QdynBhhN6EXmMSrMXYxi1Wmv9KS2xNQPRkHP+9ekX/3GOPJ8LWCZ07GO2XgamjOB8M5H5bMq0n8pbxHFR4HF6naZqlmpWwuKk11/beAjJKG4PcgFpx52EH4QZApfpIihw8vOMeuYQhvOWcf4OLkoVOLbODObEdzA9Bt/0hBHf3+Ws1z2M0chYSUddO98kfsQSfMVsaI3rNjD9ONfYITZ33i6vY3z5CZMx1F5hmpXOznA4RdXaPnTmNeqnDRCZsrapokuyiCJ/gOiwhPndBeaF5/n34I3PuEaVC3zBYk6PkXepZDcSr1gQJP8A3eMD/oOQn+qWPdCfWqn2AWpvQWCfRyDwwxkP18UCbIYp3Lm7ooUiTfyHkNVgzwGN2KrhE49m0oy7+9qygoKLHvcUbgC3+tyqrng1U+1lkzCFSI+6MzBKL8v7LVBKHtO3RZinECb9O84/nRMbGbmq2X8UU3J8E/BOG7lcfqCjly9LqVRw0C6R7lhy184Br8tpdWUSyTxn1xm+vTlwzzNgdsgcw2IAfgRpqz/k/7LpIE3M5gEIRxGalsqhJKDpiGVfCsC0kACUNxu9YEPYx2v4k79W24ugiCCZngR/s/iMyTNstyZ56HRdQKDLAGxKRfHEBWXP799/RszV3JVhytFL2TvOkU5aKv8wz0lnqzLViN8s4CX3O1LC8hMaONUYdaYImThnYm1Pyl286FBspJ4dpRHTeZS1YumCWspjim7vxtqbPnTT4vcfiSK5VCGbt3N1MdbZWnFJhk37Gt6F3c/wzutGh7i6Y3lyw1gtKYyPg93uMcu2wDZa/PsS97VTZzX38tbSAxn252+5LcE31Ar50v6nIoS5e06QkycSotmnOrEB3a6U4/DdKZIyISpGPRCgKJrRsDQihJ8EbLfFlYoiFs9FKMUpqo/K2c/lqcn8yFmnLmd+oAimnF1uP4pDGbBVLPTDUpR4Zc3MVi2hSAAxtKI5Bej5IJdjatedeVauegIlNYOGnzP7il1FKK7V6o0qxPrT+eWQUqQEGOfesXvs+q27AMyWlzgXv7jwIe9Y4QopQIPHqLGf5UDNcJlFMHGwfKJIvNIU/vH/ZngZY7JcUPb1g6LRu5eJ0xPEJwwwt/cmufbg3cQr+EAeXwILCEdhuaGENhjDf/tf7YeQUYgffmPSqmJRhca/4qFtuyUAtRKczgUwbyfQ+PG5uMr3NlBokb+fmf+ovzJuaLW/Fg58vibGzP3HkLoOxvkpHX18LB8iCLljZFM93DHaHDvbjyYTCzRj/0BTIAcI7vFLWkriVXV+TlFMREja7IMmSSOHWceCbWhpPfH3elvb/7KBgPyzZJOnXnOa9O8Wvvn/Y/t6OXWO7yrQdBvb/uX+WOltX6tKSbzePRZd54vDTX/c7HfuQkcHx7GSSZUkXLIsi09h/QPoql1elrGdDd72/QHwv95Ib1XU3hcOXi5lfqFv/mBi2Qmlgm9QlxVDlKsY4E3z+rbu27gMtguvjInGDsigRLvqZNK08RYIHMEqWrZ7WUcsbv/4wylxAtnomkb5+/JYJkwiIljakCEBa0LjbA01ctD9H02Qg1H/zPOSWXDXYku3YcRCOSlE6id4PXy4dsZ/O+AY4R/yp3iCITTU0cebxnVKXTBavgmxdNcQyw5n/3dVwFFiLPK7As4wKLX67iQMddM5aTw2PPC0ZtDoMa85j0wGtxeaboO341mNGuackt43pkb99fvyOsCMgb9WaItqEHLY2btg/Q6hTm8+QX+BlTqarkfZWsyMb5tCD+5CX7Zh5+Uu7pbDwisCT1yFeWkbwUtPLH6FcOqqzincKzyOJLmAhwg2tTANjQwjfV5x+buEJBQSSiCPEPHDx9q2b9f005t5TFkFcVRRjO+yOFWGZbJKIts7xd8GEmPa+8xo5U/deKJHcRan3/SgzgQUd+/kCLqgA4znBh2kSlvEcSJUArh1NPP+Gcdkx/Ndts5jBenltHaCvte3pJfg44QBZbdXD0W2tg7JXHbfb5UPCrdI8McGx9CR/aT3bxsg6YjYbfUYqsJ20Axu99ySnprfxlfFNI02KQ0g6qHCVibIzRfdrgNK5P8b/f3huhHLqkrYc+0VLuV/G7wEhg2jmrgIxjnDRKddISSNqaRejBTrj9I/03ar1uU+ogSYUv4tfwrM3cQAUpyC0wecSufYt3Du+byZgByFCdcsCnF03Z/CC4XHdm8dy5awKi5fKMNpXiDOaX+ccXdbaLEFOz2Dg2t8OepHdwQKslRqqZLC8QJDsnjjQHIr8OFlzLYw0XmR0NgB8diCtOVcY5uTzlclheIYAARdxLDXOoJyf8iZuGM71tqaR4ZoiBwOjzJzMfXgJeTBJwaXhY0bSAwQIo7L55rvmEv4Av463rHH1Gb3i4Idfwiq283XJGllR17GBbOlTyAVDddX5DHkSYpiAL92igGVOb+5CjERUHUu81Hy7kw7ifWP7xxVnoHJSKgeMAjgsyxZKNuOkVBqcPBAeX1XGXoyDefx1hI2s2ny0HCzqfBveUBir7Ef0uJ0ikofu/bH8auW/iYvKqrIA92ktHqYdqSkK4O5y6eV+6PtXRZ89090m5g7litpkFFrNuuF2FsrfSoB9ZDXGk/HAY4UQfGWule8LC/EXv5T+mdZmlneR+/J2eQNtOp/EFNRIIZrC6vOztl6dekHexvwr1O6mj7YS5XQLQm0CFI7IbUj+lhvXRhiUaX3Qf35QY3Qq7AAYViTZYFC7VFfgkVbLesf6kdXIyAFyMCww0JuEaiAcahFg3brQtSXDihOOn74dHa4GaOVwm60dRQb+S4Px1N9bH2l7oIej5ZmCoMRuVSO0i2eKho9a+J0CPie3dIYdf4GNNQEBieVk5QmzWszPEa/rpK89BBQpeBKS1LukSQ/z0E6iVTluueovwwwlh0hcp7fZX4yxxx0W1DLR9TWJf8I+Ho1yBJ2BA6USVVf4XwszmKQ2S8no8c1vmKWp3pWtvXBcC8DR339v1lyl68o0rek+LY2cMLpMJZh1KQW4YTyw0r4fGT2HulCd1xGaOlJKB/xepW89P867PPGVb1UmKXMVFRNHstjETCLkkEI0Lhn5p55Pt+RpmuSh5dlYsoMPgzNNNfCDOx28o32TRhYnHArKeTjz9F32sm+E3tK1zAzj5aLnSXi/N0RNPsaLfdbK7jAZ6fdBOWbQaNoVEAuuda1FjCado8WeAhDZeJE5lSByrFxvIKOChvmqf+CtKyz1gG9AEHUzYvCgv+Me3tfeE3OLXGSYojFxK+dvBT78oeAF+SlvgqsQoxCRX9GqBqKWC/afp5hurWN5CqsOEA6OROykkdzhIa7SMqRZMrXjU5X/glQfOXLFOv4oiofxSg0B/wwu8z9JLzInoNcSKH7ZXZkZr8IH1eIunzU/s0jXrgtCNI5ZMyYQXFE/IBcT5l6yVx6n7KVEwingPbcrBUFv3Ux4n00eBR0wwP2WhT31a9pVoDB22itB5hIllQGDUFf+sVDBpTqiAlKjkAYTEyrGJr8N/iBrHUO/acxCsu7r1Q7WnsQ/5xQYPaBTpgl0A9kUZGVvdRUdACPh/1llGzt2aCKZIa2HxEWBHr4J3G/bSuXm7rUk3z6urF3M5HQuCqSnvk7JhpwS5TY5EC4PwkwjR8cMUDJ8L0rmXhZYRoOdbZBamKcBB2R0nbzg80DzCmHjCjz9oWJmpB5DncqvI78xqvk41D/cXbr9RsrUbcMRDGhYVEBSutqGCPqH7+GJvRHW8qlVsd9ttgf+rkYfbKDUrEEAaYqbMfMxLsj1VIR8rffckNpoiJAJuUsAnOe8rJhnrEQZ1WGhqOA9bb1dMQgu4KjSblmi9mfzelGs3o9shwGMxE6/0X4Izg860pJNj1j448zzfbEm5E1PYP3Diq7n0uFzACMizS0XZW2bDkV7Fxk+FrDxHPF9h2lrdW55AflyYn0H1ltvES74G4M0xB3vZGVTBmzDJbIbrR7OzM5q/HzgPE5cmeYPcQIOJkPxtl2IpV6at+dUyvBN0aBmHu7qH9PC1IzDgbPIfEpodcMo4L584hLMtGa2keEt1IMxj3f/kSkymqg+4JAAHEexkJNn3WZmULuLcBM4LOFzKzz6ImPecgrCSAztPe6wgYvOqr2a1GsgYEucUMLQ+vOu0Jy91s/gMuZH39045Ka//v308IaWWieVwIBTJQt0jjXUoX1mFXxQ1tVdOu4r32rmZZ3ijVwmMd2sATVtmo+gL3MeAoP46jKul6b1UAoM/QJDb8DsjqbhgERnAosDUKTIRAibOCKheJSh+urgMJzBC4oGlg1UwUuY6eYDT5/5s7DipR5AfK08ynHMeBE0zXS6BHQ3SNKAQmjefAbPtF8zE65okrvv/Mlpmm+FgVVZtjsbK7V2xK9UlcvhZDmqQZeBP88Kvrsao8Ga0qZTjBwSrOPXTac5bvxv8PfSZg/bMHriL2MIvrrOCVvuDQj/wKLBro54p1uIs1whIXBjgHcbNFdQqPTAg4Fu/KZsOxXxykeeZKmL2xgcbz8oJ8XZCzWcYnmvRZB+caH+a2p6yvGGQp9SuDB1GHqoalkxVgh7WDiytfTcpVWysAHWw8xiXK1qwaSPREwuV8wBu2ldJ1juS7o37E+gdBMH7XhkwgtcmShXd0AvljDasg+bTXGrKnqUmeOdt0SLGPUcHNgYiEloMUrrc0sjgIkvqLTTzRSMR/9a6IBJrImDZrgZRadqaVJQwXo6JmyZEFWyV0WNZnRCZHHt4MHvqbhOk+NJX9sXe0/7W9zM7wEhjuqQl2H9uWTzud3MlV8DiNaurxU5uK7y2n/C/uD+C47QR725KcHYmtncVxubN2MoqXW215lp6N2ojLP3agE3Velp9WuVJhIG265Howj4qK5nPswmN4HZJX8M63VCHoWNg2fUdkf8Ho0Y1aTIbHAd8BOFwuXao0nTRIne3O25NtMCwCZLTNkz5khUIFBu53RVwdnill5cRWWXGe2fdZxoXYustgBlFmBVQcFwaiykqBivgsTTP+AgTF74tIjDvR8wYNYmVG3EWK0fBWEnIWjXKJK4ebRHpZfwwvgMKMwd33V2F+MMZU3U4oQvyx4TNnfv2NmwrC5IYjYl+qHHGJqUznjU9R3N9QqPOaqiJJF7NiaVrYFnjXlV+t+yDiK1otbLXhgJ8i6mQsZwjJ/qi2jHItBw9X4zIuMamtkjtpqcikAYtXA8VGP/ZcUQxq9+KTPbeUe+jbHvP0r2FzGrQn0kNBND2R5cS/W5DSIZcDbLOoyOgB1yyz9vu9WeYtuXgL4yL47989NWhAflpeQSrapcfdgPTYzXzUvMndMs5de8bd/y4awiKtd5I34Zbh23uW6yZsoFhPnPxQ9SOtiWYY2Y49yg+hDg498xlae7prwpG2rV1eSOqbOpNc8KbhT95TJD6JX4okEicNjbDDJju16plfcnRG/FFFj1qCO1o7qFCD2GOVsW5qYm/RKBgkDiRqf0V1RO2zWLM0Ly8/T73jdO7Pd6qQS0GeWgAkRksZz93FXN1pX5iBhfHS2izyeKllTwpSHmGigdrl4uSsoCYjYsv0pkeibI5s86hkyZcAcIv+0hCoDjCbCoSYnrBY61OhDKoiU535NcnVFFlBgQHeJyfeDlTLO/tj74XGiEt3vjOPerfEECUJbryp/l4O+iAmqd57l7E4NqmY6pJS92+6HXxNNBMF4SfK0Oq5+gIAo8oIg5NTC0c+PCxcCSep8Yfchhhe/xPaD15pFMvwBCmRxb+vp0CeSCljTRgeBm/rTlOIrYcz/0eua4uMvlGL5BWui6MoFAkA132eS6sbK81++XwYf/PZxrXIaCAxYtDOfcJj+Ef6acjI+0qxgunwMdov96lutVdcOdLlRxgBcWFjXvSEvPWbrMBuPsM9TAIrgPWZ4P3mlHf/0J4qggP9PuBHizVLZNwt9/5XkS02WpVd0NU2+wSisrl/+KARpn1SzfukPo7mT9RMyHGMkxk6CZCVWqr4GntKMu2TaPzWSZPkxSUZ/wo5WlHHLof93ApUuJ/MLJ53r17svlkwMSIidRz67OYBAVtSQx58dVA85WQreKUDX3a+o8L/hWyDf+Oo5FnvFbZs/b4cDjrqtSsjkgI/hnW9K4BIDIZ/9jZP844nKGny6djb0Q59op1RmWnx/arwdCz5GYN8O1nCXa127314dlUYuASlCrxr6eaLFA1RkRfx2MLCwT87yer+U2ni8lM39lXmepLJBwuGFPPKqNwgh9KxLNBKGdE3ASxaqnGaNbb6Ubx33mdV9Cr/KFscJrks5CmOTuD3CAzxFe1fg/RKNk5Eo+7QfVb+tPU49SbUlEgR6YDhsapFfDYXHQ6AfcdiA/sjJlXoaZGUNi12vYBXKDOJVjRCacFMjl2dICidMnTtR8YBRC9U3YxAGrTI5UYbzLay4lbsUqt6yS8vxbF/PkgThty1dj3jDDIumVackuvnywdbbrcI4wCWm3WRWXaV/2608m7ErKL6Na5MFwhkHox6ZYXXzNoO3GGZ1Wq3TWy4j//ludSFvE+u03O6YFVxIGaTiYRRhxMiU1OQROp5XSI7tma1fg8lWa1fv1LKz51pZ7mvZvAas2UBhLrXJCYz21xecyazVc9SJgR1NMNMkUvszNK+KEij3gviH7qoozW1UzpyMNIq5Sv0rq602HNZ8VQ7rlRcZRa8IUQLhWwNAgyKn4It76NnzPmGt/QL49tutAWlYQWBD4dX8ebzBIb3vIyajlt/56BmdysmBe2PC7iJ19qrYgW7deyvDmOMizfYgE/r+moAozjVjvRrX18Q1GWWJ+/UJh8SLwV7HEFxDgI6AxTswLGPn0/M4XUUyaosG8GXVzLzxC+YuUbrDdG/p7qhQxDSGfSvvSITqC1ZQSG6YLbIa6Dll6WS6P+XkytrMe7v5t1MbWPr8TE7hjGTA/61lImlq6me6oP6LbR7nYJP/WesLg61+io0KsWvwxSUD+bwl5wKyLUhgOIp4nCF4B6yJVmX6vyJwy2bVARSEDnUMCr7/UDmeE0NKb3cLi/F8ZCqUzALzKgDoM6zyhE0JAhx4cC76kDddlDTMwZef16LHvdrfMaugSnP9N6cUZjVh2DwiH2iQBK3oX7Nq+8a4U/8Ri068BGmY2ODFggsKrs7N6jHHt7+qyQglsMc2O0ZOXGK04nrikGuTU4HHGZfhDeuZ+SoY+d+e2osfzAtGy1QiZeT8rrxzzGQd/jOzm+N90wkGdj1yWBtsiNpvb0hiRW2yDc2rqEnLlYFg23lEKvotJdm/R4+gWRVBFeM49rhij+nGm4Q8tRpFNXcxP59rSsTtUTGMMFSYHv+vKFgTMRwx+9r6N3++f4ljSasMU+9/027t9re0Q0DwAGTuoQbVPEc/vSlmg9bBDtmqh3SXEt97JJz867RPTMgx3UwTCL1z3tcCd1bFZYf6aFfeSKq+yKl6kbtjZ6RNLD4on7gccprFiIhB47NQDQ++kbxmyw88tUNJfrNmStP4XBENZYYJgHAnsBUevy2ieDg+ufCAxoeo2NI9lRo1gQohw6AhjUClbdVKae9x4AN3jfMXqsJiuRtFzm3zMc8vk3gbE830IXi6vjkK4xp+al5jK71si2aE3QsPb3WtjKVWZKpbuBAK5clx/B7Ldv9F7bk+PLNjg315lookRWpkKmBEEXmYFk8vqcqhodF6lICZG4+F6XzggnaohdqsHsn6CJJrplIKncJPSr7eH0ZUjgP8CbJo1oV1GNDIX62wt0+4QbYIYgbP82W60LF5jKQLkBdwAn++0toO1Ef3ZvYIGA9ZLaP3EqHllbmUM4QPQhk2UWdST3U7R/8V5pXDautGqayKiLakEBl89HIgtmW5c8UYAYMDX7BOoWSExpmc3Z2unVVduw7OwA4YDZdv/11y3bdbUIPTvwlcZwJCOgCOb6MnYxByVMhnCqpfhTYSLa2MZHyZJSRmrS9grjv/+AEVUIHA7rlhHcmO9ixtIsRLa5qU6uUfYuskO6eCn+k6Hx9y96QKX/GKXpjjphhP0PH+6/LxFthBEIu1AloiMepiZVJFPup1W6xSdFh9uwnNULlfeQmwtVaNdPSN2uYi4dJ6FzQKx/kC6ru3r7co1YtsAyQa7PyC7F558jCcN1DPtZoPU1SLjWuxTn24WGNtfflbe43VqDEeNpHvWqBoA+O+f/yqdM3JFHIHCKrbtKJkPIBA1p4Z+t2pQ6ghCdFPdPZrzHfoMXmrw87dOVFbN3kwDc6fPkoFIckMafVftjEONa90xvfcgbOg+YNvcS7gUw7dr37fvKW1wXhioD7X2M1D1w3LiMFn7pAZSprsijHeOkPvXEulfPLXos5+KsXNIdOuywQweaxc2yF0f7RB3o6bP9gc2qbT8xbcnmbq9E+wE6j2HWVhXaJQGgGZRHg8IAeTrZMyPPYPZ9+X6UwbG3r/g63zrZNyYpfxqRnJF0kYHh+VWK3hs2yeplW2DnvpWdxH8R0OfHsq7q5l3xsoDZra24sNelu7dOhod3pplwP+x1nCCcA9+gCV8xwG8ZEDTy9kQuQN5GhmvMopC3adv33JJCLNcVTlgyG282xe961URTwziEfGoprmgJDyxJBVzEYCVk1rBceJ6Gc+7ewOu2Ete2q0FQy0BmwqA/RoKde/Y6rKd2w6RI/IauH3hCnCDK73q2QhTQ85TySnHG0tl5YY3JAp0OwFJHMyhOTggkNL0t5Yy11N2c4J2r6wgyF0UXQMINm2RJ7dEYZ/6CqNvaP5Rf8yTsRxf6klRZLXX3ogPODuv4p6o3NLVpDazSFvqkBzi3z+JiC1sKaO/U5yUS+aIpCl0gbRXJLuih0p+TnNF9zGfsDoGTiT0CgGLNuRVrCEeqqQnoDJF96znJZaLUCZ7zy8zQlNb/csouTCghM2CTbIIvpk5rMF39E9xNdftV2UfpCmOc5VJSybvjad3Tev4K5+/BH+zhK33GYK1aSI2eNKysOrQvHqrVUIvtqXeEy+t2E78LBYvWtA2vd+Al1soojbVQfVJbTu972xEP5rT4ov40GEFAQ6RXXYpBriJ3fXlyb6LKWCD/RyPefbxt5WZD6ZI4d6L3JBsq8rI6DhM8yYAj5nKPy7tf7FsgRLGX02TLwkhp8LHoftIq1+XZbK7ydT1TgawQJOsuTwC/33hWfQ0iH8FYlpS8+h+EBBBUN/xS4g2VlHe5goCAjWa9IFtlEaXuZl0ogqsgTVB3Ep1/NI8UuwZEpRaSz/IZv02UJ6BFRt4bTdiZ/lCa7wfw8YXh4/mKjlIn2mf78JUUWYkrvjJN5Q15WvaNK3GN857Fx5X1y9UwWbej6dhVYNhaCsgF71dzRGMA4kjsG1gG1bgutg6BfZT6vkhK3LEAwcIR4vIztBzNUzd2/maDNOT4rpCwBxShdByF14ncl0ZWLLXBLHpMvLw0MWaVb4PoGKaJd8COQQq4FoKlD0eZ3MPwSw53j/sU7ligTZwXlqz4NsdkTeL9swOYiDPVHNhFlb/6D2Fjctypg51IDC1vQE9bvEZ7tYEfmx0hhY+pnaAWGQddk/uBmEwHuK027ya3dIX3OkyaCOyUA8i62UJisptuWO73Mtmgvc3QN6UEgMfydEA8IPO2ZTesUxXBcezGX4u1Fy1UYurXpX97aPtEZTYps7CEmIy/i7PDipKoLEhtR7eSfksMBWtVJ/yMn6AoAhLp6nNNvcqTL5yJbMhJ3g4Wzfc0hf6efPHH5noFSSm/02gaEszvRyVfPN67AQc+k0Ia6/DuWTegUltr2lBu78HevsB3Fj6Prtvmh9tUup0+AdbD6oDCyKQTpPqHFdkVnxFFamgSQ1SVOTKr3DBkVvajNEdQ/TriKODgOFx2Jr3UbcmeEv8T4yuDWwiqVMCYMFmskWdOrDDrSVtvwEEi75TL4ymaYX5L3wcSJy4QFV6y/iWoUWAgFUpT9vBTJRu3Bp6fXrt3zPFKsS36Tk+uQuH9Y8rO6USgsNW9OsgFXy6VsRr8xjwGJRDIvfO1X0bnj/xMNViSonSQbyxK4VWQgPVAtQUdy30OF73h0PDFvCgyUtuvv0J3pd4cI8jaNI8Y9dce7PflbvRXpBG/dO5HfxX9X4xuFQMIiqJVa+/b9F0dTDC0N7ny6/Rk8xXxZwGEh+cVZVw0TzlNKx/nVasdZVv32mTeaQpzrDeK34TtQRvhe+6kjvlPzQ6xnqVEqUGZGepPToP6VZZxMP0owike9U8McNuKZDjBFwe3sTXz7XidB2luJk3f0GjcyrT/5VHZYKFRKg3z0qkmvu3fy8A1dZLFPFjB2emsEeIqnecoZBBWSOlajU2nloSy5TlE+vY5pEaRIBbe5CmwSDt0QB2Mad0o8AwK2N6cyiATf552ekPfWwL/G6rrPXtS8Et/z1jqwaKnMw97dgf+/BmIla9RzB5s1XiuDGeqvYDDbmI2M207J3p+uICSbmA8t1YPizaY3GU5dPTnWGqF3ePn2FwCNagPVS5etPEwpS7NPHrLXP19xcVGI+e1uUAR+nyfCDdd/xgbfkf3UUVbsRr9ZmMpfNuO8Zt/P3j6HCnU/jMRnUbO6ojCOXYYJ3ewkqoG08E7XSdzmienYq0JX05CA1Nrt+mTL7vEaGbxWKqtQ4KAZp8twJZQii1d3/7DTEAlRG09Qg+i/BWx2ZqQqWlBkXjpz5FrRWWvxA6lLVMpuTzLyt6XZ57M6WXxWbA0b2VKTa2sgtgCQlWdXPKSmVrd9sRSdI0SSeX/PloUvMSl2byJuRWfGC6ZojHt2Q14IruvRMeTaYoNZ4plQJgX+iJ1OM3usO4FL06VoqG2G+aixR5YYnz/OjtZC1ZJ3pdSw42qLwftSGAbrZ9+dII4SyDLnOcz/RNXjONp9vSt9/bRqZGYbpgILBSMEKjm8b5ZYPY6NYmrKnCvQ5DLWy8vB9afAmAzhPg3p2b9NbioUqKjvFgH7s7jR1TC/JKPjAEph24NNF03r6mDurornxUrYDFvo4UZ0z+C+FuXtu/oaOzKD6j6IuHmx7YH0O1ex+ZtbLSMzUAYou6jVymYhGFuaJyaikjlHuEbJagXrhssIZNj7S7Fkkz7CdIAdkssY5KpIwY9akW6vlq7KXOV0WSNH7KH6qTDuJxAMSdmzskEj544T4UlijDh36R8xJVuflMN6+Zhh8pZqi0IiLXylhuRHt4W8SeLO+5asTPajoh2fqYbhEGOZISVi1OVLmcWGbwP/t7rV84lfka7O9XskxdoFipMnEqbf6R/okLx+9ret/2f9m8B93Rf5w+YFmQxy3ESaognJi3P23+Zc3FcsA0QEyI0j2THLi/iPMcBUm+w1gI9F7/Fj4pfb0E3IVb6NFyVnxZhC5DJoZbslLsXTqPhghH4u+awCah0NBeaeTawey89e29sCEoLElq2Oixq9Ysnd48AFh3FWQYSGQirJVMMCMiuJJHREGNv0wpH0eqn6Nz7VJ14KidrnCzut3q1cYAIWl//YpNQ9txREpQhrmy94ERJ6nffFFnBSX19hExMobt+ZOc8StVlQcXfJlWJM2wgaXKMcg/IunmTtHcuCI7twDWzLw63UPNBAEt/DbC7uFbmLbox+ysjtBLZdkfEC1GoLyGdU9O9DDf/vRlIDVGPEhSYbYWXxfudPbnGDsRlOMH1CYyPJqCLRYIKPpGoXW9ypD8Sdsrokvxj3cDMT+lFaqjb7S3g6OTK6sPS9tKozOkZ98yBCa34CMRs41mDcKjShJ1JjpWYQGztLpHz1z1srhO8zaWb6cOSmjeZ//JnJe60AxxIHJOcDxejc3jQFvK6dU89dXrfJHW9HnbMxhtwqj09ZnaYrSWGEaUdvOVSZnVEPG77Yp0/7sQrxK51H3jII63ohnnMwbZy5wQqB3yFkDFW+wji5mxkbHev8W8zFrXT+6FdK+3S7wCWIBmo6a+UwXqnC6SPBZOECzu11a3P+IXRZpYFxYtDoiNewf0PmmOVipKbU7n3NspuDRP+5aic7wyyu0h5BM8UWUdOUKYHd3WV9y68YfAD24/LqNOWrh4SDV4gri6SBgQnM+brPmKQrQIn7nHMvCLXS7KvoHt6Y8c8OViR3lMmv40/u6C1P4NiB1p/uZ/+eCoRM3lb0DKuN+Tg+ZOuCA1NcymkpolpcSxdv9a4l5YbISsWrtjChl0MjvWXzpVOQifijXNMrwwHltmo9S6RoCOxmEevdZeYcu6wSndQGYoHAOl8XOlZCuPyfVs7jS3+pXDyyN9y+odaWxeDBAxBrj+iYuwxi9BpkhjCbrjNqnB4DEqn3hy3MSHNPEfsI8vUE8HAxddtlDcQwYPVvM3ja5281rfy4mE1Y+PfvJaltj2b/vCyGHglBp5SDhNxkcr/fIRUyrXPJ+Oj0pq6W/aaPfMB7YitbY9+8UeMHTrD7o/IvgKnCEA1wPV1Ra/Nl2H1FIognpIfMqbk+GYzPyq9RrYc11u58O9Xb2FiNFtqrxxSdC52osfEkehg6SggDl4PLP7gfE9s637gHh2+FQcqoKR/RvdaEGhfOex7nuJEAyYNCtHiq48yai/xyuB+9++9xgw/egPvQqXPnKR/lPmmhFz/3qRioczD4a8jaAk2sm0X2NfBUyVEbd1SLN9+T2xm2Upa/v7YaXatBzxiZcAFlAXFAgn5uqIQ4NWKuD36rs0OzXgq4+wCZFCxRuc90JDS7PjxWbK3DNuEul+ddheL6XwQ1C6mV6reKWdvUcaawrkHuZcQOg8HUKqd04YmTbyd5uAUf+zScP0/ceiIauRqaoK0iLmawmUdYScYAHXzU0ZH290zr0JbQG6SAyGWxjdu53XIYQ2tZOUODBt5WduScXFAfZ5S1BFcy8qbab4OzwhTfFgF//FN30OAkl9/CDaxnxrwVomwHox+5FWqh0C4xX928tOEQ6OpNH5akFBwa4KV3vds1/NevlLFwnMSVnyq6FPOCHElnoS2K3Jo2r7CWIt1t05Rz8aoyL/DvZy6RKqGrDEpGqGx3RXBo2+H5QwAvUFHLUkzW7ygVXq0Pe9+QZ8FvcckaAQitWV7YPMutsJFVENv5IaNu/IQXKZYZHgHGxjqtX8n9WM8KidxXTv3ez4xl8iaUzxoZYluzv4lKiQKCP4/hF5oWgcfDN8N1RhULBl4FSWi2cL9qFGDf0YHtZZd9AneOxLVGyGXczHTzLAsRrX5dd4NtCBFonwdP5tbGFK0iYeOFF41s7I/mBkEL0rEnHz33i3nLQP7VdT3SBWgNytHiSQ0ovtbb6Y8jlVjAUrMi0Uq/4TIluTDS7UEOHZqQ+Y2fIcCymOD8JfucWz+ZqSMARzD1ZhZ4Pmr3YxJgWL/JY8C1fvwgrYwogV/ME/3vhq/s1+ZpULoWKeywpsE3ovgXsZ/jdGVlAPdgCi4Qxmek9dyhqKkPtNqKVTSXHTrvgk/0Bvj5UnwuCd9U3dZZ4aZL1jq1vcD2ofQ7/fVDN/DoXanUGDFKkEk0jkFDyYvXaCC1mWKy6aRXPZ9E60YHNItzB1xQr3gLp5jyDo4IEk8cUfo452LPRsD+CmPN9AJ5BcbMoZNFs1rAJ0dGS65bhfmlB0A9GfXyvkMpW8Dz1x3ecF5g97k3sOyURdayuEpHesNC+83aet/+8YBJSa78AT6bWiHKFrx1W24sO/uuBNoJAiF1bQJcL0fJBLsbTFeFGd80QF9djjUTFawZgkwUczSocBzdMA5GfADcj8V9kV7Y+YsQULaPeNj33G3NIm74Sohsody5AHiKmbiYXkgEVHAKkdYw9tZ4k/9jbbEYbvPdZJ1bdTp5bDTor1ER/G84MCSgFHccPAITC4xwvsnybwLXMw6Yo0oNcsvIEef1ynqVUjABRXx0RQKvJi6N7S97J6s8noynRzrFazHzNY1eYI7GHp1auUeoh5vpThYf1i/ZIt41a5/v5TY5X3K+IYcvDCKRHAH7MvHqfJGigu9KO+/jVZEPIEOuoLHF14pn3DLtC/9s0KNVhRS0/u6Uq5vkei1cQjMOhrhDArlIBdfHBXUXog/JDt7/BjldbrrFsHtmxd7yoJiVwHQK6w502z9xmOupIYuuxCXPyl4BmKhnlG2YAPQRJXXbJLat9At9hvPT/TPYT60C/PWBoYV3P8FeMK2BedeaBEfrdYxKt1GUcEhOsmo3JXeywMTQsTvBfFn4jAAkh/kLPJuYRRPUqrVuXxQNtxX+uqLz12lI55IuuKsdxwaY+nFif8Vmb4bx2jdyisW1aJFR2WYAcT0xO1lLIdB7db1YdmC9Z5ADZBFltfA5Y74G7hs1GP9xjE1WhbCvjlQ45mgc29c/Ezyy14QrSjRLHo2eYXwS8cqJxzyWT6o7QqljUOY+2Axa7rUWdcDNIpbIdf2oV8Iwm87eNlShpAr5hyvq6ofaKoW8uJuSJxSymXsJhIoEba4mgNCzHOYprtPloH185jI91+ZioiMX8z92PA6qp1KqzsEMfRbOqBMypVFgCDrbATxBp2sT2a1XPVn/Sz+hQwa6+a9J8BvSezuLM6Mirtv3X49FBQswI7U6/8oLCHebUZkkjdvLA0Ii7QEK5SmrbqeFLSDUOvAXSqxqZagcK7YSYPyCEpVVqSN8jVOCJRG7T977DmuDk0A5CORmR9dnOlz1dr2Wo6I/3qb0+IAhFeBmeDaEjnzBY6hetHwP/LoA8SNjUSS5vNYz8eJv9gae4Vrpt1B1ivSt6R7PmL7qcvWM+AupaH15VqT6xHQi30bi38683E3VU1wY72DtOCdtOYqaaYEQeJ3hQzoYRxqPu6eNrtERcsEaSTVd9MZCVXKs6X2iOvh776yzE+70lfzZxq/ElOZsRM5NEhgUOX7MHwrQmJd8fVE35kkIUpFGNTguzp7V/ntsWNzbB4sfTrNr7ytgEbtiZzLBdeCN/sD2sDSHOI8MGqbq8C+tEIwUyhUOK+dm457VFNIcMuBCx31eVANHIExXihi+X0Vdz0Ts/NrAEJf4rwKwdk197C24+m96Mp5gMgTmyZWu7uY5znr0ZOIob1Gn7jgOwj+bLsACTt2vOgFC+KuGrjFoIrarNurE3Ph5WRwjEohjbSBuza3f4CluhJStfhxeoqwRdXtkWJhWxvXp33HKtC04OJAgOmcG8sdAw3SQvKeKD+ZpVTDJcaBFztItk+KUSgMxwBvRdkzvl0QN3FFqFRMshX9uSHECjZZkJLAQmhs1wKWK05lFsxGmIbDoV4zzvtMIiSTZdQkUajRx8ZMl1t1fohQOdmZX1ZYm5w+KpN8vd+LdaidJzgFjjR5eJSbsovbJZicnhLyJMATqmMF0XPF1hD5Yv4X9/V9tKigakoHCf4ibygaaAPj84G0zzLhAH86PJozlNxJIUs2wUQldcDKZoNO4AT4aXfCxm+VR29YVsQIxNVlDGzfTIw2A+zCSKG+z+SZtYnLh2Jl+3OjWCvRjXH7ZIZ0wPvOGsxlFTo/Vi3yHKI7PhuAYFzvsv3xSOGPsPiMdK323ohlWg5KLULzKGfCUa5xIJYbpqnYqkrp2ysdSrAWQDkayxxYtajdLQ5rJxreStKbXWu6H/hckKVLO0ucO0sNxHYQEVziQfue7IAoMT41DKV/LN4rqzF3CCo7Oue9835cnyZrsf5PDhH5htgXieDO3TT6oRE1n2DqGcJDBcyzdZC52qHW7UuBFPmSZVmxzbc1iKNkQn+WPzOm2jzNVoHlWO3xrVgcchbyAAAEDQycyWhFkspRuZPmURsl5GGgyp9svDVUHmf3nmOGNuJJx4troD+XUDlUoOS4GiKGjWAMKXQwitrbWLOD/ogJk4ImqNfY/XxBzMAA+FwM5ybuOWFsIAmg6J1TdCHG6OjSZfvJ7gnQ27/EGDPUGqgZ4ARyFdFI44QM8BaYNGQcgLhu1o+fvkUvAAo536U3qnDpTJ62WHHyf+kh1KNqopqA3PbkLxzpxkrIP3tmjFm/5hgcGhfHbiuF4keQR36Llzc6PdlrXHaJWDt2ifkPy3AsnBFPtdX/HNI+iHWHlyeH7aDuoUKt8Fmmni3tjdHqUeFYWU1mNdGpB/nVRuBF792Ryhb8vOyoZA7n3Lm2ZTYWSUQidP0BiiBFlWW2kZeWJG39CER9ZL96bBKaFv/RHuDNbdrjVNCO0FxkwexGkdG+MVFRpCRwN+owvUwQUj/ksnDeUb/Qg8/rIRMKX6vf7kZZGXMCACyXvM9AxBKE5nWmUL3iMdQuzByaogaNDRxY3W1hVOXkRjpAwS44V586KhtGclrlNrrsDBsDTGHmRXyn7MpWbP4Cqa5IRbwk7IBgG+MKxUVaQ/YZmwSLpX9tXdZObTgsTMH0es6XWzahEamR7DMLvAHbR12OXJ8+CujqRVFdR+xVBNgmCaTcwntEm4ZfRVpG2PtyLPUGz5z4b2FOFokDh3wgyf7NauqX21LgWZ1aDxCvGIN2iTcois3wL1k2SAy64bgoG+cLYklti9TQg36QnWzPSyAHZ5XEKi4p48iU9hWTH7uftNC5hJ1zjHudSExP8aUu7XxseUAnMflgUsQIxKr6unZ7vISuCNXTnukg+LSQP62cFLQLXcgfcyD4NRETGDRukAYUGoLrYvyype4WpJASkXuc+TEiHrJ5fD6HMwDl70oLuapJOd4Pyr5CmVFw73VX82a1GS+RZgvteQ0mWoOIN9100TL159sVthH9jd0oi0LDz1woeRBVgPODckDZd4miGGRk4M221zjaNJAe5I57sxMZKndSkRpUQOCMSUviKRZnDwEPHs9jxnJugtF5U4ayb8i2PxL8RdjBHkkD08wpcQSF35lx2vqHN/XnCl1lkz+7G3KiBGDFQ4IkJ3UxhNV94262aQg+Ih2e8cgyatMbhccl20oRVA+01A5awZ51TrihewMzekmQXkE4jJBm4XV5t775RH01hyaimwyIzmyk4GFkoqlKxS0W27v9C0d+vXtlZvPtagy26VLZgTm0Y/3dwCIwC5i4Y+AJa/yAXS+5ikH2gzAELpa2wp+CexyWeT+IqMPKMegZpGUOuk4yqinMBBPm5s1AssvyR1HbEij0cnKRKRPr7G3AYpFsL8ZEfiJ8cgIVoA7KXOwMkEHFSg4Z5Nir+760yKFIuXJwCTncDNsQsFcsrPggjhAsuHrTRxN7Lu2K0to5fpA52JrWNjfBI4qEGEnVRr//0CXZRkvuT4eorOd3Peftq3WPenxwt7T3TKIc1llDz13+MiHwdsYCHWci4d1Ly8I2Ir5fdWbU8+q0fQye3Qt/QjL1Z0p6HcRvQSzxV3AFHG8bPi9nh5moYV0LnoVe6HFK6b5Fv1YzD9ix5M585o+1eJhbAm7JXOWqjlV6tXv98aXvbeaV7AcMnZaULmvfB4XEvCdA+695ojB24OkvlZYfFyjpIgsaLFAbEtbkQm1iZrwyUb0SUEGldhsMbltpBNhV4hV9OXOO+rYy4v0PgLJ5E9YfLiJHW+3xMKffbWg1sPpHmkLeIoKqYR8XHGOfgDhOcvg7r5KLFFv8e/czkRQCwGNMLQBiVs3A/CVmvNMYOEFBzam3qwcFEqV+Sb3MOOksBOAcIHaIN82apUa43KW64C3rWjloWPblLUaTKW0D7gGxe63bB8U84pcasX1ZozXhcAsre4a5gYoq2WymglgDE+jH/WitgAAs11veR682YkE9LWXd+HmxcDVvU/BfRpwQFGCLegvy/VdM0Mal2LAAusu2A/bttYPJy3F29iqVXapv70vKI7zRCCaGmunVAnSGYC/E9yPsfenru5u/Sqkf1vubcxx2BbPIAtcAJJGvDYyKDCEWcD2taGR/hENa0mOqzr4ixQQt3xq+RcKugyhGprPrSG2cOdLYcOhFofe8eGejzs1znNBLeS5r/JgR8Y0l4TGDDeew1mNpdtXH2p8qpJa8T76l/6VEcfE9W6zkXVbq8NNrraGD0//g15dqdbtvsAn5HSSEaFxs0GrCKvHti7fb6rATkll0rrc7ZprnxUS9bdVscVgxPmza0LR81I+gdYnhyzcOSSAMDryrLciyRe2YU4nJzfShMhacNAxhrMNbQ3caVSA4X0Mjb0Uow/Gw6RbcA6CWa7UYsEquUZTxv/uqTT0BMiuMZ0AhlKCffUHQh4MuT+hOuGZcv49dnCPufmZnsxJ53BiEfHHdiypj5r8ZKXWN+HHqzjrHx2QnMSO5na8DFG1nHRvyULLNoJqVrxsCAXrAK+LbsIFjJG1buLRH26V3uw1AUE/IW6aRAtUE8xJWBGspIrmaz8aFJmNaWCkdRjN37fwarYz9v8jBNcFdilyZGq74XllYmHRj0Jb+SsCb4A8kwO36hu1EZxsVPi8wF+Y5yNCjhuMcpAGFLtmPg/52aCFODVnOiO4Xp0f++sZEEndA0iNMNCErRmTYJkhzx6bH7LPp9mQ4GeV1KMP5vWiYn0bBokIYtHznPqD9SwBnje/iZkeI6nZKNP3wYUkd8/f8uk0cqINUoqe0YUR0oQyc8B+7UtgbFGTH87fySvKpHFHjdE9VvpwFRvSX31EfTgsD8L7HN5N9Yz7L9c7+l9FZDtTaKaJQBjFaXLEZNuViJ7YMJui139t7BxRHjTQbluD+prU/gSLBnnPE13uRtQFUNAkzGoxyx7M6pK/QfTpu4jBeFuRafbSlalwAtBMkhh/eiS4LjxjmNWmaRcRFkOYZnbYidmWoQgAc1I+GpH8ye5eGUehlBeROud5to8wPPS95Ah8NQUImzk1nmzXGFsSQd6c3ZjfZ8SYj1g2ECDf1cTi62mEBhsr0ZJAXWJalUSaMPfEvAFxuMtnDtdA9DeksFLEDoZbz3ejMUVoFcObw6BtBbXJYa04YTN27irGRQX9rJ7XelTSUFeY4cs8SyNw6M1haSsbYd36t4Ng3jFg0oqMRy//w1LrdYcIdEJG5d31dGgWv87+d3Q0b2rHwriIcIjZq3FzGXQkWfv4N2jPk/QiG68MOOz5HSaUhoGVK2iyQ3SOFFLRxd/P+BlxBuzhUqfFiQBu2j2lNi8TGz1Pjj40w1jbjQpUS7tHQElIoKrEzHwuY7arcaLmeMYMPuuNcdJcXcNp67RMewox31MWICx+QrwHbVCAtD14lWFHQ3vehMvJnkkpLemkeoaBtnwwxZnwC3LKldR31mEF76h3ch0FupeEkoajCszfERw2a+ifcQfbuKLrutYC0HBZwrDJItI+3Kga4Jp3VVSV5ClzjULvHRjq/wfy52pasQIhMoyfcNxdHVeyTNxabkMGF4lbsmAO1oxvX8802ixDkaLrpoq7cPrCO16p6QqRLYPMC/hK8SGTA+9HqIrm4jxjnvZOWVWzlgHJMRsQdtXPC5rBpkw6L+mTJplCb3mY6sIFoJSWCyxVF0CyIWN/XDqYzeFw5T1PseVn6OZn/ZnAvKknalcLgLNtBsIbABDuMNz5L1N3ds8Z+iqXk8kt/e9NU0yzLVM+Xvd9ebNE2PUsxWimAhsbvqWlmpdZbVU652nFJS4i0PKRWhU+iECAsYagscuc791TO3Xrrnhbff5Ow+kVsUHUnNyp/HYPYqYkFMoInjHpvqcZfxGdFBDtSqrVfH7CCymWbqGXKIM7qfNcUD70BHb7+ZZJ78qy3hEPCrgYJyDSooj6f/n7G6q362sZhkTLjUV0OrtmzoeSU8f5x0VZLinBbIsvXiqLb+OFQ7gMmAivPD742MJym0Ex7VrGWoRVnIwUjiADSlFHZ36DUKwvsHJHUbebQUP5wD869DR3O21BkGXg4MWGqkws6RCZD+B2+eev9JkJZ508/pVNdYZvkwSj/orNzRfiy/ClUokAPDnNXhziRAJZ7Z/Yiqhy5yIhSBmxx0nhngXeKs6Oj4oTN4PxutUh2vsE+0rwZ8sCefnICengukzj1Q4KGw+I+PXkEO+zLhSc0/vgoLg86BZJ86J//2GaSnA7/XvBHHFeiMu7VFbHTiicTd252FyJZRpvm5NCWo+RgSg43TQMRMpBug03hHJ3D1AHbM+bxibh6Lw3tHN0nhbedLmrR4mU+D3BA/5nzm2y8s+91n7Hn1tmfYSsOrOL4pFWQLes5igYIT6iQX593eyKRMCLpZzIMdEq4N2qpYny3qXVr8lTAFxlVghMngYsO4o9jJYgEAy5Zm6GKYNxKA04jNEyo7H9MjJFMFyJJF7ThBbeRe0GPjOqBLM+OaaRyuTQL5v7f800jj5RnyMCPfwVTgybbVzL2BGoBz878TjbHFbXVFpDTF7tASOOPh0UBHW2DlRc/3s6tvazxL3i3njXJyrv4ODC8CkPbqEdN/PDMdh/kNocEUYKH+zvvTEDpkCpmt3/a6A6zB7wUtLL7cV8q1LyT4CSDea4KnGBRwiL5Qw0sVpLe8XsgR7lecrm1R5ea08OCj8i/8A+KnfbxwTQtkeAXxmAA5xF+slaFbM++wSQ7bJSozdxVpuMfsx5IICoAK2sZac5wuhzxfaQXeJoUJRMa3zvI8qNepY/g4vjBEsxwBnkTzJBhuoj1eDQHNNqf2GH5EDJQnjTDYn5iK5cJ4OkEr3WXblnTfhrMECK8Hef/Js8KY+0+aDeIQHcqhVsfY08RtmqqXks+aQpmN3ZEjyuHR3TfpFuFWhW2I1EP50HXUy5pg3i63djrq1+DiBgKNTCiMG2dYkr7CKA10C5p/hGDQlOwbFJqu3ypbOoB9c1F6Modf7aLcdaa8pXeD6R59ZsCLOgte4NQL98kPy+ZP86uAoAObK8W5CrrZSOvqHTAH8Ib8bBIuA9btr2aBG5Gkv082LnemhsGQiZ0mXTfy9xJeOI4eYOJ+z6f4p1B6zP+SRNJg9zXpE7cXf2PpXMP5E0Ui50ZYu4IJ0fSyFwgRC1XZgWrDwBVs3NsFvFuhsAz3Oeu7zy0WvmXmpyyO9mhPVZTa79+ZTtAAAAjlVsZ+L+4Z6iP0WPadvUJamRwbY74eEgbKotLOlcspaBqufdG11B4wIcKUFHrbgAAAAAGDAAAAKrLIXrVw88gY0mEt3Mt+oIyKa4AP7yH3tQE1AkLPNSMUOFpYz7u99zyh0WnOpPtzLrohlAmp5Azfahkptif9vGrD5j6SszafZB+8WOCmtyPKIYLnOHiNU4kM2IKGKVw9+n0hGJPGKQgEZPAc/Vuy9MWIZjBjd+w4G3r8KtPA/LGzFBvroRJNuiUMvlwn1bGuNo2EjuH4P5VO2JX4+wBMKXLPU1u5a/wNnE9/btsk78ekWe5oPihKI3Xcw/h9o1YdfYT5aDgcaBuy/um/Y8SPWzOUgebO2+l3am6JBfqSu7/ExtY4kR9+rWRPX34gWHfLD4cyBGAGCiCU6Yeuz0oR/WVF5cWqU946LhXBdXUbje+fv3C15OOGWU+jJoM1XdfI2Shr9Je1dADCCZL0xZzoTaIThFpMjqnDerm0uBDA9c+1V+nY19vfA1csr3b76CEBsSwVAd7lx9w3O12d6jO11ODxWJLbtqGuEdvLWM674hxF+Dm2CJhI/k6oAMKIJgR/Po9pUe/l2jsYymT4cuE5ayJg6ytgoLwMxlDYCkdurxFbTy8qzC9MuqRPCkuHh28MwZa0HsqlDxUduJttofJDOB/Mtp5zN3lvmR+2kRT73gT77SUnHsqfwoXwMP4hoZcWZO/TN+G2XefPdaRYMsTmp5lunw9LUukz4tIrbcSWJb2QKuVU7tPNJpWY4+Rlfes7iHJFi4VYONLXjrye5nmrYWTao/A5/sLgXf5Dt3xb6DZAhMZ6tVHCeQ45291lP23Nhjb6oEX7fu+62HVKdQwBGDCHEOMAOF6J2dIo6/mBtGviQB6qPV1EWUw6eypvzjE7QqSk1yu7wl/vIWqtxAWOxDhnD0bJzjoA4Xmelue8KAE1posboGfr8/P4pO5gW4b/Ak6Hxqzqv+bvHZHBaGpldqFRzBRcpPbq2IBfyz0cPVvqaXooyV4tH+48TFx1OnkoAMzRtK8le6klQoi9WSga3sz580AbUkNXJKZUz3hP+PoHoAnoRe5GyfcHILYvElBM26rbg/B7jk/oiIQjKPNJ3RMwt/I4lGPCeH/fcFNb31ynFJ48umkBzEK7qdtSc/4UKdSSoUOL/G7C8veChU1a9cLRG+z//nCYAyj2iMvTgYEEC7XIrehflyAP2QgQRBq+y79Q94/p4Em+R1x6FKekF6aHOmIPzppkHA4Fm5uoWvNKEUO8ERtU5IxvEAs2kuDbZqHhIrXFGpZgGUG7BC8O3H1qcV1cw87NRWZiPNVThu8eckhXtb+mjDIq1ziDaw28h0CfKS9Q/fY//wxfTldBxLFUgIExBXJI7Vc9bIpSTThF5q7gxolC/naFSZaNYujSrRuDz/P/0V0MwDRzsdZs/N7ci/sClUVdSRxNZjABA8sdd4xR7oIrqZpGfU+/PezS325gNAyLejCSAng6IwumyZAXhCtH5f50x36eNpmi/ASbzoCOCDXQuMbA15zBjQxMwDHf0ryeUhT4JBPsfiiioIGMfGgjqo+XEStw7Ut/jDztRB/iiqUu5+1udTfsjFARTng3C0t8KI+yPmEwboE3TJwSBTjwsVk6kBrNm/JSyHC8H1zLWsZZFKGt+w8R/lhOpRa4ZrEmaCW4rqVhqqLaGnO5EcbYaEx6OgIpTlu8O6vKsW2+bb1kvF6iZnjaPyLIC5l4A6mADi/GxokkOjEO5b7ajbqe4r1jdyYDmg6WpzEv/DNbIh+JoZpTLayAGWY8ciNnZbdC7/YxKmjvLqWh3W8k1a0n09PLBrU81j8YJXj9diwunvqhDxOYOsawtPE3VUjV07OI/Q5qAivjs1qVNoJIT4p9I5l5PsfgUhgSwv7gsE0GfmuIhM8vg39bx3liR3mDJ5fR+4soRFI+/pbdPx+z3QC6fHmLZTYAd9xf2lXX2NrMtbvvGl71ILbbCnxle0kz2OkyHxZCyB4zGqFtTF84VqVyd7GOlEiFzFGsxSCz5sKH/ioAgFZIGrK6gBpWO7gS4tX/sdlNta46etpyGljE34nXZyxbRrU4MgGmfXIhUvG5c3qbdEHnuPI7orcL4OMfcZ/r2kXtAdW/tHN49c7VC+7VjAiReO8uD+YBf/lEoLCydFmDfte4mIjhOs2NGOKxlfb+z74HsDU/nUFTqkvhQch9mFp2Lo/OKxRIu3cfeKJI8tyWxBqOlfZevu4LVifVQgMZfbBvz2o9+mGTB77ycV+6PESEjsJS/++50s32XzI3IONU34XB4jgkwjyx9VdIpUXr0h4TQ1fYJEDmkWm2x2CWOmprHSQTZuIb2pXZUsikEFJis4+njtdCMWZEIsLuODpQqtWcue3lmcjI0gTmFTqlc/HluSHDNDQos40KFfX5mV1ERJUas+Ys53Y10vCC/JA27CKNPKd1nuGwzmZBaQryFnVaLhSd6t9DoTc8FrMObj+pnQKBCDWhbcCrIhuiWXcOSbVM4U5i/IuZWsdJ+24Bh2e4qO/mrPRjoCEnxDfuLuj41D59Gk3WPRETVlPEyhRzMs9vmIe9Uj7RWUFj5uzKwZnX1K5GNmPT265kz/+EVnLZbu/3412NCLXpwpfUz+ZVlfEnX3Yje/vW8RAy3YHTRGKfRYmfxKy5m8TjG9oAkofkEKxD20iNypaob+PiqL0G1B39CJZCn3CBrvRYERfDPbqnYr9bh93vyHdOtikv0ExJaX4YsqvYOvTw4zPLmlK7T43AOM1jFPbrgUo04X4G3U5wwdG38zSLG5adnLhYI27SrOgU9nLEKzoezFWip18P4PFkjP2iE03CzaVagNQyAhyC91FuftOll7LKngxvU3pw9RjyGiMrWLOs03G9DhEAOxwdZE++qRrqj3958K0Bm2dx4B8ZLzm7rqevOi2Ch4ucWVjTC9nQKLTHI1EbieuQKN4d5OhtT0yXLw9fNNPEs8NNDHcYvkDqPkgIYI5qVVuhuFraqpQJDNSaXFtKr+X5drkcHTqWeVgOIwyueZDsZe22yz+BjEMj3GBzf3GQZoh+Xlv4oxaCzHiqf8ax3/MsduxT1za5F2uc/eGwsDqRXJBcnm1mEikBies7qPxFBcJiCjhzlS56sVCSrLP6eexOvvlFO0W5f4K7V/e5UpW2e3aaZmdMCaUtnJTibVtkJa+8YqdENFc8QDpkz9cHw1L05s8X3RHhQ0BWo8n+CMn9j/uy1JlNEWZ5zAwR/3/klVa4+lXi1HcJiUHYhrU1xrk27YgO4waPsfjfXQFyVsjQYkW+qjW7DNOkWPI9GBJj82m+bGSPhLQVIorLB77EW11jTKGNJWErpiz+GKMlhiwhRXeZRZdz9jTML9LyEyq/MSER2+ncO54YswUZZBsMr6PsqzCkhkc5roW8/rbrFSZ6kg/CMB7DBDga2gw6ihIvn3o4Ztt9Q7YB8oRjLz65/SPG+A0qCc02AU81jSSC0zXDsS56P6ZTFkoaR6x8EPwG2x+PI4qvs7DVUnHo7hxmIs3yLXNMKbniGSLJ68lrnRfjRCyADimWLweDUKRPwdQisTiWcodcpjLbmnEa4Kym3DKCkIRNKdUfLq2Cv31DSnIjx2U5iqg1rlt9rTSl1AmMJnIzMOKkquzxYajUmcXdEC+rDYpKCS+++95KkonxvwEZiAblKd5pRUhDb9uKIRoLSq7DNdwswM3XypHmoGeqTXKdP5MfkpB066XRX+dFCzwX1UBpVc0o6NKWGDCFb4WwAAAAAAAAJcP7cyx4A8F2SwZRsXSjPQ0YRMtfP7EqkRhchSygoVN6chJqMiFm47BAcIpxhO+4TeBU8/ydLHU6iwxU/YVfSMULGg4jB3wIjqOfztui1UYBaqOi6FmRF+jNbYdQq+zjF6ccQm29SGeg3f0EZ3Oct5GK+c9GPQlv9O1QP5qMTSoAx4AIN5E7e7UPm6/P9bwSEp6RSWJwG18AUkKt35mBvDWnwvLAwnLL/nelG+Y+3rILEOOFHHx8nwQtIPzinn/q+Pv43FmzUY0OR9xaQ5EzMk+wm8ObGf4aktKGR37f5N7KtuRF2Gi9KcY1H/wEJBlnXSBq6Sta2EO9fThSNJf+n6WPR2HNikvs2SUVhoey+AdshhYkTWRBIv+hvBtapZb9qt/CxKiMkyjU+b96sMwSv/0rosvHs59ygTQA3mQM7UcLVqBIQqqm/nfOkPXmPb1syDETxkDQ/vYytWDcO1vGhQX83OXUigwwOSJX/1cUmClE33bQkkDs+ooyKC1SWc6v+jSXfDGSyqfHG5G6BtFLB5MVc61yVSZ4hIDcWjcIxDujonnc2xOx5bDVUqeaDsnXOVtyPz0Ih0GlKlRsGipyLJmn58fz9eRkktTTGO4iIsqIuUP1XxrJhQWG+SJseEkBiwcntHOZbgLW/9Nj5CYVL+h4HO7ZqJr38hd7AAiy7qFTu3CrB2qSfCOkq+NLGCgaFk/wNJyrhmMQ1EKn/m/RorykkIfmZxvRWqvWpGcflYZ8cXNRRh9Pl7auKJFBE0z0q6pVzdf7aAwYIiK6qW/aUcSdmq55774kVGhoV5CIO1KzDN3uXSfH7Xyv9dXY4fIzxqy/dB9JLKYluotVFjyNpB0B6fwDWkE7tcWHSL9wbhGmhXmHHKEUNfvRFZgKhX21SvUcJijpF6UCQZHQQFEjd52FmZPMH8My8p9j6Ya4MO+2ZwCYn0dzN5et//Wxu7Ht0WQ4FV8VwpWAMueki5vKWpU4myn1yf29cBVoXmfaRPNu0RAf1FTeExnDK3BTjcJ6+xldbhbJIqE2fw2leTEsstgHCaSdL4in92N6nibqRtJMhivngBMU0Iz6hCrc9S72PRmyD/0NilNqHERxGgiWf0DQ2esrD9L8bfrkQ8n2HA7tES1GR3XO6vxHYQ+byefv2ZlCHxkz6CDaLY1w4D5nkoD6CJOFts2gycipq9R2Kbh6LtR+40hWn8Skp92DCY5nuO3sXuIx0+1rv66hTdziG9kd+EWVbbDCB59tGHpytA8MmTZAT1ImUWgvn4KW18IL1fDXUi4wXHiWumW1l52cH3LDKlvy4nS3fhYWiEnsLvWZbliLmzLTFZf9lO3CfJWdohEGoP8MfmAqWtZg+XwZs9YpbdK2uJcbsCi0m2fiizdGNjRuDVIrDfHvWqzPUMXyLdwWAD6G1U+JsmlLW0SccE+3MSVyHdysXvE3jTvgGu4UrvbzkNCy2ExIrG482h5bkMwrvOgUAAAJnmUBq6cNhfepo1Bq7hk+F1nCCXDigILMAlKz9bJQaxA3Gh8M7u4yX6umri4oyHk7MlxxnbkSdexn2YCNN+16V3DKT80Ur36nJmzTxd2LaQJTC/flL2lRHeJJvcQgwCbr6c9tv2hIG4iQv3e0JHlrfyAPgXJth/gVFP/NQlbtqKobKHCaAFW2+f247vjzcCKbiClbzCHdga9mvgsr/YUQdR5hVxz5PUPKuIFL6/kBja2i1SIVLG1JBSW4QUepiv+370ALrorQrpummBvvziHzuIytq5zTQ5MJ55T1XJxfDbM+QBUZJl2hDOAkw0YHcCOuLPpTS6udfwiBHr9D9ypOSbQLWa5cZxC73RxL+Ib1JQEcidCsIGYxuXnNnPfWyOUHor6Tj6KFCVaHufjv1L9ZHQIImr57G2XBCB2FoUAeHAlpriC6mG+zU+2SAwE0Ta3dgyaJ1K/zJjgmW7Q4NnPNg0RtTBP6u+lrftILc50XRdyRw3bd/NesL9U1cUXjrVROiQEREs6U8YXWw17MeZBwyWcXrDTuWRxqjrpMWoPN8eqxhyGOzp5aEFP+HeheSqQbPA3bAwsblGPnyc/+h3/vgRTE679vLx93nZJXqQmslhsZMI5mg9vRDY+//dejCgt4T2wZNxzg0lueZdQV4wyFjf/VIfnZehcfJwefSTyhKss8pd5VVdavPMg+CcHEAiFxyw3q96yML0z+IV6qC2eFk/K2w5P/IAbQXu/XdUJOgEPsTqmoZ7/40UU6F3jtN6JLIye6WSKmgeaUewKj+sLDUWYK0yv38SAf5dPHjNoBKbTmk8sdkFgCnEKnTYna7gXErTzOXXYbGck1OC9H6XY9VeSUezLaud3qO9rfbmq06+7JBAq/jGcvIwI09DkgCdpDDXxDv7ueRiLDDa2bYUyoN2AaPqtjYoYz192k5GOSqTpYi2jxcVBSG21ECWciiNYWxqEfyGj4Osp9PW69Qdyc1tskltMszYXnIyRDpydxjKl5HSv6olVneZv6FkInnMeJ7o3x3KPvP/Ty5LOaLG98vqXPujPmJRRWNa/C4tPpxtRl4EKBleT0zRc1laNeZ6d+IszCsOuGl83NHvei7nEvtiYof1HYAAAGn1WfjfvhWnsLAK663gwFXEwPCF5qAqbNl8HTDVRiabDEltAJtbDA9yPvdt14yMYBW+Nf1X1lpzsQFKFnPwbxA88c/SNeenB0M2XiSqSTuyOiqThA3XdVC7+XWo5g+nyvAAp1L/pS8t84aH69GVYJRwkI63BkG54m6umx2V9KmUF+gJjT4JDzjcG6jdAQJ5qUcaXgI2sc5eoFf3FugeAj6ojCafw7oQPGa0vdYALUchovIruTb/dnRibwxYxAEWrY20KfmmZklx9/LnDSv/Pyxo0B46FSXOVAWCU6UHhjnqI1qNnheLR19N0rmpgwOpJ6mKoR7AMLHmi7uS2XB/4t6+BtGpfvE4E5qCixWR9WxYLYErpFbCwms5Y/0cNlj7ncMD1Uv2LWe9Ll60O6lq2+I0eRNUM5cfZN9w3ZD17Ldcx74kvEVSSeLuVQ2alIn6+CJAYXgmjSBil+GvEwZQZ5h7S6ef/VMr7/kuGeg+oH5q4JOUCng0soBNqJwdu/lr5AIgx4Mnq11zWBTfFzZMAhCkSR8JQSakdnypSUX+m9YIEVkJS9GCztDNZ7RIZg2ef0TeF45LZbmds8YeSaLq5+4IHI+qQyQ4itdnsjNIaf02CTbrvmdOFdbFq60CyL+aKRmeeQcEBKHmdtm6bTqQU6PmfLk3qooJOlIYD5lv4rTAmUYgQyIxYwdI6gVatBMbTvQMxxFbNXdSc4smJzWCGk73iuTTfgBYmJCbkB00BbwhMLukNko+Jw/xZBjU9NvJSP55U4A/1A2pT2xQ4An+EJrwCqdCHAOYD/QPV2Rpzl5BcIMuMHPaxTpbi0+/2s7ZYHK8LSZahOvjc56zbiyMPfD64vFmq2oZD/deudl53pfWdOyFie50ZrCYEsXQ9axX4B89w/8Pwqdo942z20j9i5oLagVyaqyZ0tFH6ANQDlhndYj5jShY7TQiELyouQm7vaHZRWVRpBpsqIC4qe7pS7zP1ndG4DmDwSLJr2/fhZM2wHmYDkfrOfSLXwhBiqQMX4VRrbSk//+unfUSjryEjH4dlBhfWkO5XM7QGYziIJcQF7aumH7M+P2+/yx1PHw1JuCzFBc/T4sz/TH9ToP5lTM65axpqeOl+MRHyHccJ2DP4Hfoz55zDviIbP9CIh3kSff2DuFLCCKUZ0NPZjgfGOoviAAojByEf1C4zr1Nrj03tgAAAB6z1wLRr73b7XU3WU6TcicqQKaJBIpamYrub7ebtsY8Vdr0JHLrR+FPg3dOaTyhracjLitkcW01WYHHhozNmr1/PiK8xl66gtrVqMn/2aY1Azn/hJqJlSRPRTRKMcRrE2Vh+zCnrzHzHKNj2noyZvTCa8JRxzHnpEjTqSx8aMASMCNFeMyE2OIH/edd44jAiVaXpsI5gOH2UDo0jriuByPh5KAtfxHTuI2NZltzFUxPLy4wsQzTwZ6LQaK0uJaVHKWkfj3lxCZOJZZ0Q5PPvrFPzEGf+nJUlJwyMjnD8VZQMmuxEiRbgmHkkoDXlcJoKjoFIHZ+XQF/Z/FDbawIhEsm9DhS0lHFETShlZWWlD+97trFI2cmRIpAZbW0ZJMBztb2t99lpKi/EMyrXPgYWa8gRIxIOgYX2CZabUSHrZIVgpY4knezL8D0YEgZFWkXoS855VValAcXtR0xd1nDBCqz8ouzt2YVaxCx3/isJR/ERoFujpoT44ZjDl5/GsxEozE/rvbDzW6/CQhtsDGRk5JdxmLL1QljCSq+qxq2xeGaH6sJaSPJFKHUGs9G/z5TlzBf8oemfJwZXOyDndcBRxumxRxDVZaxzINUl5bNK6CiafrR1ldGDRvzlkl0e6hnRxSYcln941elu6BcEtIu4TdKe5BNoFGRTBfObVx9oK16RvhzA9TlCBZvRuTWKkjlSYW5tQRSJx2b8XJIUCuWUGDWbjycYfCbvIR7xQdWPaz2QY805/DqA3ifbysb61+IOOoKcZ0XiMW11U3izChRni6c94be5tTCPjboziy1jsbju9nWpWng9lCFxk8uqw9J5HopAZLox0/is2J11gJ1j7avxGzuK0T4YLCoiEMtm6MiwYnPjTSrakNke91/OFsbJfKXJ9oFKfaitEvqiegflpkpKBzOlxPmmeBuzrxwoJdzVnDXleAgM0VG7CZBhCHOEPUF3oVf6AVr1NZHdDhMHQbuoKsiJELK1g0UGLm9+hjcbwLQtSCws8SQ3r9EOQNQXlxiWrMpHRvh/DLuOxcc6Bj0H9MokCrHCWw29ZgtaInVu/AiqJiKEwywCoAOIFuCGo+rI4AlnqH8XotW/SZgLSF7BjDuOHBj6OSSRnRusJ/nIwpJrHjptdPZwe3NOEehI/j/aMu6ECYAAABUWkCYTXF3qoFpPDs9ApTPZwLFOUgpZ7qvNjNGYd8XiLD8HJAJqZK3sIJ0OEGfvj8YyqpiWuwi/7EQU/Qc4b/HXai1HwdosjjzrYENdNc9L4JRNShpNyArURdOIX2EGi7ZqMB4k4XrfKNe5Xkk/pAx3ll6iL880yX50K1I3VHbVQf92kdOyTj3g8RhYUI1i3Rdgjd8kgXp9jaUdRMsLqoYe7e2KVUMoIyBwmXC3Hf4RARS1UmTuvy/QgdwM/DxR6BPKcSFjR/iweMTZ7WNZNkRh0h1xngCIUOcxFn7aroGCEmbfEH1qgUP8eC1E1rEVnyBP/rm9eLrD6JPrUWGBJK6LBgFgrDZsDrufCbZ3cA9+kWak1Yy8rS5Dh0JclA7bDzjGpD2ASOooX5wxPqfhinttx6kI8pO42n0yubz70oI0Fi/V50PEXNC5V8gE4DwD2JKh3w4ZZPIwLN752aBpzGbM7lFytukhzn0e0V6U1EbiZvVItJaPDDX20m0K26taUpJCdN97ElqQgnQVTYIq5ZTq7smS2ZJe4Oyh4XRVqQTxPvSs5hMgZ4phAiNVhmeRdL+CWpxeaWB1KfThCS4V2G8a3vgh/ERxoq8EAQtTqS2tbl2SrpmsNXGXDF4mGwFg0E+GeuRCemPfglwTWjweZLendM4/orrv7dFCCFmvGfaItX2eA1rmG82Nrhmqy2eRyIOrB+MWj8//V6AwEF/2o5etc4i1enpD/fn5xehqeIHWjkgFhXVa1buV0V4ienSXpYhWsbb+HA+zfx3LeSUTuMGfdRcaBH+OXaXBf2rHTCZINlrrwis6uTC/fbtlfpbpUMAgJ7R+YVLhXap12oHnDeBt//lRQdwIcWf12ZsudtCapk6iqemthWzC8LWoL11gQLbzI0YhiyBMSJpDy/6F5EI7yx8CSJpQV6IBUVMq+3RC5dMZnS8cD9NKAcyHER11lMoiGirrooeQMhu++ChDEUW6cYuZbHKqIr8CXF0ElDTVQFZkC7YYtipMQJZM2MW2gZgc5y67ZaZOYMHjE602/FaSou9SybVdJoLVTQGgZh5KwZ9bqRizuKzdSqaDUdSNWgm3cXsLXed6npY5ZZG6nhLRDJMLy5CkrKQte9sf+90SVrh872sErBCw88ftkCo03uPb3YAZ2u4m2bc9w08FWI2AzDeEDz3FM90NhFD7YxLpvpXsmv2JINcBrHpk19lO+a6XE2Tc6hqAUBR3rIvY2dJZS2w0K/y1dpQo4aw2BRdI1AKKCO7R2EZAFbrN8VEykiNhTXVca1R5ey73XqA0wjG6w/x1JmyUFQRXKCiXmfNbPMoa7EkVl5KN/iD82OIfxlDm0zxzrTdFEc/dp3MGK4xjq/iaRs07k3HWhwtdtiyGe/UbbXTucHDSnfVWSKLV7ktnOYlucovTc6Jb8jZCPZJuF5UqH2WSq/PTw4kAhzaS1Cqa53T7Ko+Ep86FeNn0n5p5Sp17r+9bt2QmWMMC1ruDk1r6Px6xlUy8d3mtw7s7CqH27VHu7Bp1hIiBODvEo60azFmCI7vpbPZdS8y+p+Di1ZlGGvynl320FY8zDNKdAwEJrzWXEGoGgKep95Xe0TLfCVP6Q2zNH93kUdT3s6Iqr2p8wMNBjnxG4jXnJC/+Sl4YBOszFzxUbIXrDB9fuVGkcQjf0RhCmP/1CUai3TBLnkywWCbla2/6npihTCDgk+DZFDz3hy4SCnUcVQelpYJrkCkMGojpN62N2vIqs+ELpRY3fO476sh91cqwdmhvXTrDbS887vyaiOp4HzekJuMiO6CfG82An8c8khEZzwc1LBxGmY8eqIB5864MkESdA7V1YZ2m/s5cf0gyMbZqs96HobPMvS48+rEZbo/NMAgVh9IR7tGzyBC6D7A4wSxKNpzJtRMxVkTF/PJ+HJmsPOeglVrTcqF61UWjFFapeLkqzNSKgqFd3Uid58VLodPPyNzqag4wDZMdXazjuq4PP5gA9p2dS4Kw5A7hw0JFXDt43p9DWPZbV5ZnaX4NQYtknOwyF1hDvCpG8sXYVBNxjsCR8eZKDYqpchzhSVxqW/8Ok9tqnen/A9VjpluqUijz2f6nd2178hUZz5g9IGVjk9mOdPlJjIs+TJpAZjtsoJGZK8nlXedrwMkmPa/gB3x70PMKETOlnDMkcBqP05TuW01h8ITt5cjk5w/uMV2XhgXVkQa6uV63kWqN6ZGDpBtSBrJNtoKOjUggMOHH8Y6SM34N9WDkpUB24puGQ67BJDz27BYh8p/BUKY8ZSXXEmQZYt5wHGLXin7ku5KCvLR/wKPNPHQzNlEOCEbRDLvG9PebzMGeV6CaPdovQc+4aPv2blibKj4btcy4HeoNkoxnQqu0IuoSkSpXNTksx4ZXcl+HF8TLufH6YwQHQ4pjTTpnANgpMpr/vrvq/l+1Lp5VtWDevciggpeBLaS/Y65FnmelDKmNmQg/eC0WqrxDkJDx5Z/qhVYDNeMA/8xLi6kc3i+2zJn1lGPPkwROqhABFffgaXJ+htCz3SAwqzDOXA6ptUAQlutHJtUay9v77fwUwGorMaVgPQPJKfyPZe0fV0/WKLkPLsFAYXgVtAcNP2FQf0wJVakzuI+APDkUiu9dkYdir7VcfyDTphAogirzJrsjh3p31KP7OH9p74EqwloBS2Y32UNc9lfICidORhBg3pRJe8Itpa0LIvKjJas9DKgxa9HWs6ATFGfX7a/Nn2VTw6AINmoEVsypbgqyv3VT4FuHkfTS/7KHnh6Zc4d0lWPDuK6aVSNJUHcjl/Lxu+QV3QSmeR16OnBA5ytxVUmiS7QvDw+dhIZV0WqCmdYbd3KhzmADHNGFMZtabCMHpt5nNlnWEDqdu+cd8r1AT+USAmn+QMyiNiCO+hDRjCzn8b7xqAsknvtgsKQapn5ME7UB107gARHx+8DoM1V+5fbGPrzZcrb9weeTruBQysfsY4ecGjMBajMmHc52B8uERVmB2P/VihlyOE6/c8x5y/O0E2cCkf9bUolAofrkH4MnlZ+O89fdN8TjHpjdR4GotD23Ki4NDnqo7QivPydHovM8W2B+WcRU+Jrcau9JjBJUssNfQeMoTwsF/2N/0/DkyjSnaqJCjlPePrPUX5F2EbrcIu3Vnd2HxyKvQaumCfqd9Gep1/b97nc3flnLsoD1UyOJOVx7DbKrplerZ5g2BrlDUoYk2WUkeOuan2dRqdKcZs4vMa+shKJPPhhP5ivWgQhbTXTElbK85HxQt3b959x+h33Mb2eay83scwMA6Mld0PHm0YdCDDuJ3kFaAL1KyOnQek+0GslyqO6ziFFQFI+rAMPNQa3XpQt9k/iYMp5FEU71TUMhr19y6Su4OMWQuon42tst+VMKkina8LOZKCqc+wXJmaSXF5omSzulIlG9xcdYH3TR8z83AtqliE+YHwWQRT4weRT1T8Q+4vcprIj8K/u/bpo+qcscfd+YmnUa5ZcD0IUvvSD9/FJXitFybcl7frWH+cR94a6fT5/hv8rQIdS6EoU8sIBlBmrQWNgquWLD6tHr8EnYRu99ugc6KUY/wIRv95FJua/d1olKzUWLvq/NTEwRheHj9IyaXXiPiDWXoaBSamCgkjv7bs1iQqXXwEGfxReXtv5kmLKua8aKGCar+Q2ipyVugix406s4Aje0eNqHBmyQWYOCxEaqWU4jVxGS6uACTW96NUIsbkP7T6wi5upH52U1Nx51d2fkCLfXHDh41wDpOE3zIciyzZzwM4U032+OvwutBN1hgPAMLeyN0ZApsQnXgUWDnQ8e0Gv2IlIyPqgoxsSPza+pFRWTQ6APyBvdpKpcDm/M3oMbKZTKkNyqmiYJZ6OsSWtDrHdn+FwHXKFGKAkCujrMJkgbr/uCRRofW+NbYN6rHgrYve2WWCMvelXtHktJQFdnVYYfutnV4+1ZqvnzDcRbbqejrXJctceXZRMp5ll8t5IYwHTrFRIxEwVxQcMn9o0Rrobsrw6C99iKLv7Ibebbwv9MLP5XCnrzWBWEMRFF/iRr48TW6XejaWrMJPqLnLY1P15sxnCXhtNKAgJCnG/AVpN9aNp/PwxOMEfGzfQeDBLUdIuei/kU62N0+A7evsloLe72hZ1tXIKipZjwJhuCUgvqiqtceQa2jX60qdE4/byCCi+wjLH/PJ4CY8JYhvdVL3C8hp04WBwaeyQCKAxpyAIo+nMC/wy/+yNE+7pkcIUtqm/J7MRiYNg+54V8FGl7lO+CtBYzRwrgVEWm0BVPSOYU7WwW+SUZZT5kxnHvk8qaYKfFBfC6g3fmaCCne2Y42dqIg/sPPl7g7wBD7aPoaCLXTDW3ZHWMmypNtAdjZsokSKDzKqZvNlslS90wYnGT+RtThLjqlaZbJJ/cV/lNg5q7wi23abWqUAfAh0Euezrg3A42EB9ACMAI2NKvMmw0ThyeKBhWw27B3U4q7Rq9sPkgnh7/rA271Jd7iZbDJWSP4auWkFyyfiOtlVAghUxj0DdTByecErG+emyqI+hO09d0R6SKJp732KFhtZH/3s3+6gsmE8f1yNCXTDUwTeFtLdBAL5GGu0neP4IDnGELpcA6bFCw4mbHq/cu/GNcCty7ySMKl4V/52rIbzqmI3bS1yY+6SlqxUlzQN4LliX0aO6HtEJ8xsLbgp1jGF/e7u8G60exTRr354d4E0M6PBDDitcl/YDU6+PtKo8P/vK/DmbKMGkJWXOtNA4i9IcOSM+eI/W8zaOglitakn/ArprC/4sdMXW3YGxWgnxmZwT0UfMI/9ha0w0c7oyK9hlPjAPDp0qCXobQ9FUhzvDxBrwiPrgvc5ibrpWeEiStnh5zpgWIlfPzbb0u7qnSYXGLtTG4qdyhmafcYAzd2jo5006oF4SqhuShcdSWSX5FEA1Kg0PQBZXPpdKEV7bAYHYMqs+YstdTZJQMa697cvzYGjgMIrroPLaPZQHzC9H+DVogkuWVnoLuWGpbNBNEOwAi5u6/Yq14JkhbpknRoQfbReaTaF2zCcQDVkWZKcJgmhMr7/OihdUoAMmG85FApInQ039jOMUd+O/3vy0EvogA4DkzYqy0eny7Kq5dA0ihXj56s4KjzYjrhJNLAEOvDqncHRoFkNzS+g1wtdtGSEivLcod/odPsPr/ROTKYUC63gVDkF6JAhMHVtPL+3XOyMBjO8ZdEUcuZrNxVC7fT4MZSY5bWg+qxFTGFAO8OxAQkpy1S6iDMu1BLzqq9PCKA0AQhd0qaLJK/tzFY/KfXsFNpqYNz82tAVHH2Fr0ygUy8oGRTuyREkcGGzfaaFYwz/N95f0rPgqqhIODkp+1vACGIzue0b+GvdyfUUYBaEAoHy+70Xrcdd0qG1y/5zGINVoKssZSIze2OA/0JVWxtFMZX0C68Y+lECW4iWzPKu/9R/dTZwWvxKfpkrKx19KBSTsVrKLn3d4RFPVHmgqQ/YF0maHigidQW/7c082LBq4CCTpSwn4c3Pd76TAwtxO8z12sHfQq/3N6zfgueDkO+Lgk23KNwg7PXIKLIsTS8W23xioydUKE1bwRHtaCWS+9dEv8X3OC+Wc+O1F8tCJLqBc3yD+HDVXqU/IntDjYGfOY7SGvDgYIAf0kv40W30SnFGSWBjWZY0rF6kO2UwV7f8sqPmnO3VNe2JWV1Z7eQ5vBkgY4CgzqvGa9K3kXumvZWwOq8o0n5zDkZa0x/qB3bxNGWKxgMpIlZHutBRvo4d6IBnw2tkKvbOztAMBd8Zx7JWSne75Sm1erzYNReb+/mJfpxwRehMz0q2WnxRzLZnr3wOW67iofgCKsxfOFH9ZSm6j1sE8EfxO882HX/f7TUVk9ONoTLwWzCmecJpooBjqFo57RzbCm4IRvWsMFUNk2BbkudgQwiFdp7UjHeHpyqaRYjXGUrB8s0CPkuhVqpD5+TBykCVjhfmAebfHPdkEoDsjc+ctoBK9vNancZ0a8mjZQDHILu7rblDwES1eFnDny0Q5Up/bc2hezBWHgV7/QAhOp0wPBYj55xhcqCKoWydADlnT2OD7hqfifgNL8nEmXOZMOyIJmqpuxJWP6MhcLd8NFvJyKY3gXqAeXSX5TooXJf9+Eag/a15A18BetzDAro/yogKxMnMBD+5snw3+je4et7QjZJoIltMRphXXb/vpEQIxNLkxXvHj6IXPu+O2TcfsipQbRh51oyPI1ovxs0RepmKAEB1ApWjHG0I0dgNGklCDTCdJ/4RnMSx61WyGyggaIfq5hZptZ83AKOEW71XBowDwSmq7fGYhpB4ehhgLpvpiiwUC97UR/w9HLg5hg54lDOwZ40A0EDnLVlrtHl+3jjwWbGPmEpd8PbEEE3H4+41fbP8l15JkDkI+s5feHBz4gTzjnx0ZDEB2JuJm0nNy2ofJ2RugLDQnWGg189kQMOSzDX6NDpPvTLxMfbXzRcHUhZo67qGItLwAX1saDAV3lw+EY0asdDL5+bOTd3pY1r/rycfn1oLmZOEaryZ0xgeCAPWp6B5Pf1QRIO9eiOL9WtyH8Sgq2wYkOZJiX2eSBNwyH0Zq8U0Ww62Ztsf+olvH/BW0TjUSR9kB1YmMBKDvY0FSDNVxJiwbI3DPZbWZ2Y0BWLiAwdL2jBU56nEm6xDxH+SLXFXra1oZTFECrm8Uay/6IKaZOaQHH11VftHWd1qCKh4kk/B7t8sq+fqL5QA/HZYhqiWn5UQet23HWipdNwdP4kSu+1W3owKMKryN4DYp159dLjexS2znBtoJDOwu0tUofk20m45zf432lx1p+F3blsAtJYMa/WNGXENHWHFb/yy1pJUISqPmjL5ckdV8YSZVkzSaJs+ukMzGt6T+mcXoRF1Ffjg+uAQUflm7miKdJnSMj1vdsV7pp2QZR+bOfpYKgjnMXKnDp/WnnUIKvoYkCopNkvidfe4wGfAefVsd85Fwox3LG6UgcbnJMqtHhtlo6UDI341kWw4rWCob6ZnFTlR/i5e8nymcs3RoDLIpWsKc4N6fnBWlj9x3qee90eBL4EYAzzREttZ8KyW2p61k5yfvw6+YJjEDqUhbGjqSoutwF4yXxTuhQLg6+iq5+heioM726VaN4dH0oRTuwCIVamVtGKkz0XL4b+VZpD3mZ9pbmXtdg/WK2LahXNcJg+P5j/SQOyG7nrFQEORQxuT2YBHh/ue5O9svrpgzLdkI8b/FjFr4y8+ujE0YPG6oGXbwFfh9nwMP59AP5pN270OEEQlb5o4lbvnsYzHQ+bNP18CRYJx3Z2ILjM+J4DAaJ+AooNoWxP9l+VpSGKNhRizgqmIYcYtiOuAsERj/mXpkcyOQ4+NwIcBIL1u4rH3QWZ/7CQgq80vSZ2WOqILop6r079xaGI7XY5Py8ksIMLEMK4HhUBUpdDT813o0Wv81xjZm6+Z/omi8SFmf8HNc/VMA00xCGS/xwI6M+1BciXB8QegR+9nmKIqAG++gx7ztsL5iqVi5mBEa0CVHJ3w++UwhNUwOe9InNsaU42jUyspWnoOLCtzxAMk27QzKYpZDQERTGtmjF6uD7DM1q5wO8CzfaLQhACjeDzYQvX3TkrJpKiH8vzX+QvHIX4kDxaqZUmz4tVMk9OrMUpcBRWVrvyhPGjrRlx5hjzh96xYiUN1EaHKiij9mL+9eaAfluGEOXwrL1v1nUxBmqjqW7zJMRHExbpgdH6wJl8pArXVbojeSwiw2I3FCtE8TtDlEa/QQEKArfVVuyZC6VcPdpcwBWxmICwJY3pZLqSA3jhjD0pekdXhe6yCAUyIaWV4AAABBsfnAK6I+pXbZshlBLAEwEcwIOer1BIeO6nf7yrRrTYNIjEIVpa2fukKtqtAjBMw1NFRLhgo/6wClFdF7wQGtu0R24KqcHpNLO/BWDH0PbY+Gbv2radQNXZs/mkEHyN76PywuOyoyKijOSn8iqM5W33FJaEPXeNKIGoGU+2wAfbOGwngtEHYb7O0bafQo7kwrn0SCbMvdyEpN25Hemm4Np7YA6Y1x7k2hBG8zr/+SbbT4tYwT7+z5517ASY+75XaMbQetaahr8GFsd74gk36NfHUK3uv9zv2PwPsiiHLxxxCIs9QjOKb8U5ya+0erunFydULNUvw9MNGUvtaucOCzN/uztc+zxvmDTfGXaJluavFMqGpuBgmNpyv+GDUup9CXxBDkZvU5jislUjyE/2h6sRIFfQdn2xCBs6ne10qUUzevY2LSmu0xoO1buzjVoeAFsQ3ao2iVdjj+28YakzsYxTXuskwQzGND56Ieg81kfvswRa9tNGLM9z/nCBMGRbneCcu+mCDOT/3wR3xjJniAvX0hHr6UfkwMnv10zZF6grHaQiN9l1IarAQycQcY8ssskRF9OJqAjBgkGx4JxlLFqlRsBDnFAgQxGgsJkRrb0miGlrCArIJ0ejRa8GSPLm2JuPV6OU3irMuOfkyqcCtV2K4rIgk7UYh31uOsDjieCgwjAXiFGs3UfUpUkPbhK6dHWZkIGHZgMTSDtrN81Mxwoc6G5I1N0ZKSiUPMhxk8+kAp2lTdg9c8IIl3lfSqvlmxAwaWzqcQqlv2cYVGbYgqCH7ispVQP1+6xVk2oQ74wVI8K12B6DUU8lk0pm9MtzD8y5LuRy522cLfFtVlXgVf7xkD3/x473nJROE9VsvJgBJZc9smMPz1y2fYfuUm8jsME3oz6Ea0j51sQfFa1p7VT3TXyw+vCJL8xInlVf8hqpdcB2ML5tZEmHX9ly2bVaeZrSyyjXE1mfdc+7Wdxc7UqY8znea5Zg+MZj/+EcTL0ZinjZXUbk4njVYyhu7N7vL26M/Fe0L1vfq1YIEhka1zNmCIobompn9uD44DhQhqWRKF31X1WOGYbEfrdP/gEgrbWOzUTrTHvmocw2SSOouWXH1ERvt0V9sVBMusn4ltOjAXAc1PwotwJVDX2OWD2KiarVoH/VenAvLfgHQ1/SmnSozmSEQnoe13UeQGlQdWZMgyDTtQsMlROywbbvlqwNI0taYiq8pwtyB8OkjAtqw0DKk7fXd+xKTB3O8IYUDxFpDltOUisrD6+k6n96p/mF4n8PY8QFUkiObNjrR14UxGVwNQ7IRDNExT8m7EODcKAW4y4F2Ev58Ev6agnoHNJgRxPSuLma8O++k+AAehp/wVsShwMo1pz6jq/AbySKGl0dpGZclmd9KBbCZRXyzutS5+uumuqYit4j6XtBPMTTuSqlWlYU+7pIZJvDXH26r/shQZXaTyEum9dw0cPDjMyvYXk/bJ+CzSl8FM1WygDX4xt8/tIadYHEau4wFdfLSIetSxbukix0qEaYuLGaSe0f+1SoxAas5wJsBQmCxRZvSjLefWpTzmdqxlyMye7uJRIAR5EPtncrlV7Mmop6EAds1dtqcP2Ww4ht2Rz2YCEcckr+M6UNERBYF0LmqLDTF48gx2L0xTZGT+X49acJDQEnyuZgLmcY3W3pmmoALEkGdb4+9d2yaA33GA0GffKmT6+eGk4h5PfRjFBmkzU5w+IEkdZrN5L18p3KlzUoHnaZoZRJaWbn1BxO2XIYjtlF58dX8Qb5st2U3Yrib6O8tE48gIJsYFPj5pdmHTkK1VlO1JFVrIcKljNIvcDpCX2tGv/q3O97D3CrVs8XHk8NuI00lM9JCILTP7QALMDsLZZK828OsToWaNv252gt7iAsXDDUjuizzxRB2cw5F6555zPTAvcKwWm0emKHYf+onCZiAgCfMMtlGTliFouqiug1q5tShIK52G1oMWRgkOkFxf08iKUrxVCA7lHDLmWuIgEqTWLCoEmP2kiXTXb3PwMPK6qFMj1kXZIpNu7fb2lHOh0b9XG0FCFt8Qe7RNPh55HGvr5RkiyHuIjs3V43+90fU9QQlsi75WOrI92RVn/EMDsURImeGozXPFp2lvM/Z5NBNQekC0LrSOZr2GFpRCSTZ3jrjRM8eo7UpliSoLK7v/WmwNFeBAxbm4AaRXF7faem37BT+C5lgJCJKzi+7luobgpfqxcwx3blVGecbP3tofwVivmJbwahnhlDZqvKyQOlbEnY6T471CBR2mILJzKwsCkkD5K7z3NHoI3puhnsYH3hHRG7CAZid4Xim5nryHIDQJX/HeaDA428Rh7hhw3RxMiibtZicWurr5DkNGAOkTLpmi+hCcINK/PAkpiR4F92mptlYVxgGL/AWs8AfpMDHJjNiWAhcTSg0hQZ2RCL9jVgG+zAIyKD/60Iu5aaqyQap8KZT0Bglpo2D3yxsMbQd9DcITYJPw74JJwyRU9ViZOEQ8Q6Rcc3c4CmrW9vudPiLHh2ok1ocEknbR9HclNWhzC5FNt4Av68JOQDdcKQNtq6kqPlboHvOWO1jSyTXOiC9z+bjszcgKX+r0cm2vTrSuiry83J5L83RTRyf0mi/P/jl1I9sz8TcXw6U+yLOZFr8Ax+yPayE2058HBRTcv4SAFX9bs6WaaGgP6bVEzfngOf1iPlhY7JZ9f/3ibaWzSzAafCACA93JKOB00nT0mt3DT7QWFj4YpTr4CCUxuuG7HEE0xy1evZZDCvmn5eWw8VZ4hhR2XFiqy+0yOKTnxbeUXevxeTVdaqOeZlBl3Wbht10a3zxhYMoVVUcyOnmRa+QVV2M54jIiYwuP1cG5+reBaPj2617K0PtUP08O1j+eg8tyDLXg80NnpW8cnL61JFexlfZol9kxzyGN1uW0L4wGvFiv4dpIei9PK+AoMp0/MBPuAK17tpmbeGlu+eKhP7oUbXCL3Ethx46YWczpfKCwnYchh9SKTWy79i6uzeXENXfjNzoGunjYXQQyEGYkmcGsOpzKpzmcAuOtsDu0NalyavWEWDymrD80JlFYojUMbwdIQTeIL30Jh/lI+E+XSGbrxYGvdrccrjmTQ+RlLS9t2X8EzWLWNhYno9i5qb+Hq0IoLwH3EirBYLREBmi7XM99xiC5uPP2uDXW/hjoG512gBwHwIXJojVxty3auERoeQdG0Ez34AJvsteS72+b3l9CS9HeQfpvCd5KzMaqC8bIcBi1nCJwV3jEq49IcF+z5TRZ4ErgcGNaAK6kQAnGiKszqc1AjUBUggmLNjjwdfAmqapHrrqnvB7JVZgTSOUBlsuKoH2Y/ciKW8oK1l1aKOtuh8rTU6DP2nI8vy5AKw7hkGkK29bgfelKC7wZln5E8li1YAMUAy/ySEi4EQvdkLk07HBlSV2U0GaXxMwXFTpSjZkOtReninVOhW8zVBSDNEMkrNQNiCIwfK6H0pSDkRVPbyOIvXIYVTDTzwarppjF1mifR278/RlbPuAGz+c6ZLAr3gGl/EFGwecEAVY9Uv67cpNFI5+C0B392RUqJVKq9zcRoAAByYPtmsgiDDV5mNQbBfJMaU6hNY/To3Rmg2QLSraFS0JEYIDElcKqeBMS5NVvl6Cw3KrKsp/yx1tiF3upyuH496HrB6ajiIlG4HdT4sleQLUReeJpzvcj9C3YMndBKSpZOzd4ij9/VXVWz6sx14epExdUMeC22buBGhQwWS+QXyXiQh9vuukP6PzXJGV+R2Fh4K96u27GK4nfl63uauxsEzG0k3d4vtn8pFiwUobvTw/gFcKm1+nKO2dvemVJzqFYQFac3f2qqlh/s6knhdqwqcnXi2XnkswJj8UDTkbMqG9ing9dXKZbah2/yRRzRwmOC2W5mbn4iBwJlvAic8Uw6aVnhQa5szCVqi3DGrMcjZAEPHFZeblDIKrdmU911/8m/nsWf6Jzq4JCkD2Sqjbczm7d6ThmfRdt8GpqlSBb/8IZ9fEJU3eMaD3wxXgeTNg6HIOoSc6EjfbwVQVA4iOAIJi9SiuMudSZ4uU6fc+k1g1ZsXxRVIlzwn+YQXx5+RACuQ7kd9lQ5DtM5EToHm7wqaP7/HTshDcQBKhwvOHW3ArU36MjCDsybylx6L574GpTCX9WXt7RYpJaaMPyUMuHfx18jkyqb2l7rW1FBCAp8GOgQfD1XnWecNBqprqssRUSOSpmrjDvWq5CxUvWRBXhANYkomuCt96M0h+UHujBw5Stv/9G4g8Ld+kEhHwkOBJ3wZPT0eg0hQVjrLA9HbXOZdrHt71IIbEsmQWVV9CY0G6PZ4fgnWYRh6D71WmIVcFgLgGuCe9AtSDdY+pyJ3BtYuSAs29XVsCdisFNFKInyiPVFafwJJR8I9QKsc9M4GWWIRRPzeB3QAMIG75lAxsQCzq4fXnFCuALtaRGCO3bksPHXVzjUSSHZdEVc1VnQp4qBJz1CTaOkWzaJBaLfsuboH2hUU4a0KHBUMNJHiLCP9d86jXcClejY3Zt+7dBuoU4XGd87C1HFyTT6XEjQg37UBVnMrHyvwAIdrgAwfZwt6GGuku6m8lEmjI6DoQIgyLCty2ULX/bzjZ9mQ+jR8J5F+XJ73jlnrqT4DXdICmIxK23JUW+oaufBW4kDIgmrD+JEMa/auPLmvYvrdDLLMm0zEifthByX+XNwX7wc2D4vTgMpsbgApD1iATY6U7LoGzM5jN4BGri14ps/uJeWJqoCfaV1W7L6kCYLdW9jtFNKnesRDOKDMAuerQKU9qi5nbAkWidjbI1MsNfUvERDnaee8rtbBY30+KUP7kUN8OndSwsy2NddlM1aJVDRjjxet8GR/6LyS+Me4f4MaQ+Dny4H88SvKS3ELtijf+dg3IfqB4usJrkVHZSj+QAmQ7wOwvafHrl7YllLhWlyW8NQHPHjVuDzyuWxj5DbYTK7WkyC5ocAcdTFOQqUmBm9nki2wvW/asRJ0MLaqmYI6+XLmRU6Cd3aaGT3fbuUE6DOUZ2DDK+/HSJUMPAO437aUfEboYcL0aw7Bz8x9wE/icVhU8LRvspq4aQv+4qi16EMZwZTYUBeaI7YUITs+YL4FN2D/hcxntwycPc3fUXlu4xb6uNuQonKCr7cnqT8fU7oNiVFvn1ZPggvZzAUp1/C3OYLAx73P9ijRZUIqB6AmqX2ot6sdJiVdoQSf4CfPdv5gBV+Sa9Q3/aKcf3OTCTB1qlwcy57HM8wDnlM+vUDlYhxU7zfKHAK8W6P73w1e71ggsmu3Tn9Wi9zs3y0GJluIHAa1GZbAPnrcgsVG037pY024Gid1Xl9japJ+PAATZ+qY/A+S9Fv4fTjEk+7E1jcGrFYRn8Lhx7SAz7+XHvemucTv40IItNHr75LqpZQB+6gCsoFqUcxSi9uvcGwc8R7E7uIPUud69zUAEVRH/9usqXPcVDna5KdI/cQbaCbVVlipR8yUGGF7mKHCbgt3w8VkhTpOUjiF9Nl7BuwiqVCHlMqIMMYUrnvj6qccsshmFuVxbG4BULUK4uWQiV2Z9VdCT1CDzhXU1Po2D3ELNAcNs4wV6Uedeqmu7x/K6seIqaQSN1TaCytyUHE8ITBM9sYgAafMBdBErZwjuqdjVL9neNHtaGlr7TjVPrFbaycla2CwWRsFan8Z7CUUJ3B1AE5QgjnoryGfYP0xyODmII4fwQtxqh6ic9ltSImjXekSzCqQ2M61ZET0LStjHtgDbVk9JJnmRUuBIpGcU3ImpVv7Knm5/ZEWH4u1o25k14sHg8H0CUy85c+F0eQyNu3WGM1k21BtWL6VnVepEXCFyWpueaxk6tXw9Jb9utiQfzdRQ40xk9XC9/uT7JjhVloUbQYKuqjW6qmqHDptbybin2AjJxggj8l5cvuHvpbjrjmd27vDsM6PRUct62RMSqT74Ew4W3UjiM2LvBqf7n83pZ4E/i6nfYvfKDmyXt9UpPgq7ZJHrwwlhzJ1yllBpcTuCH4FnYEb8841tGtqEPzj1ni9/5e6QhpiSADGWKGPzSrdDq8hqcsjSeL+1ezHxaTkVRQT34QIikZeOrb/EdykwlvVosknlCfAiSN9NgOanVArUSQl/sQN78HIDdSYiRHHvZJ6s+vxnvB5K2Bzt/QtvkBNDxMWOBd7oFagsuBUDWK43JrJHhUdRiRWcfyzEfZUpWei89Ih7Q0e8XES0mLq1i+RHyUaFYkdhTDvfVsGbuorRtJMBNQRXHoOaTmua0rZ6zoq1xZFynH1VIGFG8/4Z92sDJe0MxJtXWS5RVrdFKFtoFZkgmYRVNdmJ3Pc9dY+0j6fSXYJt+colu6zvf1iS4WMnTwws+zYbEfZJP8w5aVYrn7hBkNGCVP3F0mtXyFTsCj2Q52trNCdwPQD4cDXpkOV8B22MxYo57pUHQrl8cVJbVZNAcGybKFiWM2vrHOyeL1A4SgmNpUoRLuXSq7vocS4dHI80sSUi4PitVbI/wKEDW11OVTLeb6aMiYwy8UwfLHGDfyyt6VCzTFxmcDF8pdEroFlu70sjCYKNIgQ4zrxqLWYjqQY/VZDtRGIx9cE5TlmjYnvcxrhHD9Cx0w3DFm17UjfxzYTqXCkMw5zPAqa0gWu13yE1rcEJWA9YVcU/5K5tmv2/q7L/nkzl6OvUkpZ9sYk4KfuIwZ5MEHu0LMwsdAKcjcOhTapOO/qgo9bb2XExw7/lQcg8Me/XRBrtmO8Dz7Sucy1whOzS/MjVCTm895ivTN/S5s6PzaMv2FUsP6YHEFwGscyAHMvv+P+44TJUwHyHMj9AC8F6KA8yv85mNuHKYLSDS7hSvaymkKyhc6Cb/rhEPzBj1fR/w8HZv5oKyydxSeV8A9taCq7TH69XzoPgJ8YYQbO9KUu7xIMbczra9BH2P3JRkAweIZ21qu7TP/rrAv/s6J8fZDiHgWZvS4NVkQZXxq75DJXyLItZlecldk8zCt14joY5n9OW5WWbij03tk9XX6p2bP4eqL4dniaLbvoTloz5DcC6C8VDR+k2Pvdo5nzANZ25YYFWpyTyK+tDSipFixx+ryTd9agBe/XDiBko/8gtRiirS1HoWmgbI+/UzIN8hsP7IEDTEZbErXnDB35lWzOIs3PlQDgUovxO1wsn3eBsSarUy3Z7w6OZF7ZjoFWx04yiTPl9nhOu+rHuJyCZBMrR57mGsnJgAuul9R/8TOSXAzcTZNSX0dNedHLdiWuMtcG4QEDhjlj6OJ9rPWK12YZRTvp3e2Y/9Y+7q003x9DH+ihCXQW3h5J6WNJzaNn0FEXBM2IIK46yf26lleUdXVn5feMsdjlwZLiAJqc2YwyF47ltYNmKgtmYn+pgpbMJoDjTw0wFRYFdzdq5LdFbKoUNw62pksiyHdrGODTy4OgdOin30SRiqfLCD+Mr/Drk4vpgquAsToMnHdM6h7eY+/ON4G/zcljxAmzldIH3zpMzPSbRDtgM431ZbHrR/bc2cThYWPCKVAry0P41aMlab09vpyA+yOd3OYzGWWjggRIfy4ZT7ct5SkWeX4ZJ5cr+aGNrj+5vj9+q6S2346MImJ3hyLQ4yjOqike6i7Cz09B+Fy5sbvCgRChwtrceZXlip0bROvoe4m8SayMPWYOijt2Ngc1yAIef5ARDIvaE/1Dk/YsSEjAZ6Z29ZHBivFwCiBFW7c+gNotfexqbI2g7HlowGlfcHcV7266l8LNWR2d52FBa+n6GJ3c0KU/BPZyOYI7XXoTjE+gSYp5sm8H/hs6Zii0MdoT90GkTqBL8vom35IpzO/8WcORzuKgwnfdb6d/yzrhFCqd6mNlxe0c3sg4Osr5RXx0AzvmBiG8z21rIWocD5Pk8IMhZW4QyyuKn9NDrsuf4fY7d5/Ja0Exu8NSWtzX+YnY6cNljthZgcrO3Gn5mLenNZ2ObKYjDQNTCKxUZ1GAnEkk1wlSpjwzDGKWjggvWBRHyW7rpMJgfRsfzyjEkRQJX3l5yyi2AsY0OfpDs+xtIFaV6oe0dlteQ2HY0P1qNSXad9HFAwUUIuh02GwwjcGJYX9rcfJ7RDULn/vyHDntopo+NvXXGmKdOgr2sKs24xA/F2WT7flp4T3OGmhB0dyRT5CxIL0/NIKb0gGksHWcQVN53PjVqqU85fLMfCD4yPCsUBKDQfbS4/Z0rRvtPUeC6ArKiEs8HeFnSwlh1IIzGusY3FZ7kDSCT3miudmPzU+Rh/EKLiB9MmG9ISaO8cLNlbQPcYp0OgcjGy3PEQCQ/3gduZqKI/u1/Oqb2qQiUbPSPBBkn1LlWTXoF0H3kIwxKwM6wFSty8zh6IBlW4M0i4Yn5NrZ9ctw83Gy53r1kzRIh5WniDWeA1cx2BvhBvftKLbW7hNyY1sJ9LJUaMaFcW5QrqtIPkEi+qFzcdhVYQxh84iPSaIRYoPlDGPufiw4EuJ/GCcRxrh6IOqfmBSUoaZOaRiZrxRV1SlO3fYJoxcUA9DiSgiBpelYY068afqaCcCrDHdBJxy8fJYU188UKESyGWCfK3TpvjUpn3+cITJpiBu/o0SbNGoQO/nHfn4j3NzgPxoBzUjd8g7BL38H4Cyft7fNXu/Td9t9EQQC/aubdgSw7sP8sdEknmz8SEsUam4ClNdrdQy3clGSsPnR4mMptxxwaN+aqyCZoUMiNKdb7j2jSXoD+Bo+oCuo2DKRsGJxz6j9EVeOzbwdt1B/OzFvIRf6Fxxp0cDJ/Yrf5KnswVjI0uRJ8FjiA8nKLhfQW1HoPclG/ucStyL/HafodTBpEa1iLwQ3K/VGwg0Ps0DphQHElfFYhpqFaYmOP0ZjoR29ioVD6ZUnE5GbTeSHj39siHS+f+2t6D2irJCqhQe5awaI45DlYg6k1vn0hOlyUE0Z5OkjBt9c28NhwDhmbZeTRv1S2625SgUEK+bcmhI5tcOuMbOx+O+mnMBoEur48ORGqLKegiMj4YSwCs4WPW0XrCpXqGpVAlZ59yy36Dg/RrrJs1U6JLBt0wF7zStbuLLSipULmGfM4ougoSp//C9PIk5EhNJUpr6hnPQVFx+1ccf+BVASXbCtfX4eB4dsLXMeM535e/vei0+qPnNgwzDv9EJ2dmzXvRr02XShb2/JynG+oXI98Kd9zl1Bh2zqywur4dhCID2WmlhqSGnzunYjg3wW7zUDvk5ODuF71o8NSKKn+48PRw7STT/h6UUJaakHPy3vgohPT65DjB6zapIk/keEM3Gk0P8nwIJdxtdy5rgQm/m/jL/ss2JbUw9NbFZO8R0kbfM3VccBsBw0iK8SYTROq8itZ+PFB3Ul+AAk38t17u8nYGQ7GZgiOn6lb4uwuE8hbZjD/p8tsOxVOFVqRTwUVrYh1QFMJ91v7qJ3vjoZ3IPr4zGLfQnAWvKyBDGVghhjDDejySh2P4yR5xPo4tU71aMoPKW1dmDkbaWscANhSZfDw2sUfpuoj+LtiZscEX3Io/imN4pKR1NUosn0IfmlZN77d5h6Hsm/1CgLynpkKyUyWCuKbXN1tcczctq1j0DvaLhmNy2/jK/0P57rRO07xHzDU8yMoFP3dHZqZqEcV2o9tTYvFX08ZV4jraajdbk43/x67vpp8QVZx2+bpYQviaQ6dgyxPRY9LCxq7SSlfRQ9dUmlF6tfL+rGMvgOgXFhKSaZ4Y6DkvLLsF4DUD0g6/Af+W4RFlgZQTLj+Dl/sJW6H8NYyO5YQXaKY8T0YvTjqyWbdv5sW4RHESbq1zQa+D0oLcGuE1Etx6uqYWJZAtNqzWAkp+hauw0nwZ/JrIfJZbm9EvzVLDxf/wPz8KXuYMdhnp6zgdxb7CgE1bME9JIGlzVOUbilrduBOhryo9vfDKT2OGG/BUxHigMLSRnrW9CUQNBpSdL16LlLtqvRkKO2cKERIoYqkxOwUUBMFvwWTdrVPOfqGTs4Io+fxm5/MQrNs0fUiNkllVKmxAn/Sa9Riwp2a5iat83kLYRkFdAYDdKLjTSU5wPsh69hRFUJGY/AEyi8mEzcQ6FJu2QUt68Mob7/jOhE35NqeQw3H/IuMVPikBWfOal4GJw/gB8Vn5SI59bmnXEsbKmN0ZjncLRr3K7NxAEBY1K3AGwtxnVlH3x3QasWw2vLq2BKbaFOOgvkS65laDDeZD0DCjQbH0AmLzhDowNeMakvIf8a80McR4g3kW3uj7Nj6YdcPFGHD3KEWByQLH96LgMEtV1q8GdtxgRmvNoSGZB7K0jE6cYHxcXaIFh8uYo6nNwLGX8wQm4fXkDbQeB6BG507zUEr6+s+22V7F4BNCQGFt7K6hngyJCF6CVIZMc4YlR4Bg0enRdi8SgaRSIfkYACKqEF7SH163em7aTPSw1pfKKNirSV8oA55W22VMOgmqhDZQebAXX5RWCIR76noUzLkT7WdyBkKjbnIjesmsq6rX56gHukVtibSOygMBrYiWr3+z8L1T+GbZrUZNsZoUppe+IlXiS5kO05/7nKVfQHxrmVQEC553P4o6rZDUEvAzR4qeMAuU0aCWDH6LydPPd7aBmscSsDdpzorwB8kHf2QkTvr7BHmuBJB9eSLwXUvmlfD7ga77d4PkGx7jOFZY0SlubRV9vbXDA4rfU32aW5C2c9BNAIk5N1XdVpSuhZHT9L/nWL//Qu+Fvx46Lb38jXPNLyGFJQ2b0Qcv3bRTt59oN65LrQNNeU1Mtczz5AUdIZEXRy19gl8yJrz6zdFaiKhj2Rr3S1PdZ574/6O7AUSjazotSj3vfblr6M0jgLXOLstwfxsM6Ha8zZT+5GSmvzlNqpu81XBVbuufJYfjL8/foFy/yabfGdS+noIEOcFKO0ob73eQD6o1y0Msw6AxyGXOZVLYL2+Rk+MKiawlHuJNr0TVDLAZKiVenJ/wrgyufHIrlcVrJcEu59dZ6oYwEFdT5pGrRTfCSQGsACfHeIZ9H/L6JQSUPT9IlyPpYP3EiM4swKlLaFZPDST+mESM9CVUMGR8GNBZCqfo93Q4PEjBm+s8quPtLS3vWdGadzNbCsb7SShpIphp/4AAQCjOLmbreY0CS4iZ1ak0gUoZPZvhFBk+6TGrkvpOSfLKXlHcyg6sropjTILFa+k/inxTUm4kWAjBMKe5lINQZVg4RgUPtZmsCsaM9JwUv2SmpxZ/r2BhOG0Oy1CgSv8cmf0hsEwnldrzHIGGBYa2pqltqNBa+6LKGteUCOWG9VeP1cHqvGRcizN10aE3zYr2xm1EQqrbwGVLWlgis/xexIJkKAQSO87Lxgdkc7EejXp6kWFFRhsSuXlc0Mq4T82xzxe3VL1PHYfNYkjHMbWy7cFsy0iLCglyEdhUrT8WiHUN91bxt5iwnsFnAXzS+fYTALcgVIHl36O3daqkULMYiwctNMv0G720uRwX6COZhG8d10wl44OcSpjmBl+jJNnnlKLquNPlrqNCWPMOiGgKNPp5mE7OElNuAY9akEjS3XsLPhaHPQP78hG7OM+aCxF4+KMHfv5oRr8jSd6+TmaYhuakOow16wcrBD0czryxDW/Fv4tGELXx83WPoA6pGZHt+UKEAfzzNzSZB9Wk/qzx/1zgFubl0/2dVYUHZbVdLnDeZWf8jVc+sfu102sgtV/e/0zpHdztmxivMU+74zUVGoJfZNSNx/qS5AgJGMCrgm5AO0zei4WuyBxqzVgWbYD5UpjWf7+a1HMnKL4Xjqu/6U4a52hDfvIbm5M32yEyth6jHrBKbh0phUDR0QuxEWaFcIx9Abd1IO14/N18EJSQBSZ3N0DbeoqlerK6Q5gJnY0jX114foJrF+d/ZM8qg16y1BurY/XNhc87DmV+HGPWCiLlHsGuufTY3uuZFoVKAnacpWHq7WmAWGBAUK/0hJjrp95EwUQrsOeeTN9VL+Gl79iYRQm7FQB0Xpu7qVWBb4K1L84IY5gSQ17xSl6Ut8pvqJJEgUtVupbLwF5EhwZXi+YZsvDWnSnaq3d5n5iD+aqyfUBHlxOUPEJ10q0zzAYEDiHtYe9F9yEqla01ATXOQ+WBHmqCYm6b5D5SZ5hSK8auE5QbcN2Jesg0hFxdq+RTJ8QXHpkdNVfZhziSe21D3XdVaI5K6FDez3OD4z3NQsbZVTPpXkF3+FqDqGP4+QUQp6vOswemtPchZlc7eIGEe6F9G5pIym/l4C6p8WLqrdDmXp68H/WWmySvRyYvbQ1UEmrpJrbGaXpO+UmUMJ/BY78pc4OPe+T3VQMjtIc2NYN6AtsjMVg1dajDK7Ana3vhC8udo07PQeWF4VbdipBh+Fj/LNFHedit/DAQtsJLt/kuLNL8vaazHuAzronRgejaTKqZI1XMpQQJ3y2W7MF2hkWKfZqnpfw4IT4K0jFRzvlDGp4o7eRcGF0OpMW8NJbDrbFpPQL9SUhp/L5W11f+OSyuGkjz0NbmJW/AcLUZpj4Xr3iT01z6YorLYmQHJP4XhRFmqQawXXMaW15Udd3umqScO+ot3iGIB4JWRkLcqQ7ydMVnZULblHDTsOkdKYiFlLor/PGnjdnFR+nyimtyFIF/4o3ZAtdhFaNTmnODwlGCwx+xCnt+rAUqPk3yRu3IhbbHkvuYqILQ/OQX3+i1oMSBVu4PqJnvIzQa7cMt8QKuRxtnnolkfQeDYQDkuc+dvzK/N2bSo345A5OQkGzga62w0HSRJvoc4E3zXxIazRcrv6h+HzSyf/qjaI56NIV/GC7gPSWqn6g8vAc8e+0k5srmkXrUoU0yM5ti+B750GWNMg+y9wrNaQc1ucNTMOPIbZygMpRyYLfEo2sWg5Cd3OP+aXZhWGHPuNGGSkDYZGrT9KFpA1B1m00kNsv59zrJBlo8JHMLGuaIzKNx5YEdSpxA7Hlfv7j/aTyTnadUdl3iHKiG1/XI/lcHQlFnfq6TYnrX3SN055coKlY8q6shro6Ftc7731HQtS8AV+tcqFS69771MjXpTaLvKdOJzk8L1PNdTffZAt1IOl5C52FFNm63OvAgnP8ILzNImu5GGtf7HRCY+N2XaDmtnBZBqtJayhqBX9Mal7I8tNGi6eq2n4oMSrdiae8MsPGx2E99wP0nZT5FRA7JCLMtAVZIlW4sW5vhRmtqJcRMcXoCNCnrFguqfHQLGZDIgIQt+BnM4wFMc+Hx8qY32UbozOge7QGXVsx0ANh30R9KDC8d855zfq9kVqY1uFyM876E4fvwtp2VPnRIvz4EK12MilQbxqEbhJaklel+y45vZLI2ETHwo0ZPMKPf8KCuHMCAhTsB8eAz/onFaBSeftdP8L8iEENDF0DJKy4Od23BdybsQiFrHxjNT7c+4Uod09hlt9Cu9qBPekCuTcjOlbBEj4Iw/8A2wOyXlCis38a/k8rWfz7cYZU0zYyN16EaZ/wHVQkDoZORbKH6nefitTjAlLbW2dZr3tz6afbjqM9D0vNc0aOhhyI40g2/rAnwCkhA8cGzYJyTGNz3gxDXFnv6BdnnzUEtJzInpEbmWG9y+6D1V/tQrLObJ0ea0bOYrmRYLEEd/vcVK35rYlxDW8YyaYvxEXaHRwUi+cf3qnmlTQId7sTgJGcorLbnGDNFFc4r7nfnBekHcl03iWIFhjcgOUYT4i8kEFXxVmMgYGr9dWL9P89W7uZDjG+DYTOflNOvyjFLnr1gd7RcatCaEBwL/PcQdvalgmXsgSfkILqAN5h71xYx9DW/CNDr+bea8LoHTxhlUb5q5N7J07cnOp85sJe42mz25B6fj7BET6YFebNswnPLBgimCl5eU2sEASg1AygkGkcjQ8UFJ16q01l/NN6b8O87ycw41UBRpRip2UVJtr7gzHm67rGaxhF62waWZviwY15jpdgkBEw87Az+jtgWXe3JfkyA1nKX/AJx8072c+8IT5TXLPpqatUsOo3d5Grve90r15rospOHJdG1CiI1Jq8aCaxPKN45lad9QX7iRyyPLdLi76JcvFOGcswfaVMqQkBM6zAGMj1rr/H8gQ8mgpPeco5fRSQUSm0OWQzWeXiERTXnjig+7VpSzbvdkoXNTF9mJhi7+JnA3MD3KNQlGsrn6VFCsBDeFYq1SGcVvSgX+RQwilR57HOvacHGZc0t1Fd5G19XFo5DJyvnA/pL5pLi6JY612HGory9rZbHfiHUOePxeuQ7HMwRM1AulZTqQpynOYcmJdlET2EIRBNFtpjCfTVtUoQJWi1YX3Ghjd2YuwgJgmnKOqWtrxo/qYtKfGRtQekDb12XQNcSc0u9EjaR34/6l1L38E19kK6kIkD632bHasB6tznnIMD2Cy9yw/B0EktYtwNTWLF+yRBLfYXV0VF4RqO94h6iAxQDYX1e4e8hFh+KLnSlp9I/AOA0tk69V56QJ/1UtP34JY+93kMFDv9A9CVm5Behi+yDZxdRvNdjQqHwuqCmXiCu5Xepu3YTTkz6GnyuMo35jWwHnlkef294XXuRRy6B4JuqU0zfywVbtQH0nMGf528IjxA0VUDysEVUGTJ5lg6zHPjnxlbIL717rKbv2EJW0WXr514FGbJw5zhuc0abmn014BpKx9K3ciDHYVCppX/il9vnAV/oSevRcFChLwqf7O14igPkF1qMd5lvsBMMw+F1BU43Cyin2Nca9mxH8XLrFl/IEB3K0b7hBR9g85toKldz4HoMJWnyQzdoLBmLfOAtyXlG4vddTT0NdLLbbGQq4QaVH9eIr07JuUOiLmKvtv0p1lX2oBcRCLvafmB/cPEg7bD5IHaMM0RLNZuxpzTTt2eafME0ynWqHsUwu3t5Nf+X/LWT8N62QqvLOmJNqnpB796nKbwDtGTmCN7oHXMHCaXl3ViEaxycTa4AJn5lEf0ieevYCwrEy6ZXlsAhmwM4zRL2RI+4l+3yAca0KZwpfm3C35wFg/DE2rEwHiZuoA2SuL4bDkXEstCIJFwaz2ojaP1yLjonhNFeBygnQZ+J65tDQ6fF9yfNHnV5zzQprRpAP0i4m9kikGPJOBUbruIlP3T+PneAubsw/I9iGnVDm7WCyKWr3IQkm4I8RmYECGxlVq5FlYS4WWRkMXzTBwEMKXJrU2vM1ztRfZy62RALwDh1hmqIDKyH9VbzrdUhhsnmc2jwRyR/zM2VnpdDU+2qDdzN+y89/xtJ3T7RzaRlsg9WNl3KBKY7S5/1XgSTqaTmM8hSp1UITSzwrlMnfOpbj/OvKnlsWNKt4j48yIqrkxpM/nMB75ZLrkRyB8RiU8QR3gEHRsAYKDFnhSJr0Wfli3DP7sfucZkmiqz80IVFqRRbqz3lOxwE45h6AGoCKpefl6exN0lIn5iE75pAcS4Xo8QkEgT4FzTzuejm6mJuGISQ6uhJ+O8Jz35cgnu9+aT8st6PlS2kAt8tErcNspzxy8qD7ht57QbMLFm0ZdIcL8QWKSCZ7G2YK3ze2uLdEY2aWPioZfIG8Z+R2Z+CCqXS7RhkPADif24t7s41xA98lLwF8qdZgVc5lKxi+6XysKTn+3/dhfzBPdlseKySJUTQr3bzTOkqF/OvQW+odlX/K7b6dBu1ijyfrjU1ph78e0EZT5Larytqkbe2eHCgZytPB+1ZO+wai0a/gEyjUl0u9qP/5J+w90oKclBR/+3YiIz77EQgUYg7hnqsyPSnn3j/HsMnDdr+/2Nz8yWTZoF/H2f0zVdf3myV5+DdmEhAxF3cynrqFnN2PpIwuxiWjdl+73TTCaUdtGGqousfQxp5RCbbMxQRiCkK4NW1KWd3KwhJx7d9EF1cK4tYCUtu9Ace34G8i32YAVhXF/MqoxPFwRKnK8yJhvkEtv13wSxKrejQemtV2Jk1lxMaWhpCRBszt8jomjgZe0yaUFUfk299HrMXkFs0YDm1BB69/mpTUbEua+J3hLj/8e6KgnAvytqHQk6y8pD/3Vt86TV5xSAFmUDWTu7oiL471yr/JLNi1EZ+rmEtiTDfwPQ+Zh5V8XZlwgYNfsU6eBX5SSdAakbBoX4+vdLhcfDvthJCpKKl3/604Pq1pshefu5xIG2pPpnAJweaKBoyhhXIzcd/+IFkbN6AuBQ85/oB8pfrz8WEt9MZGVG6eKICe4j2QGIJPhiZ35PivZbAqp6Y0kd3/z2Pg6kBR7jU/xLcYXwmVwwMArKMsWHRsIfTlYSAAescVOL5p55P6YizalEBwEDCudpus+/qjdU3hu6FvU8VO0gQmLGOnG1QcF9OR0fvYB0J08EssRemLqLokbejoxtbV60bUEwomZJDjUek8JDlJ1VqcxnEJAW7Cj/wq6pmy6p4cudLCwG4/eELsY5fOVLUk7uP7ccSuTkTF25pItvHsGMDJLQVW6thFr4sBCdMgrvm8BuJbJiZ620uKA/+Ktzze1BY3X8ctHU4Bma/qHLg4Je84bYVyTkoujEjBItZ+fF6qvI5pt3hXGBRI8o/rtk3xU0ASNK0gLS+Br2k/Hja5AkT36m/Sm0ODZvWBI/NB5u+xdbo2TKMV74gUmsek79mIbwELM031Naso4W2aqkKHNU+Pybuot6r78SGAuRijUKrbORQ7c11pxlMSN9U7DqZmS8czx2skP2RM5A7bTUCRRa3In5uzZi/iWwXVKCepVSkKYsQC2vEcM0uEFqn/rYDeOxVvku2ICNBBi95fmrv/cTeHacQLbt47G2Fs8J94sLyDTWro3cdgaO7R1NGmaMx910XNrmIMXqNzrqXmNXsOgMUApDLpNmWwF50HSbzS1Wrhn6rtsx5tFsCV9GPyXoVHOnLGTEBNn7Kxzt5UOT1BOCFaAiuQOPuiBQgD/D/2L2aWYwZcOLYtN2B/A7I+J6BGT0UAn8pI1HXnjtHQ/V1XqiEhjugeH1be4FxJj0pyZR6TwnWw+GbdCkYHZtDfsYwEH0qCE2V6GHWhmlTzu84uzjgShLdI9EDz4qayghvUuM0skFZAyPx+er6bYF17A5UI5LnoNgMANBBDEySuFgvTO1XourMk8wNnbcfJzZAYwpPgp/qCMvsfi6mWNG6wKI15SnM8sEKKypBr5GHlbxoJbSxtg+ZyNPp1m1fORzLihwIyTdlTt84i0aJ1isTswQEW+em3ts98A1uAT69D27SsRCJYNsZsxK7Zhi1ThxkRbRjU5ngKo5NWA0czSVAMWgOYcKdqVjiD+blcHUh95XdA8bebQwdh39r6SmS1cG0XBbzJYLIauRjPgDGSHRvS20kHpwa9F+Yf+p4hT2wa72f7NTXr82aTNru+aolSu91cL/uNhPapk38xhas8BuV0KcJ+0dC2Yu31FvIusXwO3PYJUWwxWBal6chIAe48OzVX7VLuf6SGRo8NisbCrX5lpShKH1PbxYzqPNK10YydZ5OKE9M/gstLwRhGfipE4Gp+48MnyBYUROdTdq6czFkJUPQKtAkIKODERBlnsDhP98gYGNyWxgH0Wip7mqtq9ggLd0H2ciniIvU2bNxXvmmAU6CN4aH7Iq2VN4/XUYSheQLcPNIn6NP8UaBurAYuTGcH555nFY+U6yy/xPjyOeloE4KRZOJYQVRuUcR4PJNTCRdjKIvXoB36/P1uxmfUEwCT7tnhSdh/8QB/AQGWJ/dm6GbMRctTO+mi647vpeaAlAgyH8O8dTZctmKnfEQkp0p55GDl+grvAFeWnESCRH+xrHb6z4NqijCZ9LU0nP5OxrTZj+hw+M5Saj7M3EfhQiQD/NnJxv8Tyj+qx+Mljj43IRWF7j7orV3b3tL/R8KgF45HM1U+hJfCMU44uLOeDnGedTzsWf8PPbCTNU8+A1x6yWz2LgX5STmPCEESbAdboXFFbQ05B3dlG0Lr0FgNUYTkhL5Uy5eRtxAO+U6ieGjm3jg4xqQe6/tUgGz6iBmXm7PRipqeCEscX81tNZ61fmLPkwU8utlZf4WGm+P6Ep9z1nVT3C2fFoIBjtlreivkkYB8oqrbqtQwg62V1tKObdO95l6awbaaYJoCyAoAAXajwhdNNHfakUrMjXOMolOmIGlPrgoqGuXZw80n9wPtBSrCTEsB4h0SB4Lgjnscjl3SDLcCS1grFECxB/t3BIanmSoaalRfXv45DOh8IHGWG6Rz23HOLRkapywunmKHTtVxPbsMXPdqDuDpKylrs5SA9m1X4k4yLwIzqT8yCt/eqViZulqhwQ7tHb7LBLPS4TVYgEIRxyuYKh/DjQ5AY8XEo3gZ+t8BEqyWI6Hm7c/wBCblrfgT7bqSmhlbG041uucsaZwraANPkUspcAaHIP5AQ/kReBmKEggSkgF8dXXgFmR7soHwdOSUF4kq6FQ5ql05IG3Bd4oGI7raqwNaET94k7WHBm31n3mBRFy0osRWPXZP7fXBub0zwKdC4mT4uCmKSnisxXfG0cx1Bzccn1LG5ltr21L1Th1kNiUXrVza3E6Gi6abgQDBKea1rvDIYgZvp37r6NtzmJAme9T0mSkyYyycct3XNhuFhJnxxpIifNWK+qEl11/l6xmc+Ao5zVTzHWUPK3P6PjSKMbPArftn2tlOHK33JRISAh9lwxF7a2W+ILOjX5a7NKeGFVpucHsAbNfFVD/nH+p5DUQc2Tb2unWSZhvHyuw6EgzAN+V5wlCrK30XUrtPRmw0iHRNNRjpZKtsxwhVL5Y6vDztXTCOa2ZnAlTRwv1hicgwnQKCDh9H7PqguGM+JuN11ARGjx/9nYkYeNcPaSJprUpRuU20tkMNg6tY4tfR9fntqWegaUW4bA2miXMP5nxzGeCIWCYN4niU8wHYEV/C4s0J3v23UFoVHAyNm0zQ2DHYeMOqcxyVtEPBq4ne3sSvXVg7xbU1pSlrObjtTIwKiWWNr2Wo5O5K3xmCaFEPlhzsnMlssvVucWEFGepnyw3hbXOBq6jzoaVKsjCVeEcK8iX3qx5+ITUtlusGeHRODR5t2fCWlmfvb64vkWsBejamtOZ1XBPpSwmqgzqinoZ0LtrySDtA2hF7sRqY/L5YW86ZeE1CSdLE/XfhzjDtjfaggGwHdaJaJVyDRVoj7JeklYLAAg9EcGBrhwA19AF1jY6MK71m4xyOvTCV9J0x0XN4CzofPcXhJrUS76z/r8E0dwRFKHnuzmhRw0iuActWyOEndV8Cb6jiqMaOpzujMHBKnho/4fo8ioEL8chOMIl+7T2q2EfL0Lqrmew/SBj8lbEYFy5PPL4jsHzjAMNZUvR5pvVPI3Zxfkk8ELrZF9+Sx7DSVVRxwyEbt3rqhlxkjpWyuiuBHoo6mEElTll0VXsefBcRSfzr5fhVfgBF90YL9UMcM3GpePkX7in2vVdtqf0gICPUZvdfRYUFzSbqBGYIr+cOcHH3bbmz2bxB3YLenhFgM6OjUAjnAE7FRUTi70VEeA1yVf3ppfQEF5Fkm26KKXUCW2x9amKiR+oxrJnnFj1jMul7G7g7o9B1CL+22pvxUxyHQxyPBQkvinw4bhYkF4mQtJ5whVMUTbcu97sAwgQj0dTlnKL06/u2qHGFnGmtPfQWi2wHu/5Pja6QEwiZlMFlrr3Lh1G3K0YGRkUzVDVNFqnJDkKuS6rL5isTWEgSA5ytjzNKU5IWMeBa8ocLNk4LdqIaeJpWUZzcAXV4uj24fSDxAsEO+WweJ5KHUSB0zLQpKB1lzxKXUCtQGRuI+PMxIKXHbs5uopmqGqSU0eKB+9A0vdZekFC6dkFo+WwlRHNGlsqkcnvQRg4odyzQVX0gJEs0luJH80o1Rfh66KaZlf/UIsXVi6QH7UxnADUieog4wTYrgFgsXYFgb0q7CP/KCARf66xYnfnQEVPnY6Q/q7tAUafZVz1TLllTcwV9GCEddPkspeQ8b/drBkj/eyUQy5d9/oROdZtMJaap2OYcqF3Gu/LaVT0ADX6NyqcebOokRdGc4eL3zHgj/sgTOstbxh+sh2dd0WAyqMCXGXo32WMEpVCiQ/YMofFZDKFFk+nZEmGh/5tQ1rieCZBj4gg+RhIqsxYWpHsh18ozL7MCsD6YOrEEX2UMu7dPKdZO+4uxBka6s0bnY0ptbACf9HaqgC8XbSq4S5GcqOsnrXfsqNxX61iypdDChACb+fe41SWXaX2lJQuRX0ile9YE7B2UPH7B7yESDs57lWVeAmjlKyMtC3T4vW8w7s5aincW4Qv4Hk9Q4DAggPZlKGHB/4pK+bIYjQnJoN1sIRUwgO3AzO5CB7GJCEQh/pE3GlSniC3Y8mqH4PT3vrijhpJsWYbdrvQsEZxqSgfBYEqh5+HJLnn6QHFZAvE8gDw3SvPU+T1la7z/TCN99JD/+TVfP5+/51dXW/KwVWXLCx5wPrTOMqH0Myj/2/PD3J1ep0AA/+rna56UELEPnUGj5cr6of/CvPtP/rf+If/XQ/uq67/1GHwEE1//sf5NZn0t23+/9mL6C7VVf82pSK34zHIFBdKh0XGWyPiu2cipempVcMoWt8oyc9m2uryQOddksqM4+b4Ya6vWemzFWKrpsHgvvbmsVtgBLNXGlgoAdoZUfvCzQBfVUEbXfMoftlaCdC7ygJHQhhsKFGaMNnMFQsIrWUMb1y5w5bV5uQXCBxq5dhBpaSM32AFa+7pGWF/H4O4PJlZMqVKlCeSWL1h4FEWdTRErlsapQ+AWiKPscvABH9Uj5GNYOJ711IpE4PGZT9RAGgkcHP0k6aUl67Jed0R3w529VLCMq7vGfHuQYm5AysLPbVQjVtu/rOYOfn6sDySeCh2NKfsxEIpofEJsL09c7ShfLjcAb2IvSmqlNo7YtrYbq/VAuvL6l0MjWW0YEaV9ZOl7w/stWUWkuktVqh/L7puWy6eMFLuPJwU0flMy1appTUB9BaW6pq/qcpfbl0609tjuHm1+xXoTRTiTvTGmI3FoB5ODqEOn6byql8+JrQ2+5fEcaAKTkyR33nvEyHj0xIgC3P5B2csrzBUqLY/81MdIP+DH/MfV9xbpWJYNz4KV9Spwe4kDWS7ltka8hzNQTdmjH0Jnec2XPO5mQVZmJuuclH5EGk5KHXH1PqYzQ406IHjlI8fP9Bm1zyWOyB3nWYtZ6mHKt90ZTJZgJMRb4J3gglvnVQJBWFtPNwbPJgB7Yhp5tCiHWkaHB/gMukjb+DXjkC4iXWRvY/9Zj9VRnWlaa02ibDgQe5jyvjWZHksxuWRRn7uT2XHejMNS8aaBjvf1v843oikEQAQAdI615FfuDOJpfd98IkWeO6XhYxt6DGffDC6PKkCrF14o+Ni1hvEn9fZxoCO2DnPykqe+uJnPzni6STAKwFCaN0eIq1jNNXAKIudct0GUvYNMf8Yanvc9mV5bmXrqyeD9W+JF/L2klwaiUA+MAlkKGmY/R60c7THIg4Yrj5SXQU/+ERru0aEXrJPH/hNw/LTgXbLUcUg+9pJ9A5FAC8YEcX743iF9ST+YtwTXcaGWYm13JYvL9LdJCaaLxuv4JZHfQ/wxzTxrDZq/Ml+dW8rY1GbxFg9aEpbckTbcbe8Aw/RvISpAV/ZaGtOPbC+4kK8X7OMxdCLkhp33We0KBTet2e6Nr0jqZqxhfdRXi7bgwHM2k47H+1sd3sNkFuttHqYBmw1IenxU0OSTWc2Y3tgyvENYXOl1zJP1NHyh8sTIpLM0Nfll1bDkpV5wkU/S+J7j76srX2m6rn+PdBCqZgm2C/xkHJv9aznvhkyesucRvmdfvofEoD8dKKhQVa/Ebi9maxd85WvLCPCJYpuiQiiZ1vTiR/LRxFck/6VG+w1nEJAWYUGj0H9+s0Cd+qxJiDABgq2JEJtucOKjUXP2B47QGY6nsBhyTh3u7KSAVPr1aPMy04rtIUB/plV+HvDT40ElZ1OoBGABDKO2DEbZ2TeKifbpXiSNNp1FltyuufjL0IBAD4QFr8Y0KxqPs90V2mOavp1kh1vqvZymm+uVqcBvlnDyKWa22OlJPovemc74QUSTqrlloPlzhs2LflHBtmFtFSm5bULgXkfx4e1QnoRrtEuoANrbHEZbNCTgl2BpuDYxsootrBQjDecK/1CnmRSQCNz8E5HKz58S9dPHEtTpKfvT5ldoIZYIUVADfCF6DjLAdbIVMOd74/I1vN7CjXp66jWQ36bqi6UXNTW1tH9Y5M7MLdUqJpPSG92TBYRV76xK2SPCaXjYLRAY+NxEL34e7tYkb0lCkRdg7i5wkr/T82v/ohwNMecS8seBd0m+EK+Q23AUYU921QbmAxmlXv/NHHTSiH19wgcMfPe+83jqRhyp2m5tpF/gtYTM3dm8sbqtJ4vW12LkfunCC70ii8cKuNxzRQ6ZA5jgaUcFHBQ5HJDKl9WkahKInU9vd9FwlAVVHJiK22k7SHwG8AG2u6ct+geXACT27WGRtkEX9QcItdkcJNUwj/n4Uc6ujeTHfh327a4DQ+WQCUle3T6N07W2UVCfnZKIEn4UHmjYGSwVHBIGs1Mnnlvme6YHqaXoHePYd28CHiiaP7O2P9S5qbVLNShSRPP5JMPcd3XCjaMzqINsAdj6L5Gym/GSOCqi+nHVM2IMdAmhzw/48OXb16nkp6RRrhdNwoEgtMcZ5XJKsoBd6BbMo5dwpQ5cVDIOhxRwHIrok1JDUxiVaOENdCsZ/ybmb/2YCfRc2LVb1yfy+aR4dbrRAOJgbdPo+i7jUtDkn8UphjBr1iX9ioY3E06Jt3EiACXaYjtAihRAOWILs5tUrMlN+AHirLwUdxJ1YTInYw8IV/PZj4x12Nldj4jBBbwn4TVM1JmHuuNp5bfV1oZO2qpubrzhyZ2Lp2FuXbQyHMWf9p0S/LBU6aKcr5s4osdT6esHOfYxYxaQvVeR7QeBFKlSy6Z6f6k5MOM41vYMlK+ZqotiS6OvjisM4gLL9p3H+GLyynIpetKKynjp1O+DfjW6lYU1ScsTi9KIyCx8EwzY42EdRhwwqpeyvOOMj6E9okYOJdwCTsfiR9u8NdPw1gdyhJfk2nLUtfQIp1TL3aQ1Pi6+M9k/BwyiTEEDIpVZqQhPnMOk3OrgGu4QRZD5+233QNSLEL+/Qpfyvu/PzSQ6KVqZV5mbwmTnV+007Sa9S5+S7OShS3uoCb9Rt1fJ9UOhrxya3NS/j/7Y8OytCChYH28HNr7SE2EtOkqMwqR9lWv9t0ROXHew4e6hfQSPaaAgvybsmCb//p2H2YJ7ZNyEaabR3hBBQYFMNlxisLdeX2byvCnzAZ0m38hMC8P4OLAZ+O2MVSaHIRkZywJDBX4fGGdbP8JR0v0kGITWSdyEE2ogQfOFgr3KEs0OujWFrsOPppw01/iXfaIF9WdsIyvJrEQU1ivpauBRMGQMkj9QpzGZUb3uiMB57Z9W1+BlHQ/+VJH+s6it9pRKm8xAWk2G9wryZXEbSqCmOtJPc5jUqzjSIIpP+dKJLwqhjuoGvQAC+uAMxaB7NQ81B1O8fzgUQyDn2KNySReabcVHXQNaVPHiDnX9TheFLIJZOTZXnK/TyqL00PNVbE9MTY21w9g9vAvNA1V5GwtIVAECUPgOo7x+5ycCQZkOovDHaEGqHWbQpgU9Nb6i0O30/axwB2U9KevCXOKn+1P6ZzU+PIyfRtya67j4psTus0D/AQluC3IcJkSdf7ikzPy+DfvyInG91qme67AucfiaLr97uBjP3yw+JYzWaZFkXEyw1oPIHTdhSnR7MhYm4AinFXYN64CK/TsZQs7gvnWJzW4w8/ATEM/nDJatMoHAT92sQJO0PhMGKD+uoSWtwCB9VbW7ZsuiPXxBDq1dga0+q+srL4g+xA5SBFehcJ9vsurss2TSPqU/OBFa/cCvandz8ePIPZzt9VFm/Nao16iaJIfu+uplifSCvwEAIrUyveRKq116eBnPvwYdo3m30RagKhm3IrTwBe0aEWmHIQNNngVfGh0hwha6LrVLepycBMIL0Mfl2RVNEEvsIgGFKgsaL3NJlwh6+218vy1imGiwsWy4sWCztwQz75wSS8SQLBs94yViHta/cvy42ttkerUjxBHT2hU2dffC5NAp+IxdnV8PV4rBeAS4dx4C3uCS31w7413jQ0OuSj05S4ogmLbpnR2hXdT/hWPAZlMrbM60TCxmHFZnMlG/JyVVpmaxfETV0Jiqp6OFQFglNSPBDLdMFbBt8J1Fa9TaXOYRgqjxlrt3ziLA8yKgjkIL5SIGWIqlSg1ptz2h3wDe5d1FxyhE5gYrsu3wAyHPqB6XeYWpZxFw3ejCHAqo58xdQu3G+G4HTeKv/vgI9sY2onR6tcg9Ag6MY44/4m4y11c08lBgF3seCumE8cPr83MTcMOBoAQeoZJQL1r9Po301gdZkVbEh8Wf+R6iM/m1gokcdDhx6HXGo7yGQhvuGCY3cCH4yZudfsd0XAepPaS/XKDzKOsrMAdyceG6VaBr3o/iYRck89/L1ypPoVo36z0J27/wvdTm5aSkYedhN1Qk0M23mYbJUpFg6LgklfXlaZmCbxUMSFHym9ua4ytx7iRuXK6Ovak7Kxhkwy3V70oyKrFA1hQzh/bLT2/HMFXOUpsWJg0a5RdKO9YuoOiug0jj92AP6ffNPn9BaWvvy1ZCCqH6aokFdVtanguOzRnDnQAmA0kIXmIJtfAlIYetaIUDstUlv9JFD334aPM+6sy1q7sX0ZvSbTDM9I/lqgXKQhmS/Nx8sloyvWZ7UgjhPno4c+bysEdI56tvBNdwRhbEFjXlEWWgJ7EMKLEKAJHDmIlnyNqzGKEEpgJWrs4lOuCLzgujRimr26IuL9j1ZYVn6ww0dpc7vWIe4T3fSPGstqEo7oplm8Xg5+TjQ6i6esuPQ0BNcPvbAZbd1vUUIvIv6x1iwPRgRJtBJwQuYYvkCbMrJn8VL2xKl7aKgrM64sGlbh9f2JlM+HG0nO3a+D8TJDtfQCzN5PeQIXzPOFWuyu4qHoYV8Kj6DMN5GaItsUhZcOhpHszAxwMcmJ2Yz7YIYczNaj/gPDqjfinu2kpTOmzHLGPH4ll9QPSdRHig76+Lzt6xagF0FUfT/17bLsgUio7jcmnzZKyzALvq9F08EsnMi9OUB8+Jnjj1sMzJfULOIH5J+iPJUCbMfkwJkp1VIrUufpuLWruC6TbNROSRjJCdofhyeyQyYBAsySwetpH7QRZCctKn8qIROLESEGeXwLLol9tvStypq5hLP2KQSAR9XoGdcs2ZKY4U2Xv2nIWeslVWQVwXDlBJkJOLqIdgMMRdo1YVqF//n6GT5Vxj1SK/Jx2SRfOqvL2KpDKHJkZrL8SiW8ZJwsJVAi3hwfj07LDUm/haZyyHQD8WDJRQFtx58Vbh9YCfDR3AHI4PeSNRzJop4HTLIgCHvqHRMPr/Zy86WFm1wkhPsnJZvrppP2SUhbyl2O+dWVkNQHimNdPhOq4LcRuVkvUj9h79SPI+sR2rXMT3Lv9UBJeMstRv5C5e5t6DnrNwijl4z+aq/7UxpTdqpS5pDXsZuY+rGuFVa/bGuo78CEQ3vAWX2k7dEsV80sPiMCFmjHNEI6U8VPakjmWtCGevfv+C7ZWJF20dh6wdcDw38PHaGW1ui50gtIldZcy/3gwdJ/HH9UtM4ADQP79IgHBDtvDsIwHuwb2PrQ3IFA//wv+e6zPxgPK7GTZOckviuJR5P1VBBC6ueUos6Iw4/8XxiDMsEmsxqdYeF4x7wizfU7w98SiggnMaaXt1zzEberGASGhitrdeaEaWFT3AnL06UffrEJQ0Yih2yavEx9j1XzCMRXAuS3tzMt2g2JcnhIrw/h2kgcK67tqLsPTWkEPqWaHdtgIL/RnU/K4QdfJS/4njtYvuzgDxFpH9qpoIDi7fSFeJy1slYM3298D4uUFIRxsSsZRA+3zrrEhU+GLxIGhqaJMhfvZTFkrW6aaOklI8UEPG/WsFw8XnlNeTTUmH2sMFUdoa5XqeVQ9KSVy3LQOMyiPBYE/TijAYQi4VKl57MeseiRhpM02mIxBauJN3YJSgvk8KaTtCzspB/zNWXqo4daaTCR/ao6HkBGXrhoTX/04+YPwlf6NHfuHtqD3KL1xdE5a43hSFv6lZvj9MuTVrDdFuGoruzQh6i1sjAh3gwuo5TQiQqNlexe0RdEl0sBhtx387vV0LoxxTDIB6OvjJgP8tJ3YHW+FzxW0EhInUpTJztjpyosgW/mJkDb/Kq35bcyaGjqs9HS/3EQaN11DsLZXcQVvgUvAAAQF++pDkAIYRqIYHX3YIznHo38AAFUXp97q6HoKnkUwuIEC72CZuepPhjQx0hdISsf/zp9aEIBY0lC2x0bTAlWummLPnP19F9ScLTIwB+CY8SOw+9AlUjiW74fskqoP9GpqhKHZT0VW06+6cfaXz6DplJ4GHCqmOhQcFtv4VEr/uAA9S3LHaLzCM2DVsgg4NdVNH389NAx9V+QNmhAVQF8yhbfmaPJu/jwGeEGPCTBRsJCzzk9iGRmfm0Lt1/ljQ6ejvxMumhN5NAMXkW2wVzVWsWjiAwPC4FR9+WJOEdBhEIxT6mFrH65Bbv2DH1SAJ8uWAXpzIjkEyLaM4srMkmFeMoK6s4lnKOr7DbNllzx8qrt3L1JO3lxpMVFPc/JoKJysRvXxSiQt2yCzzpALgbZb/JFSxtGtCx4jBOuo4/4xOEerxK2NqIbO0Q0//fNNP6S2mFyEaMyvXaz4gov3F0kPzrvtI6ZFVTGBs77YjLfjzi3tsLczU8qOkfKikg4W8pG0tEBVvtnavesal1Rsc3vXzC1Vo/JXpmeocVrtwXFoUmmGLg6VvYeuHlQw+TcZd7o1YI/hyZXRq3GVQXHBeQqjlQNJyksHvOlANM2nqvJdOmZRzpS9iHXnXi8hjLvip+5SD+7aATOIB3famlnMM9S+dv9zkJaJe64DK6oP/fkxDCTBg4yz5rVLNA0SeiKarxduGz7ng9HsM+cQ7Gk1/NI3+orgopcZSqtMEQpfRs1v9/YK5kAWSqbqhsqpM6BObO6LGlN6YDVTNzNDlJ3A3Stu2clg+HyLs0OcMS//jVayYo51i1Nk1p8V8lqjFJqiiFl74cSF4WjTOyr+wHm/wL6aNhXcXvk4K4AFYFCfmg0wto6JOozws/rkvWnfSnXYc2QzMRwMEO4KAAKg3QLXko5Fv3iaKWhWA8zCsMgKz8ZUEz18LIZ47VpFSUeLAUB9D0FRgvqtYKyYhx0UxI3kAWokaQJXPuaLpE5Rgf3/a4wnGqsE2rPwm9vP2lx2nnqRIyzz8k3AjLZb0iiTfnO5/umEMX4zbTwun/E55YylyxBCE0nsxSOIXGYZ5YuWJO+ad8bDSLMttVXUj0k2aY+VJaKgaU2xndHUA/KYLhPQkqrmPTjGxoIgWoTmrqUOrOKVTEF56Wa1IKjadqGDm6YrbItHI29GpOESbaqQ3xR0ohIvWHA5NZd4KdUhNw3Oc+46PW+VDuFwmWwPpyzPaabUmCJ1q9zu9JbtHym29iKg4zzywv/GlUeK82bs6LkS79RLgZuFFeLZzvYUD7ZTM3eduLRdbSMD2Fkf9rfeX5isMjMNAKfaLgWfgxl5KKhsf+1HeXmTzgph/5neYBfen7e/1qXYDJ+TVlO3ALUC/QSrPIrMze/0W+XMWwHeOKlVUWkw4I8Hq/Z0H4SY25z10asGlFDnptX8OyIXlGmv05Br2uqsiqGDG6MwF/cmUKOBodYVSzm7EiD+3pjLfAxQUEbLBRxugpPVt0k782Q10VUaOick7mOj5Fx/dUaUkcrjRPq6T5x0eJxPHrcpx29DGIkahweJz16xqVlWCnvqwzgJLkDJlygOprTVLkQ1gPX9gmEbVDugGXL8VykHPwpLrcCRApzBBNTO9XVp6clcyHCticbtUxJ46pi4TzM4VGf6Gk/a4bVEElCg43xGQ5Pm8SxB6JZyU6OS8veE17RbkRIYOCLI+K+xcZVX+bHb4Ml6qeEFOmegjtS/80M21TrX0dxn99oUoUfO3TCgDxwUXiWRudbMxRbt2JWnP9BLQV8DFWGBHJC1QVSPQmJvHwycDTdO7q1rqDJOh2YBoCytjNRd9mR3Zui0gG9f6EsNbU3W2GNKyVhhntINjdmSBvm9pSbOqGkObXF4aEFy9557C4iPALJHv8R9DIa9gTfgTBmczKEVr1kV+hqAAASAZbs6hlaBQkeKPGTbFJRn1kjYxNLMxXSiCRuXU+sU6J3hmDqdU4jCMojM1MSjgdGTrVbQZBAhqSLl6yh3GFh+abLc9euqQPAFkHjP3SVIj+lNcyKR+FDx9+OxqymclmRBoIGlEvYvh7kGY8Fts3QXaFMGKJcat8nFTBrto2nKcaNXZAlGXIpsjIGc25jwylJFFvSu0OZ+ql/57pv/ZU9VZ41W1I3+QJiYK/3bjrK9XbjFjt8lSW70BCH2pCABQyVG59g7rHmoWjbkykR9Rg42TAgFwcQQMgwVnn8OvInWWgMcmLOQ8gjuJEvqt2Jdu4hKxxJ+mOXk+ksIoswjVuWIXU9VoiuErPrKjtAv+9k/n9Xvo0qBpUmOA5EyD6NuNro4RKmhuxoPA/we36dYI96XFrhzkQa/oxKo+hlqSvGu+0gxDjBqqDdXtSiru81t9LAIDql8T+nQkamBgr5jWFTFA4o4fe79OGy1HJvbRKW7HYtASh67z37PSuhHDWvzCTdxEjoDHuve7QTVwJ4gm820iSqGTWDK9d0zOFtZxe1KGpt6HHG0kNOg6S60pa9IXvTmciIsZgvk2laU75S30kQQ51+JTHIIE9XVfDJ30XsI5ilKk4Wk5yomJzKAJ5Q5FdxxYMhgSsQkyNx6U+d2TG/w3KVw1F1fG5b/kuNQcoLLa3NBJdqaOIiuzJMHiQtvnvFEG0wDPq+XGchCwFvPth0/8WsNeFoxA5tYoeO1w00HFsAZfzc2xg2eHrENtoADw533tVRo7NvhtL9w3uw5innF6gYgd2YxKYWClyFCpU92n7K0Uw+EZt8pnXLGvtMV6MlIimZW0hw3ldFH5GmOTBwED+uSJgKRIDORcudgtaaWr3++eUd7a9Oll/07oM8LsOLqAckqUjHRQDfmxqWmh6XEBgJTpRly8yk8gv0S578awYZw5l45H4SEOUBlrdZS5eaK7TvMyG25p7FKksS6lYwQd/l5gxOBG6c+7xkM7BVp7dMJsbQxqu4W+0J6meJhN7Af/4K1CLAyvEtgbYeGDo9v1JvQF59cW0XRm1MxVG9WkkOCrleI6uXyJVxNzpRIJgjRqMO1iwjSdSlbBVoUfbzdDRHAu+kqwoUPViDPa62u4OUzlT4emEwoHUz4CZ4iuB4712FpwhCppA4rS0bn8WeN03DcY9/hpV5pib1UHTYcjiOdP5GJEVUpMKOvqmiyiV8DyrsW0V3O7TuARtH0qUHH+JjsouUQTbRXltsnhGRaS04SjYcU/9p9+/rWgj3RsRv6Yj6/L21qCWHAE4gzrhg95wFRK6HxLlBLCRHhTNGLIcQCy97QKru95D9GohlKg57sk8cJUkzFYrn2YcpYlnQc5dOQ1UWEbXyy3dUJ9ocQ0mhrEUd9/kFtXNOMrxLkS4txGbOfN2lX53WDtp4H7PY3pZtXRTsI8sdTMacENVFAxjKp/VZ2IbluoDA3DaXbhmoykS9iFxF0549pAYlltH7ufJe9Qz/fz8NaJ/q/qYZl++OIk3+Viicy8CPoR3aGTXBUO6DVgL7qe7VksXREzfpdzBaqjxEjV2KHRys4POYxLO36WR9xnkuDMdSJGIdyv1rUxRiEt/2mrqUg38iLw/IHdIAQo8BiI0HxrujuWugtEO733677zVulOfgNsX2c49ONc+ILqsW6MG7Sq1X0b8/Ki6xuoDI/jmx2+4TSa28uxJmNeXV0p2yhFEJd5LUI9YPUAGSeXWwWjm1/2X3IPA5iytMEuFTswb08vaedralMYLBczmgUUsAM7fPE6NWCmWmFBCZnRj5lVETb2ymFMpIr2sV92wc4iP2LYaxaDn2+QCz8vkO3gt7MghPzd00QyJJkC4veFfgy4snQ64HS33nttAj9Z6LTaiZlR6if2MptqTMfyJsmZkxofk+bCjQhhGGN85X9T+5yzM5d5Kgx9aaU2Qi/t52EE2xFwG34VYYN8Rbt4Rb12H3fm6fHTftkLxL3S4G7wbcJMEBrpgu5TV+66pPqcvSVqhk1yR8jcUXtKDMS4jrqk0HjFFfmGpppz1S+rxqM2hPEMU6Z5MrSNB23ekn3V3BAh/Jw5fjQeVKI98VinJN8II7YoxtrIJh4WUsV9Y0x0WLBVqcIaslhTTHEirJ6Ol1w5g6RcTtaCU2TsJdxpuSq6AebQu1X7Zz/P2grghU8ILEeXJeFUPON9g3GTOZj1vXM/ZUZRA5w/UZSaiXrJfb0Ler2t9mvhMV9/hSlCsnfxVEuEN7Vm2hVXRBItPTM1PJdsAWfQRG1oq0ddDFrvMNM1OXO3ZV2AJh9eQo5vQIJzkT8WbKai7pB/6+lP1FxwLl86raXPsbydP8TcYlcETqwY1OSVEDQzO6o2Z7UPPvEg1DW3Buph4+QBd8+ydK0uhYAiOZPCUQlBtKA/IwHTe/gvvb9V58Yx3ltyUISsHd7wzfeysj2k+A5LL6hdZkjS/x5j/F1WlU1hTXUHkWvmMIdrsS70f9UwGzPnkHVEOPH8SBKa2EcXnVU36Ahv1a0LhCaPctflO4SlhN3fa8QcA0l8A0hXeM/Ql/W7HSjHaUz9o8nLkqgMGUkNWiPfbn8V7EmJt2S7tVLZmHkvWSiMle1IUPuXi/AkXCmzeQF0QCifglqyN6rXSFfX+GtCkamg3PDEUzm2iX0W5DtR1rm9QqE4QEbEpHSHb7Wg11tPchZpmEjIPpl2FJP+e13ZXZpPMxyhXpOTesaFOfd0OgLyKApopTmo91xbVVnsaY/MzNAu8Tb0LcWDkdbBX/O0tIMScLXtY2PhkTHpYVvGf7hs9CscpLeXGqaR1YH8/OY6b2nN1F+E9OSju6FXtpxOPYk2DXLm4Z2BALKjAnj/j0imNhrcB4SpIADqria7wX6/8PU5pN/yxeMyswZ30ro4dRj4qJ8UDbsobHJ7jp5LQnswrMSogKPpgVw6LqDXN9acXK+P0Gdyl61rmwAlTwOQSzIsuAwQZ3LIlsInsNJjERrkXfmQaz5dhThkdLq4bMCfvLxEufZhtEa9bDIRMwd1uORDwHLrjeMZPZU6fwNHT+Wk0MjP0HAGGjQ642h6BRR1mr9T0mjGZ7m2ckiaJVOl2Nm6J0AN74tMq+H1VVcAZZM0h0oujjEeZd80uEb3pH7xLBk/zoSkSuW7fjEBX52W08R/ZVORAwBPQXJrs8xromWcW0e5T1BCPY1idKmVyw0v6bh/D+qMvVPd3HWbUVbsZCZeXuXfwvUs6I2q8ag38C9T0w4I0dIhVGDwpQYTKLwo+2OF93aB/1klCBKH6HLcqLYv0FF3BSR0W0fUq4qoGsLPZDrFOou9DA/YkAOGgYbBv/RUhfmeJAT5q0/Q86XjhZmSr8tcX4FEpXVb2sEgQXiDtyVYs2jTgKAIkrXGYyQHY3DbwXi7nIvNYFoerP62Cp5G9wE9vKNwF+PA9+EU9JpjoD08nreAeMPOxj754lFDN/Gk4PehRP1Ro0MS7jyjT8dmIlhxvbeHoPa06DTr2G/F+n5ab7gpvDwlfh0S62LTU9ceFmY/8oO6JXAzy2OTU4MNs4+S64fDoIHPxV1QEVaP9r9XltP3wZ+FMZzGQt7e+W7rILah7pkZnwQPhVmP/KrprvEGcZNGG2DH7ctfPVCRU1+gHX6LEc5JU8HCFslT5eAm4kbHMy7QZtEXXQZe13pPfxvT74/2V0VfNZQpj1ZUtdYOUijRSnu75mPJWKzDXc4q9o9Dq+OLVKfMbaEQqml/7+LKqp5Y4GfSMypW9Bhrh9L7Gp/F6fBQTZcxKxMKo3DqmXL6cHG9OAyBRCsBwiLXGB3U9FdGXNChDkfp015YIxEcdTceE/db++UtWdE26x5H2uu5WOEEU1sCdy8X8SHas2juS+QzcEgEvngOvw6E5CVsLQ8nmAFfyVcUHcaN86uBZyAX9e8JbAYDTeU0/BSei+m/PjTnXjXFl8PAIAHw5puZCwNFoBMX00r71yAWXJjx0mHirGuzFncF58wzVUETAD4AkJEb2D5aYdTCfVc5WM6qHl3scwN/szInvyiuPsHmmYS2ta9giO+xw5ctsxrq/F37QstJ68VdPHb7Z1o/UZvoyMXMBQ3CR4wJo/DVdaWctUNQitW0xkmr36Dx9zZxYF9s2Tpp2rcA9dbLTLmPE1LonaBjIJ0KdLcFwdhmb9HF9QxUqLCibr/KlUIJpTb0vwaY8GUT+dLja/LYrWtP5nuUBP2dch4GTHUaL4Y9WpO6ceJb93vwQ44wiZIRMhX8YnyYWLRsIAWNu31D03dfGHQbK12T2cngmR/++gMAIbKbJIFtxSyTadYH0AAdLqjr9LnLAs9Is8VdEEQlb3kB1eKSgqs1Z8m6V5S6G6sNc2TwXilhphv24HwsAXDVXXx5nb1FHRHgpp7tXR91ECkaP8m+TNmDLnULIOC1aPh5qERfpkqo4778zWrOivD3b6F0xQmuRHAVOElIOUp+WLsAgRFUqp2V/OOJmVhVQ9lTjQLP0SahSI7f3W+uQwJFtOgDZG/iuzymr/qgrVFO2ab4f7tDZ4HP2zpN7aFqknNNQnG8XrQpdNGmNsaUO1VlPvVvxzOz8u/nPIWrw/znMuS4Ry1Gygqz4NGXfNIh3ffn1NGYvmotTul3MX7sPLAgpr/XUhahJkSNTg8Hj67baq5+39KEG/qe08i0qp8oAyNexxttUKH2gsaAjCayccmH//S3u8HDJFYCwHAktMAj/eIc5TVAJECO8DITBfdUtL+OUm0ma/Yn/TTT7smg0PvhyD7PQXKDo+ZYhdTdgBnU9WaLl7RtHhzRcZ/Ja13Jc3/yjRT/6lh2CkjIKi6kFNiaTwL0Gawo7qf+0txTNOpPPYRPQhgrW+FlyBCpDp1o3ypb45BENE7OBe++b4vGcVXDsv5JahJaGgZWeD3jYQuNIEDApAidUXAucZfJ3J+28ecWtSq1vZ/8xGNR5GhkidU3PpsyvEhUPVY90oVRKtpHeJ3chC/wwHEHevYEHjyS7oR0+8DvcF+pUJIo/7521yowuNleOd8NEluONojw/Atq5WQSQxHXkrM+zDHGyRAxTSzszEjmAphK6/Zngz4PjZICzfpN4DFZgI7KUfOlXGlsA95ymsVmcvQarqlHrEz/kDF80sfipFd/zcP8rgK7FW3S8757z28eLtOu9lpFKk5B64enyZShCZfh5uCoyzxZz7S+qdR5AOLzKIWo/h5eKJchKlmtb1prxdLQ3s2aJaakst+JleF/JW28COHnzz91qU1NdtTUzmqFr46FqfVwA4ncio3VulDK3SDf/asECx8c59TgFakZAJM7lptf6A3voayD5kRWCMn6Emqyt4uWWe81BBUjgu44kj/ihoNd8i33+VaTwUzzvAskpjF86AcRsfG6HvVH8KlvPCHkpjnVIaBOpHou82Hje2CP5G9rNFJmpG2x7dRNGZQd/FvZxa/cCzpw1LbQ44zwmL92+sROX0TliGBu3u9/+5RdtUAjZrDCy62Kmt/QaXwZTrn3+RqOLD7q0xPNJ1H79tXqLbUckh/WVAl3F76Y17awK073y+AhylvE4Vq2948gIiaBCYYVs00jgaahctD3b+/S648a/3+JhmJlM4PTbR5fXB7Y7aglh7+5zuN+F3hYNNIqfuGcTiFProQQECFg7KTfkmBz8F3lBzMXk2fUIPCtX842wVSUHCgNEJKxgJQ/3CMENNq7tVyMSlRgr9+RZ3f1R83HkAol/NiY7dsmFesoamLU9Y7HKZZT15bsGYUwwr3HXvU+ol/TT22s43dvMSWaY5kUREwAXwX0nHocNRY1yrlQC2hKo7sd80d9pQlSebfjaopPKMR+xPVbzEd2FyrqxEvCzaSuCtU3tEcO9OSslL6CnLPtneZKWPHyuCXqPRHsSbxIzhW8lAWoO1AehniWCcKSiYNUUE5MtvGF+Lz7JYZ0ZASsn2rwSeY4bvO/Z732sX++wVz28u2GM2B0QqiG8RTv51sSkUDFSG42xfMEk1t3OsmiZpBnmyyBr2M0IzDpWVxbz6+Q2T1vauBeEhDNCcm6K4JRqO6/4CeGhTSR/7T40QJ/JgSCvXXyFzkYYmSwQM+I8fPwzNVpT55Qt38MZ5vlQ2yu5/e+lAM2k5k16DqorFOlqFUsaBLEek9k30vrvXi/TG1619qE2M1gyF1m+M6YwAQr/tX8OVe44U9InKfPy5gFS/8PKZ8P7YUJRJd7FtpZ7FhZ2iRzpELfNBEUPKMWdnVVcAjApvVJaHq4d1I/n6P6iPVHaf/HchVU9XOpq9wFeTC04MadPOUgFNipnjeNLqhkGoOxJRiG9jh1cOJvEOwL8CbAg+y855ATmxEz5VLV8ruEzaBkYMABf+0rlIERdrf59EVg0QsRkoYV+krPC4jOj6wyQ9ZQUf5VB5tAl5u7r36pu8mCGogZ3r2747RPrt3821XW88QYRRcKllBBSGt+6qK8gyRjezI7/GpH1HyoXPcgSxHYGgoxVkzlv2zs7hDyf4LNXnYVrpRi6puBcmhWaEg6kbWr03luSUB0WX/GS6DY67RVDuusDVsQABCJ77JBIhOVomL+iE8lsWXkiLGUGGv7AcWZeKKFEww3pePrwkOdJoS2DGX35Vv6zNUGAbBmBvjVf8VL6GlwUFIvcUeVLQxNdSzpuMLiTc9DZQDfahUG/v8EsWdb2kiUErcdVMvX/upgTXGg8xSKVrvGJ8slbiWEAD0pqpeVDId76zF/wCnI/pCCI0+z72LmNbn+07T0hWFPvy4l+fqV0M73qeNaKccCHJdEOJYoy2u8FWFPk+8iaZTieoqxkfk54cRkbW4MTfG/YhToLi5yU3rL/lMdDH6ou41kC6rX7M5weFagf2PnQ5u3RqiJDd0KiAilw9WSqm6W0Djtx94UW4J8509lCxjLPC+/+TBGKtE3Nacq4IqfgzHL6AzBEHUgL5eMmAMkppTxVUBl68RsJaLMgZFNy17BYjfblt9AAAAAJE5gXDm0G2bHd6b84AlQxdp7exxcsmDiiqHb/OzQZRDeXEwAffXoIXLoo88Gh0Rej97TKUUx8VmLbko4AN2il4nx7OfcoHf9Dv3kl5WTqH+kNwerYxHB8ATRlYsnZFz8ChrFZGCNzUwCyPdUKEs6FSNR6ryYm4KrY8QGYbQS/o8JvwsLAXBAC8q0TjNMMoGaQihVVJt/sf6j069tYBS+3gk6kF/BZNLzNP4lN8qo2j+NnOwdsL7i7Mvlte5ms1YnnudBQTeYmf3fsVbRCRuSK89gfxb/QYwhLR0ZVtG1PjJMcmaLHsk0aINU2sSx9igGnehIuUXwoq6PhZLiCCLHQfhu8XTe+T04mtscv2Wi8dJ4plv7jqc3YZ2JyVr9F8YuHl6po568y/5gukUG+h8F+X0TxhqNBFRmhEMAf89x1ljyhuKzSfAK6kx9e3V7K7Ht972NGtPokcuToDiF+d5H03z5WiBQAD5YXnQYMg5ZP/DAzu3IbkZG3GUPA8UcjoVAHLxiBOUKcOip5kOCfqodFo6K4lNOBD+QUfjnKcfgwzCX8obCTu69I+AY6wuADe/s6UZgZ542dd9i5K7M41SkYyNqSv6fl4RwTPsLBLalFQzN3aF/1m1S61YCbVQXJYdkBnDVeqcaAQ9qFbnB0HzQCUl/UlWWujMuMqZDtXrJz7NEAKToDrx2+XpkZ73Kx0zkHUMItpDs8wVTvmGRouR6mAtBPqIwxf1f1qxOJGdVqWjp0qoEgR5+GJOEpAyb+/UOFmPGBHs19Zb/ajzNlKTkOFPWqg2AoKPkkWETqgn+R9k+4kIzfV5acwRtcc2xFwUTk7euLJrZZR94wwcYZRu+fmMct6GF/h8m9uAOrpQ5PXpdn097QUXxSEC4QJA9AJn/xKUVLI7HFxAAEHiJGyRACPvz632MGJi2unH16bomEPPreC+JMSkk+E8l3uZ3EmysKifHSM0WD70kBtilQtJLQaDro0zGqeEnRsAPh0VciD5mEAIyQ7CJ9XB8aiXrHba+hbHcJ6yWUOBb9+h5SIJlPF+vj5AOyupoSDJP27KJQ8ntHhz79Ij+j/85Xoxsdweue4liA3Y8KV77B11B8E7xc4taadJVIyLH6xLs7Y6QscY74u1fr77zFyHfv9luFPBauWqZJyFTq5jD+FQTbr2utHa4md3UDO28h21QxxAotP13mNb2IJ9PmKvscliTFHbYwPByLWMggw2/kr8/ZRabCnyX2rAw2BLObi2jecJGD/DBPQ4MsPaJHTMek/f+gR2jL8d7Sz8Q3hmWFfSvijwQO7TKZHe4Sv+NXIc/vXbOuzdUz71AuZh7Rgvr5PQZ7zIL1VW6+vow14SIbKvNMDdosSgnXGf3rYPidy+wdbWeAidzj5pWAk2J0t6KgJMGDjFexH7A4AD0+xzyiFf1z1JJW+CpP6z4ACc9TRuxRyv7bvuvbdrSpK3VjiaaO0wk68ZVYXpbCAKfHceBV6EcDgRytEHytZysCEzXQA8//GY9CXCZAxB3YPWNwQSxzPV/ft/TPPR5aAD7C4opmNVvARc5jxc6xajiuaGYFklPUcTnAiP54fr4bUdlHNIDYojeX/1r5jTUuRRpyHvA+OnTa4AYPY4vELifR4p6STyX6JBHNnb87gFRElSKC+jjLMamPF252f7T3r+o0X+fgSBtVRcDAURgjnZdPmzYZfqb2EgIB8cTgCih4tTjBDAGJ0PFkvpM/2CLLoE/4KqE9+23jpcKyS66bbOv8DMAeVGYspNS+fR70dpYaba+hBmYrlV3IuUEyq8bhyeBG+pG3SUBoHMifLDsckHDakVkQbgGXuFn1RtgCex7ThnDa67dGmKDzMx6UoscvvKXmkzyt5/sRJXKGvk5v2CbGi7xxf/Akb2RNVbqX3Yz9Ca4lzZQwF3AOPCGCbRHud+s5AcDqH9PJi7lctLtpkXgyrvK5AUHgfuL6Z4sBI/SQ4rAyQ5B0jnPQfptHhY3UG1sH9xnjrLnLpltfNSJYaVNw8+Ds8BiSIqE+kOsjBe8xFkFPXOI2feaqesTz37h1TCg47+cin07Q6Id1vKao2zeEZv04v6zHRAX84JaCDw7AQqcAy394aXsY6eDlb5i9BGjdvKBgZLfXjPBVEtWclhaP6SOxE90s0Jc0ylHYK6Qha5Q5gM0nJSeFIkeXWgVSQPa8zEcCszhYqR3A8gS9jsY21AnQmF79zqGyDcVmVoDGgBt+HL+KcLex1h4Tw03J38x6XRQU59f8BXxiPODNADY4qL17zbMvdcPzZZ5/20a/mSiMj2jzVhKTHgoyHUXRwwt7N0FFQLn9N7ZJBsmgUgtBSgLf2lzIqTOsHH/4vVdKcC5UZNpGSvVwxFVFY2WL0vBUhg7jke9Z8TCMkvyMrlRY13Dfl8S9wMV0Kq137cUc8h6Ya9TJtT7ppdOTW7pbP4juGSxan7Rn7jNJ7fDMULRd6buNsn4kt59Wde3KYvqLnhRfacfASYGnrb2GKhNgrO+roXKZv8Dwdq0RjION8wJqItgHTLUv365MGBm3P8NXVv4yuaM5XJpqjL0XctNDxhoB6AZSIM/8l7hTZ9BPP6N1Pb97kJXI8vj9bJYKtNp5oR5JPpJAdQiEvRVVIXb/LBptRc6qjMyZTefLdIl5dSVx3WitGIS+83yXdIHbbC/UPNYkrqBmSU4CQyfoEWiiYbPdGtZ9dgauQij3gA38GB+PZ3T/+alwJ6zFYX3VLe08tOhqsp5T8WxO8/P4uqjTno9dmxnuT22Qy3mpJ1m321zGA7PBdWiWHytS1dgx2piLu5KQvNzfsraaGDaN4tfNx9vfMh6q2DS5+zKVl/PTFVgiLdIgAIwwHS1Wi+I2boC+3pb1ZzJhFV5tKNqIrioxCyfNA4R+8ajGC0Nu30l5b++rCSOzAq5244n8XMiFpu/wWuBCGi97/Glvy7p2f4Q7DoDmx4q45ePcdN/nx5g3ahTsNaA8DA1p0l7WyWHtVrkLKlQ79gRRyqyMucXf9psGegHhS7bJ4ZG1Y5tW81QvGwCl4LxZe1S2JbSdxumCaphkKlMLSEALFWW2/ntxESQjeTB3q9tvbivxh1emHq7GnfdEE1NhM4KK21+0lY1ftJFvbeh7oYmbX46ovX/DUErOiWBh+pH0DF5iWfLJE/ewiVew320TWRgec12T/zFC5eJqvM8Z8ANutjX+A5pcD86C6iQ9PIE9yMAJ0ncGxrPM9KnXB6H26zTQcLT5ifu+HqIIfuSii59TVC5qEGPXWpP9pXxROJCyN+ofvy1QDUdvqtOu29HRATGeit0QQKD+MjgJnHO8tnlre86P4aYG1lReOwSLW5aN4SeZ4uX6vWiuvPTzeYEtN6vH8KST7gSmHbMPafRt4OQM1S6oi9QY5WSeh8b9m2zU2NCqzSMyYCXoI5cVAVSZ3g6n9WKMiojPSggHiGhbqOO6guwxzP6n+iZ3m4lDqEzPm3P8auEJNuDhynpvkHruXLJ57uloHn8At/3YLGaTLHwV42Ws/YgAQpPT7L6AygWyEFlRFL0iUO8g95bp/t9nW1GACvqjQCJDRxJsqBNylHq7fyGopqLCfX6zCIXlp5aNmCcsfUyDnFUH/WOCnUKyH7uIzj5fDismAU4qwqyx4dEe8ESlDAJwT0dZo0ce4hqEF5uCHo6EAnPEiX6Zhd7LQzT/Vhx7qQ1Ujq2b32WnF6ROX2o+vw8qjwXnsY5DlFhmmUAtAB8BHTiQAtg1gUMzaViBczDDhm/uL8eFNLcvQkIuUCbxOnjv3GDt9/oniOZzu6RHFAlmzWbszLXNvCSUsS+VeaYhxh5lLvDTMdQMfatkPUYNgk8pBJKh5SrIE2wTeg+Az0ejJjDoB2xVKxpATcaSVebJSJBPBKf9Y7EfBAlNoG039hi/l2oABn1bPenufIFON1TGV6uI/jPRxifI5OmWRTqUcaYXWlf92067DoWAxa1LPhgcFakIv8epnq6IP9PfRwdgI/S0+bPBs44XIvY0gLXtHWA5ZLPwOERZPrlwgVMAYhODcTIWkaYbqXci5Z3QM40M8nDCoXTuiQi9UAUixt8CiHemZZKPwNcEWmwc9N4OY0j2uFR6QHMZzuOf+2dQ6anzq4g+mFsIxk5ckdpqGemXea71leWLZZAkUAZ49+0Q299GjNr+DXkDe1U8R5oLr5lXzK4vdQQtzvg9Z5P74+Fncq7zveDbPlMZVMVWQJ3yo9Gz7RbII2xSzPd3z9jGA4tnP/c/xw39gANJRpJ5KuIjl2HH3SSsDO5ADOGX+gWK6EJqPr3QIm8ahicjho6hqk875ANA/J8HdjEroIFtL0EmuLYTwi4/Xik+Yql4t7S6MbVnQ7Po2UCT/nYfWeDILFKS7dIQofafXggLFIpO5+G9kyYhoew7P4wHoBQ5bbCLYxn84gn7WhRwAx0zxD6BLfLD2aijz30Oz4O+okyB1mT4S6SI2cE0rlUKqHruio6ppnLIhMtsvnPlWlyiKGyRUtjD1Q2MUarXPjOrxqoHiqPeE+7/piHt56Cs21W0xYOC7ipf05xxSuibkihwKMtsGjAuFqs7rWN7uTf9ZwZd5ZpUCYVcB8aXcOH+WCilKDdtl/LiBiiKmQX2ct17CFCZ8w5TPpLE2uhxZh+2rVQ3ocW9XjJfBfCtzD/YLd7zR+I3mk50udvpjLvAdpkFAG/z7URq96kuSR1RtCTXdI4T991+/0FQOIP6uw18Q2QDIFoUqQoODdFMsBRZlkbTcMK+rY7YWKg5TE8UOcQ/wEZSRC9Pf5MYrwtYCUM9CyWCQUEFoQpC6ciWFW6+kFTPnrysZuoQSXTOC0118BMFisjcGU/qdAJdXePpvjewpvC5UgSjZH8JuENufQEVUUTlkky0xyck3ttdpo3T27OPaTW2AklCH7xgTDED2NWvnH5c8I2ACqt9u4P2XI0JoYPfFwxMR6npHnoomzjXM3SpFmnLyfCjDqsQtayWBnwHQAQBud7EjZgMnY5jIWsqgSMuAZmjrJNlTAUm5Jf1MaKahM51OegaE373guevg6szr4whkjrP22cVnhsBzjGqtqV++cBW6I66Aj6rzIRbX3Sz9FD2ig1q6LEwyia3oFsAhmPgCixT5DbS4bDzLXMmDbcavx1GfVU+rav9HMMvRv9fgqHr3eXaw02C9/8ZXCSwxnMRd0CRwb66f0mV3wH/MFmnLKHpTM2No1DTR+Uh/Aw5CqHhKBO0SvgIcGYLIXAl/q2l3QIEop2I0ZO5aYKt2IaliBQP5aJpgeRe9MF4Qz4EKlhW6P7RYCBIIk79VIs4LQJ4PprStCobtzHeZrvZnT7QA0NOXULPdS8yvnZ3c6pxrMxNgrCzWPSbLc5pCAFP2NvHuE2nDzMVgkxLI79MIYWvcF041aZpYHbqnAajsSZVDVMYR2PNOFMNF0d1URpsqJOJuIipByIzbBZSWkx4K872YfjLAmy6LG/k8h893Lc0sc8foNBkBV3c30Vw/2Kl41IgZrQJybmI+uJZnfMFNaInhTZHDgoS/QkZu0qzfKYKf5n6F+HHQllCvNXlm7hd2wxhmLz0Fnkgix1zc/d0H7fnK/MF+ENyCUyx3D4GGLUuyIhwUMVuPIenkMf55xiNU4TRxeEXgBxWCpQ7rkvIjKNQxRWvDFCKcsgt1e4q+0fyEoWDprXq3hp88I5fJHOQsRrjRh5LejX69HdSH96Fb1oDhrQGaYJytj/Rs2d1U8RSu2R4lr/f2x+89B/29/2rSo0TSvnS6jdlnYfpBSHTJeIaTa6MHnFM7IBip3qyndaI0jMtJv2xuO11PuLxBaL4OjfjTFWHstqASj7+hBP34ubsRaodt0mRAu4EguZPNFdm06xI4poD1NsCPcPYTN2oXZDuK/NODf8OIwIF5W1hbIdggS8h64CAZ8hz1hFseORIjUJdINyx2V/42VTw/XAS0bl7osftEEEHrh5KkLwEsPaAPANz7lUkbHFVA5BzkiK5ESSMMQRPAcjGhAdtmq87L2Sb6z/kP4CEnIBwaNx6utTCl+G2ChIvngDGaF8uWx0n+x6qnPlnmX5HLc6W/K1OfyaAj4aQSmW4L+6XML+V25xmDY7yCMOvd6l4SpXwAkYiXA+k/FvxQmpZnSMIzXPf9hFOJgVLTmrxZ1C7Oc+NOLkxzU+NaNG2CMpkfSjUv0lChLExscKYqoEvn1x+xVnSPExmn5/Yk5BxvM6/Uv+3EOgbalTUTJyPX0Su9LYHwrbnsBTkDrJkrs9bH2Rc1gurqs/UkxowEWC9uHdkrNR0btHQyo1JkCGJnGoYJo1zeeWPuKuv5kwTjZBlYCPHA/t3BFzdqEQV/PplP+ogOCCvGvabRmfYIsK6X6n3Q448fEkZVnzsvtVD9FtC8iFY0WFOMdhEJweutkcvFVw0xg8FX6Yb4p4fqTBigikFy7G3LBP2IMl8CP2EEfXP2nYcpIg3w0NQlu+mrNzVIB7gRbUKpaiwA7cIAABPfaAAAAAAAAAAAAAAAAAAAAA4JPkAFDAp+OqXyb6s0ii1+5A0ByV2u3wLDH7ulF02UZXHFGJC4RaWdex84Q0MhcuE+84wRzI3cPk0p/9/6Ipo8N5DD8fBV0pU4C794ssnZn+6i+/loBFgMslnmA8CJUGqIcyzE8i8HPNxHq7yRl4aoC/AJUs094POTFzEQQl5yPk9392AWJLjp8/gbfeIUuR27S/X5d5eZ5z1ggYSaRPUdS1Cga6NTSaZZGlWehAz4gaxFud8dXPHf1SWaFDdI3bvHBsRmOQIDu8bAhmzmNVtddP/tY9VQNn9BI8OywgJBqvz0USmDgsEmrUVHkQZ1P6Rm/QLL0tpwVy/IDaBB5P0iVkM/Q6tGY+aViVe4Mu/JS3og1nad4FqZYp8kXuiSrUQdQ8jaeI6Tp2crJdlTXTSlKHMsuY35Xr7iTJl6xYBi8Rt3c/PdWkQJRupSji4P/EXoDhSTpwQXF9tZl94ZEg3qStpMx77yq2WDtwfUCQJCNisqVImET08QL7EIwHhLfdh528fRfdtVRVdRZnozh0hT4IM96JuJPd16urRkvgn9DdgFZ2YR7K55F0yneHYu9y3bT1VI4gvtSXv/O0XyTXyjFAt/DZVhnuOKwAuY7t6qA1zO2lNet1Vj81xTUlr3rnicprjbllaLiOe9FlI6tSUdjl3cDRo5A6szm4qbmNKAZ3z20Q2yMnpqUeLYhV1ka35yJy8b56MWlaXtC1tfIwQ/PI13IdJGWG2iVedxDn0i/30D1B7QtG36IDoG1NAnoL9vAQB1TVG+MlZGljtR40D+c2RHD6ZLUr8/h059+/G7qSym3FJhA23nwW3BRnpOvWAhpRDeAORACv5vfLymRL3S3tyUBYh7nnsdPyEd0aegBYfrnoG5xRGVEWuLwB5YL4YKSb3uhNwiXP0JwRNxeDzdoxv4vChcOfz9c9XMCwNwkUN7Yu1P1vBGPwEyTtev/WVO3W8mZTtJUOjCYC32Lk2Nz+4J3+C9V+B9fd/1ijerq1aXcf26CrXN4Uzz8aID9HrzK0a5IAHlKmIpPUyMaLFrl2kIRyB1e6bssMTUhIW/zMiZlE6BgKLZvaY5+DuQe+7syCdTmFSJbkoyf4Mtfd0CXh43YcVUWZex+gBLfNEHzrYDkrEw2vswHQdIjJUNWLlPkyiwC1A5rMQNbgnhZYsCyRf2++vUfX3CaB767NoTkO4svOjKP/IcxqfaIHzEsfuG/PlqPRNsURZhWrv+ICQijO90RrsxM/sLHmsJrNUJCzIrnD42Uawn4Xbs66G4HcCMpRI3+24fC4WoeAvayzwyBNoOgSzq4rdUztRCg6xfs8NvAqMYVMk0mElfnczEhXwy2fd1j0I7xoWVXoNTGMQcLL9OHG8+DGDO0roVbb6fNMYxcI18Ep6gF9lzwU5O0+uKp1+tym8LiPohqO9dq5jht0VhUPdb5mAxVbfB5luSuiz31jWIR3iuj5wgShpzpPI45IRjf3RewcXXgnRvyyiEIyb/vQ7gKjS8/IAgorA85IZjIwcJ+K2vqDVq0k3NC+vnJRXbGJj6FjGx0kxwDu2rgRLAmYJwXVIJleW5O/o9gMMXlZ9cjI8lBjmWjq5R6mYpSevAvXmijUNKD6mRiNouATyOS8GOEoYwZa+qO+U5UpwbbHvIqxACfm1xU/xTlWE0sJAQNDCQq8+HF4qag7swjd9E+PYJ8PV9z3ljVT3tmmrTmGg1LeZUpkXlmRaBJQ1RQ5jsCRhD8fAhuPSQVMac+0gmNhCJ4NVbyxK8Nsq9Ppay3ubJQk6WOliqU8FKANCVo0N54jOeO7jk7QefRKcj0mHVZsxKtqzxioCkQzOc+tx4fPAqPx/4q/vh4zLN2GXAEk8p0YkuIKp7JZ0bDp1Bee5ucrgzGU6LqxjD8gh75uEouerjfTQ01jSfaEeArJFN8QTxtTakdhmBp3RGrU29DYzOMHwqI54dsj6Gdze9Yq4AVsEFQfAfuoeLn/3zREahJes1FncrxxILuMpz3jtxkguPC0FtYBuaD4Cqgwixj7XeLUfmdBYmKEDY50oO5Pvbp4yHheUfJKCqMKxiK+5zPsE6yEczPQCIDjKtQmJpcXAioxGTMGpDtJMV1tQnTonqf2vP3Yt5PaAqgklSl27Hv1EwHYFeg3oJrYi/s+GJp5xnQpcas00UI87pyfyinolcqi+nEgOW54IqtTCaCWu2A1zCwYBOZHBx5O7TDrvN55Sa4ohxizw3VoK/woIGLfPmptcfrj6Cq1J1nfF01hW/6Kdl66olenmPca/E85yt2FDcwHZtvfjAEPFiOu4e6D0gnvhmPWNs6qSygGW+F/+sv9VttxXULyawCFyyEgG2rMYO0N63dAq6a+CUfx2nmbwj66uCaoPuBqZqZ148u4dVjgP4rp783MvSRxZ624byh03W/5W96HNcpffr8EJ95usKV1FvP58DNwWSTUiem5d/d5ALdJP5iWTT8H/VArT3ZcErexuj8Tct9UI5U12ZcTSPkoaXSDvRKPB63GMgYkTNXNrqNZigUsPfarZMOfHcvAypdk85+7TM1Ty5SuvEjejiEoK3ZkjK2sURaFXVYkA8AAAA==;" vertex="1" parent="1">
                    <mxGeometry x="-90" y="10" width="748.2" height="460" as="geometry"/>
                </mxCell>
                <mxCell id="4" value="" style="shape=image;verticalLabelPosition=bottom;labelBackgroundColor=default;verticalAlign=top;aspect=fixed;imageAspect=0;image=data:image/webp,UklGRqa6AABXRUJQVlA4IJq6AAAQyAKdASo4BG0CPm00lkgkIqIhJNJKWIANiWdu/FnmNaOub1KWyN6AZ9FIN8/5X+Y7sWW/Kv6T/Bfu5/b/fg5B7dfcX2n1sv6XWZ2B5lfRnna/yv/a/wvuQ/qf9z/3/91/tH///8v2D/1z+q/sD71v85+xHuR/uX/B/ZH/kfAL+Yf379rvd0/2H7Ve6L/Qf5n9lv978hP+Q/1H/29cr//+5p/ef+t/9vcZ/lP+R///tJf+n94fhf/sv/Z/d32pv/3/ufcA///tg/wD/7daf1P/wf967l/7h/fP2g/ufpr+M/N/3D+5f47/O/3P9sPjN/5f8J5Berv9z/l/Ur+Sfb/8f/e/8x/w/8L+8/yB/s/8x+Pfo/+V/tv+r/yn7qf6n5BfyT+U/4b+yf4v/tf3795/tC+i/8X+W/xPf47N/vP9f/rfYF9ZfpX/D/yP+v/9v+q9I7+t/x/7z/5P///K/10/0v+L/en/Ff//8Af5l/TP8z/d/8n/5v8F////5+Df7Tww/yv/E/bb4A/5p/av+v/j/9h+3n0x/3v/l/0v+t/cH3Z/o3+p/8f+i/2/yF/zf+3f8//F/6f/7/6j/////yifvn///eF/dv//kyNICmM1jcpnjuUzx3KZ47lM8dymeO5TPHcpnjuUzx3KZ47lM8dymeO5TPHcpnjuUzx3KZ47lM8dymeO5TPHcpnjuUzx2ER8cA6/2EbOQv09zNcof0U2GM1jcpnjuUzx3KZ47lM8dymeO5TPHcpnjsBjdo+SlUrq/zAYCd1oYzWNymeO5TPHcpnjuUzx3KZ47lM8dymeO5TPHcpnjuUYzm0iKiVePnoo9JV+nuZrlD+imwxmsblM8dymeO5TPHcpnjuUzx3KZ47lM7I27v8dT1/vjbnTPHcpnjuUzx3KZ47lM8dymeO5TPHcpnjuUzxmuBd7OPvf86Pu36E8djoMKxnbNSONHk2GM1jcpnjuUzx3KZ47lM8dymeO5TPHcpnjuUymAIfX2vSztQsN7GAfyYmDqMG1jNgeU2xHoWR73G24ilqJWlJXc1f4aQRpAUxmsblM8dymeO5TPHcpnjuUzx3KZ47lMpIa6qQo/LTdYhYpkdyItetoPqI7s6NeSX709Cy8xuMFGdiqK/o3/jrWb2OaM97sO+2N0NLja+oH0exjkQ0DYcONHhk/WBTexaqsiHlJQgwdq5Q/opsMZrG5TPHcpnjuUzx3KZ47lM8dymeNE63gWkinQ9FFeNLo+yR8SYCTkQEfNi01b+IaSMwzgpXiVql3GbfPrhoEBE3ImpmzRXfpmuUP6KbDGaxuUzx3KZ47lM8dymeO5TPHcpnjuW3mcNV1cPvPRNpeMh3e/A8M8EPHcpnjuUzx3KZ47lM8dymeO5TPHcpnjuUzx3KN7/Ixz03D/9l1eA7qtWaxuUzx3KZ47lM8dymeO5TPHcpnjuUzx3KZ47lM8dyjm2H78bS7+EDuB2zFMen2ndc9ZuNmrrLQWBVw0YPuVjD2Jke5yuTiQbp0kZHoN/Pz/iQjD5a7ZopgjSApjNY3KZ47lM8dymeO5TKSGu2JOqjqujCmz2P6/aIluB5rkPLAQeR694uKH9FNhi3G+8y//N/HeKrS5P1+iAtevcLqxTDL0hH9A2BQkbNvDF/lIhBf+mWGXKmBBObQ4M6aOfJBAyVuBoy0U0jPG7SgzHrgpjNY3KZ47lM8dymeO5TPHcePO0cd0GAkTuatdbHRvYXScBXtPwIZ63XktcY5GlgXRDURmUJRjvoe8qn57PJh22Yjd6sW6rgg0zmZS3l7H/7qKL3+UNc0p+UzeWzs+K13fWpueqdiUJOgJxtQmJGFLQyPW9+RyabTtpZ7ma3QQ1vsitymeO5TPHcpnjuUzx3KZ47K3NkHkflB+7gf5Suag+Swe1/EJBj+tp8ff7VwgBQU+/sqmEx19V2j02jZqlbFRO9t0Jdk6kt5UL8shHjGoB1PqeYd5IXF/9uuVpgtsrYYynTL9dOtUvZHYb6pvkn2JWp/SByCj97LjOJqHoN5ZAe5GKlJ7hBOT0qg8IYp89gezQI8QSsa8GDhKi1IP2tuqjfvy8QyMjy+SGOSsnr83XWFm/JG2IQzW1zDcFHiuZEU3wumKO5TPHcpnjuUzx3KZ47lM8dymeO5Rz7vmX+Aphf//99dYfXPE/AuKUcnXW5hs2cGyFuWnAtL1y56Zb2vgSsbi7389aicJiTTEwTlVPKD6yq3VytqpM+rpT+5y2VEPzyh/RTYYzWNymT87bh2T+jv2EDWLVtm8dymeO5RzbDokVbFZ3J+XDZgn3ueini536KRbu5LOX5Sd2o+2XAgTpOPyW5qZE8sgfkGqMtbfqzYnxEocuiTXLSKUWmv5dOo8asXsBkTYZBjzf0ys7tEklbNQIcrXmIOVKcxsb6e5muUP6KbC6q1+Qd91dHog6SHi4M7CgKiMMw4T1WsiY3/+cbmuUP6KIdEO5IWi7/fMJeJaeWCi8uTY7zPHcmipxb0CZB8kusgVr5MjRAjY6jxQQI6i4p6OovBSa9u6sjwTdRl0TLb0aisCWzQ6HI7DUJFJcN5WeDh2htcbhX9qncuBBoY0gKYzWNymeO47JIznh1fTcZQs/Rlj7hnC8PXEg3j/oTmFkfgF5rcvjDmYOpRzM0Hazy7VHLDoG6eHRh0P+2ZBPEj8T9i9T71bnIXAw4caNotURkgaXQdLM6BUaKPUBmdehvE0/q3KZ3tBc2UdcykV95us7izISXBDnCyEaGYK+3gCrdVTGhH73zDPutnfuQwhiOjLDWKNTJagX4yXXFQ7M559hBhpBGkBTFyyf8XAiNuF9uAjgJrogy2Uy7KZMagcImwu/WODOQFfsVMOT8zgf5GagDzLsdBtLy0Qh07JyltQLbJBl/7HzoNHudTvFBPp5V/OvfSzQYJEJfqjpHatDvbeidSVBGBP1t/LTNkNOyslC2P72UZgwvDnmIGLYvcZfk1DjGferDkZzbx6kj+pgAnfbegrAL3IfCn+cuCWEimQmxJQlT5voKGLZUCKceAZJEqWtWsYhomQJkGwi0BoqBoy7u/axuUzx3KOYKvhmtppAP0rdhMko9+JVqTfqU8wtO1MacmRtZxuUEl9HcQtTN0T9YL9KD/8rVIx06zLLMIKaijGbFEqZbKEpCRBYvMI2A05KL49PDy2ipoDcBgVIKD/j066m3nqzapXUz9BezbTfIjelF+2QXy3cG5CcjJO0B17OXPWywi4lxEsGbTfdVUbPylHOdooyjSo7qsnpw33rBwYmaFFABbe9Gv3S6dOeAyv2ithaJQIEIHLrW3vqHRYPVQCG77I7YWzW9ma+rtw2o0iMwHeO9RryIuv1MrCg3WzhIo4orlD+VddppT870DlmQCQVs66s2uiX0gK/Dz6NTYa8tPCjkiOsF5x3BKcB/SNjlTwhlF0dPupnTFpLex0v1bsaZ451Z7ztTnatfWH9FNhdtTVHOv4IODh6ju3w4ZjJJ73AlIirru3x5Vr3GgpTCu3WLctbS+EdQEu6e4ao8hvafnyqKmrMlcfdcnIhuHAB5+xi4VVeurCzE7mh+A5MG1Y2Z8PMD7/w1qW403yKfuMu/NkZ1jIeVSRd8DjKhMzQwvDcXbcr5uxPzRhQxQXwCtIEDjiobaaOIrDK6DgdTFGRYOO8W6MhTxIX3ipdMi3g3JFA9gMDczfVzpJ+PBoORLOACCB49Kk3O50AoD+hkB2MNGnJOpIEhZIaZHxiResDfnxBZQbZDS+QhZQZd0ve0jS/pg5njuPRrCmZzhhPOYjf7oOme2wTuH0ArTAFAYYISk24rGDU3Q4kGrUXRIGZZr0sHMMHWyusOCIc0c+fmA2+uKT72WDs2mtnSFyQQbEf9o3IsNJqgZ67tAOEQV0XcHSiJroxHl98YFkbRK6gQeYbYrjb0YQJKz+vSdmhRxwhNhupHh7KC400+eb25LrbQWyHkHZB46zCjhKQuvyuxyFjepOIRIPsyqY09TzDqJrPbhy2MYyF2RcGVl116Hf/IoVll6R7HoVl/nGHv0IOj8h6koWAdkVnJWlj7a2GmlV9lUtXKHwaF/maHBZNKXr3LUuJLH4WOZ2F3izkNotVgEdR7VQOjr+CfhubwM0R2mcnx7VsFkzjP4r8UGKtRhlglmIJe09VSTPX5r76M94P8QTIcWs6GQX/zdc9FNhdf32w52OmguApjNYUP2DLVMhFA0p8Mshbe34oiGz4Ki+MCnumwDhOQydZRjHcECNugpow3ZEwYMwINWQ/4CAezN625/jN126FoPJiHWdwrwgZ4jWTMDSMSqRcdWhHqXa8seJ16I1XDMBQGmCMzOq/mUQf74uOzP82Q+40UpbSpNNakHNqx4rKicWPlyJBP/72IHeM8RN0nTfVnmRVn4v4EPsRjt5OfLa2rxNjzskvN0G/C8Ghetg1UFkOcmMyVgdTIpWAdZdK60FKZ47jT/y8EBOvPJxhXQ42J46eIvdlf/qqw7rbeK51wbpB6gyuY3ilbjOKqLD/k8GaN76LfxEfASbEYBfa8BtASws4rIKLy/anlukeKOdKugLzwrt8jRhyoNzSE7ILAxREvcQpJRw8HmTQ8/cwuOk8BWmP0Qj7i3Yj5dCnEMHDWscASFOiZT1syB0tvhAR44OyNGWk9D2uwu40PSEhvpn0gxzEaa9YPoOdni5pmQQEPmQH/49cHdOdmnEcibJYXBue3mDCKSxqWTHtx1zWi1aL2dtLNi9ntdtfPe58OmRoSgSYjHQVvN9v5UvxC7XGZZT/uMEhYWA5S4wJ8E1zBbSx3U1HyjjCPN0ZmQJf9Ydh9yRTw2xB2+HEzHgUWZbsz9/uYR7LQ5iwjFiatDwXpZWMC0l55+rgLqmOpGHCK31CNhPC2QYubuGnvWUYyfWtKFSS+feX7IllThezBaPt5Wr+fy+jQtbkWb95uExvc56GU/D/Nq5W1/FDNSaIBJnbjwGGoCa/E289xI+d9gexW00/5YfIvs1Z1rn6ViTcI9wmPAKuYvQIg/6t6jlFmVL4ReMRQLm705+4pwwUWqJ1M6zHubuLI/VfUy0jq3Iz/TbYJU6X2JmSzkcsxjTMYi31d/UlfPEDYfSkAsWA3480gLeL5fC6FemuZd2Fe+WmN2segevVdNPHCg2N3rbg/ayYNM3xHxzcs+zMa4KnuIffXFgz+hV7qiyjMn1gfRVQh7Iwt6+CvJsAuCF+0I0LRkI/p7QBD6W9S0G7alStBqqzOD9VhTtX38GN31IfDdKK3mA0CxcQcywnBOX+QueG8saZb9Vp1zYLR5s/IEo5+OvdQkVdA7TEUmq/gHho8/RFTqvh3yMl72EpA5g8F1N053QAcysHCTMnyU68SOfwAqN0aOqMKGDiXAlcdwuOehO84lGSxwPvT1UiYtDneIJS3TG3p88OHLN6D7dkfU3xERR7vVoZYEaj3zCatpVute9tXnZQudAfHrE2EqWJlkLtihK13RC0JPj/Cm8138Qz/0qS2z92c7BJqWKkAeZQhqNd7952Oz0983PJUT6eZrUx3YQi7W0NQdWFLV8t5WiFLrJnP/SNfun1/00J8xCyMpknFXE+NIbJ6wjdJxWWO9UwR98OsL1cBGKmfqF85nbq1YgylfW1xnDm14gL+ViaLbTBAzJbulwYOiz5g0DJ6bS8W8memH0cxnbKzTbEyc/frXD1eI8Ywu8mxPGe51n/3+U8bqQ8Y/M2+rXWzaeNRX10q0A1xW/RJo957MGOMO8GklXxvjDGLQJrT6ozBF+DDJsQhpNM7wim+zR3e9zbRWKaT7T9PczULNLtxfIgGMHrpL+PDYPGXwPz5GbooV8DvT7KXzbnjV4Y0nKFhtFdp4+44kYtvfGzYgNAqShRid1R38DTRonf38fzkA3ze033UXYfRA2Q64Q7DSzSBDgpaKhQEgGerkrn9DH8ktzRd7dZNPkfZHV2LKVY2P9BrkMSafl2xvp7ii+afMOj/NDI6vKHNi20JU+T+QhIUTImrdtXRkTE1YSXt9stSFslxzQ8C6p/t+4QGRadzLv17i7dloQl+Z51AeCYMyXg+wk3RnaydNaBlFtSWP12m85BhSbASEjKYE4/FnXyRsK7SPq/3qGwPiTiQwImy5iXAmCXXNW6Yva8g3x8srDqlU8Ua74dl5v90BShwitP6paMnat88pce6HPObje+Uu2oNLbXlKJe8nYg7Vsu7ka7unnA6k76NJeUPgTSJKVSk75WE4IwRv6IRIVCLlaBMK7yjPDpSL3VHMwcy+va9WbjafJAqUWWYcDKu4Yg+twhYGdzI3TlU4kIYlp06IHsTPatqMauEa/nXP8JdlZZrdcCU7+qNcoHV3MVrrIBs9WWiVXEJWC9ATwje2Qt1jS7nY3IR40kAyBVSLwdzuqVt8K2QvX4Ci8eXUmqn+ILuDNdtz7HOzqV7UuNd8FmO2JOaVO3WM5bXegrz6+ZqGXe5skFUaok3UET799m1a0qtmruPt/vRKePww0G3NH0qYKSCFDNVZh2TD6rQ2wvt8Y/cgYobOqT01UnZGR1vtAblRJql5q0Q3kwY8qFqn+5u/CNO1QhA0eLJb6k+T3ht/MVHH3W7sds7kVVDsFmGaSAj/a+XZbgTGnOjVnVV2LapdMEv4POfkKAfL8M0Os5hCTpCOxzAw3NInBn3/2kI4YlD/Gf9k4gwNVguepbI6j5rGZmxEya5Q/D2DXVbJbiVIHHbooyRJQlS7u/395VoZxWUJwy6nZts2uLuf4eAQ5Pk2c75DHzc4F7nxB8U//Mn5/8nJnN/IpZ9pzHfZYJaxY5fGCB91gNB1gauaeWpNG2kQz5zoIc3TD0IQKVpmL4mwv/n+SoKlPM6TVyl+yevyZjtb3NEjHyBZAahMGFTwDzWyQku/urrG/W1PvH2UzahD+Wn+Cru5SQvQMFDdwwPkyKKfkUdsuYrkrwP2B+joLc4vGJ7bnjTyg89JceTXF2vbZ4vzRTUWhHjVdmIn2uFwq4r28n0n2KFtsBUg4u7dp6eeKArHX61Q+9i3fmdrVMUboQWBpDCWg+rv5FJYhPRTX0l7UuiLWVgzYNRaONLXj9WCAW05bacdbu0KsXrjff7P8k2GM1jcsqGWUEOd5TpZrG5TPHcprC0s9zNcofyDq2AjCfljC6rwJolbWSL+umsa4EB8ger0w9xpcHqHbnDlhCYy7IsP/V3PXb+lZgs93LMcU98SWDK/7GhlZXYN+TfTM/Afl2ydtebTnXrgNMAgcNymeO5TPHcpnjuOx3AU4G5WvPCHtbLoV4Pz1U4xv9zBCCzRKNQMvDodNy1OVTh2Axbd19O60ZGEs/Yc5IgcqVJAJHKP2B7e6e3OD8n2uyqgIhQQakfjEg1pVucUkU2LNkToEsTqk2vGbia5Q/opsMZrG5TPGhPOFwdYekPv6AzNcC3Z1lzNwXYi6Yy/Bwc+OT8JM/ZfdUaZ3dJ5jT9GV/Zsika2S5Vl0IjvRvlL18XAWYvnNZ+elkX4QhAP0/N7WGRhGN7vSZAauvEe6wxvBzB1Ne34p8uu+O2hvplec187jqigrjSAxGQVm8F/8HnhrzwHu7ACZ6DpEneuMeE3t0/axuUzx3KZ47lMiAD++4cAAAAAAAAypbyVCU1TzDq0k0lvgZtZsRp5usYeI5VHLGs/br7mp7a14KrfvTbfmUBo99f0UTL3nm7ZJJVQupRkaDquxuwkEWa6nftSfaZ/SYSUOR4c1uvHtu/UhyZ0BsvCgnbDgf9EjldP4AAADcDM69I/vHtN9gq0cgRiu9+oO/ChecDVhek7cqHebLMbhSJVhk25NWrUwgXCiW8Jki2Wq7Um2qoGJwMTa59qVWkqBk+VPpTbttmcilEFLr89TqqhZcdQiAzVhvCMvyZi8ykc8MrYWP+MLSRAhFDjfe2cCvDRT8K0xYfzWsa1/3JEulexQ6odz9MfXuyAAAALnWOlg4J+P5qr4hm+EvyGtESIlLj1hTOTfRJLsWiJWEQYvjJwbjcFAu7r2n7qqow9sbRfa7NHS25SfcGztQosQMNiNtm+MmzQh80nYHG1J9C8kuFvQb9PPtZIaXKOPztMKKD/vBiJswZf4FAAAABvh/bQmsRBlx0jFDco1kKODv4duEKeQrE5S3k3FCkz9suraeg4H3RJiAX+kk1Bp0Lfv5USNQkslcR9q2YNpRFYwR8yGXJMHWX4NJlxHt12Z6Vy2BgIKvW9Orq8PPw0YhhWEspGOboAAAbuk8yGohFcrHhxQhN2GxgsyXLo04KLxqn2Gni+b0Wyos1AwCOsoD6N2C/p6CQUHLMFOG9kiJI1eYdyiZ9Mup5S0AJLvf5m8YVDJoPrQYYuCTnsE4vM9G28y9Qi09gOv7blkwbS+vpI6SODqCsvkJVWWLi6FgRKvjAEDqS4FZ8Xh8qN7DMLA5JGZa9tOE31V8D2xi4I8KhMdiqxmaykKnMCXBxK+QkzpsWs3jVaXr9EpCfte8/RWOCE6hVRUWSYeYKRLde5t+SOs7yN4AAAMogiqR0w7XLfh32a8r6iOry6wQUfpinsL3OfLAFJ4yAyfI6K3xWz/aBaQIKBKzDnIrzSbMOXUxLk0jGRCj4VRz0999uL0fekXYSNGWxIXZGHVEcGJ+6+Vag/b1+gixVJF8Ric/Iqiib/nir/hH2F7zvuGn5vzBqJh2JVBmypsafSDtx5bcZBO4Mjb1rFQsy0qrtVdBUXyzbBQlVBWPolhtqBTPHu4rOeHU9MmS5njsqmO2oyIeOAWjzfpBCaAHzmULrI+LWqdDZS38vDfcfwcruk69GCebGlHsSBneEfYPZHoSpBkhr+llVVErP0y+7XeUn5UUsVG2/Z7xKCJuvkegwfIrSlbQoAuRG/WT6bgGRr5jtgB7xlgfPJRy9w0uZkTyiI+QcAtfYOiUlqUWRogexyTdy34hqT26B+YvFa+VrMmKXpY6shUSKSlVx8hed8iOnY+Tvi7o5gY3KflQKNHFMHI+5jOjOG4WIj+Xy8LM1Ege2cRMaIE6QY4pI2EFE0Y1x7Ru2Re8Vp4TVS1L0VzKXDT9jd5LqAZoSxndU+JBz8b3dmAAAAAYVmFKF0FYdjSMF+G+cAXl2eS415W/lgCf/PhyGuZJxx7j9H7CoCVwwDXJBjYNxvVdibbhP6Q3cGtdzaIavzaLniOwZO0LIR4J0KIOBRdtweL5FmjAeWgfsUNiGekJF0Ud6GhA40C7EpnaLrPHpuKnou6fX6wC3N/Lt5FnYmgxIT9fSXyhyhoJ1HTqYv8ig2IaehWQsrXB3Eae854SPgG5Ypmz1rI9KU7NbHJoipHH8soxqtOUrYeSlN2O3MIfs8vRdsHpV7at3Hb9N7DEOzA82qceeoQeSszXgxYtcyLyfyDVkjjSg+BXBS8WuKtblKqIM/VyEpQN/MwVNPKpYh7TTIX+dQPj2hoLtJ0rK8pFO2msTzg2z/seYCqwFhyCOHOCfT2ALL6Yk9RPJIkm8V7P6B7LSunrtFlCzpdqK2ZYiRT5A+6obzw6G/afbtTOUriHnKGQM2RC0mBn8Cng1OYxDLJ4wAx4hZUqW+f5Umx6kJ7K0DgTHhd+5Bx5hr67gk+jQ94SguHV6DGcEvazGV/kj1GjUUwJpH0txtSpz8tW5oglrtc/uU1HwtkVLRvydKVGX3B25RMHccupBLHg7X7Q1XC938flvmsUScHBqQPZxJ4mLkyUhiLVKrH9GeKQU82DKkvT81k3buERzT9i8q2RMc2de6HlDPYGVuRZoRN3bCYeFEmjpUY7fJZjsXPGI1yhMrRc0gDcTtwDaM5YBl7yRWcoSzT3a3QyxZW48daLp+8yrQgxaIlsbe3VlK1orSFIVwRPs0Vt8oZnMe/Vbak/KIsn7CVmxyvy7lulEDGZ6sUndKyKxv4MZi5brdn1E56ltRnRz+zHWOfVpWlInqomos7YoEf8o3/v8FmddpQ6L3cDfm9M9NhWE/izxmQkDaCqrdjRX0fJsFDvsbWaDhqiRQsXCn5nETuoClyPpZ69tSzmqAXDYLu/lXTDXxnhNlGLGboRtHnf2sIc7aslTCKAqqT8CpxRcI+stPlmlxTejuoRjfpucUdpglerEoVsCBRuDyZqptUm7EDnOWK7ZNQwvnb99flPTg+Jbl2xLAiXAEh8/ATCOyrhmRcSzc/VATfOvc6CxI3x8WC4BOBI9Nm5MX3rTfkMRZrZMm4iAYq/sVIMre71DeXa41WcsLDZa8zbJSkMngDInZApurJKT9K2QgSqXOIFzMGTaczwhOugwMf0fKTEzQLeadj5al7Nd6izfJsNVbevJ/GIT3dFam8Kv7y01T4wfaF7nxaAf2+Upd2Oq5RkYkXyyspFPaKMczbmilUiJ43iAfROAzpVBfLJZ0CJRpq09s8Mwjal4ckjkDOvdrQAALIu5O5dfetZ0sLwX04Icb25Q9OaUWQymbRKm38roSMTws95SFCr5ACVVwciOz0fw+iA9PX+3CMm+HM2qIcCK6T4+Cul0ZTwYkCiF6w262yyazg/8DJVVw4I0cHfTOajYbaHIr3VYLwmDSu744M3AaYRd832kNsEkKRIhVlMxTDJjbfNPntM7Jd53ORi0wamTqaqQ/elNhgN2NIFhaENLd4DMuUmFy3TXFyydRZb0Ov/vHudO4aK7Dgv0oRoPr07jdu5znsRfd5KYeVpfNIhl7viCHBRNkY9nmfZeaOvHHqwsn0IUc6Xp+YEbwrMcUv6pdv4VYp1pEQVTclg4bZDJEboK4uJYEXl2uC2tv+FhTClLMnkHO3JXeoRXQ9fUJBwseBMLaBoJ+uZgO985beQwa6D2Mkz0x5wnOoqFnwQGA1hhSgobV+hiBXT48CAstX4LqLtbUMs2p66JyGLu5r5ltv1wG66PogACBE3CyeTlniM/epQl1U8J7Q1YFoqPOd4UaUYjBCRork+Tg0PDlF7fACbsCjgCj0QHSO1omL2gW8WH5JyQfb/nhDcP6AkjC8UBn5rOCjUqdqOKTpQNSByn57JVWzLY01iTTopUgENAGuVc23XnFgD6Ca2b94rCbjU1eL30Z+XPMAAAC+VtEU5qF53zP31beGOgunVWwR/8pG8qNGVMfTBz02v4oAb56n/HRcTfFI6lCPXmfyP6vulBXvdnF187JZrFv45Rri+pNnup8UyL+w5WJy5P5DllqZrlrTnjZTeZfd0bwccLvleRanfbNWbgROCpWVRZXCAnGMUykLTPtXQd7AovDAMEfZR0gAAAAAD4F6wwY5eROuaDVJ5O8GtUmOWkHZbUT3jiXCS5oUX+6QD3kVhiq8AZZEo764VVRfkVFl7QCFIpEEO7qakYBnrhLMWWRl2PV9w6qyIMhnuSZ9XH+kcNqhXcFFM96T5qNxThLeM880kVABVS6SQQh7VidhDzMkh01xxtBYB8PNWex/J4MxjJxo5wAAAAAt9zp151SStSheif1LIfeN2CP/lob7Zf8KFpRJHFLjNeuDUxHk9dUJ8ujxPiWf2mHYK3rJOcyfr7cvy/V96QYBZyQ3bLNJz6F5Ek3jf6C0s3wUr9F4Ykj012zHo+sBrNYbzWmBHl3zxlfe9wq8CzGD6ZgmyxYDF0dN/v092+EsduXQuEzkFo2VlFwyqaJp1Ji8jRk/KbRIJrXVqAcjuaPswDdjFwxoiEoPiHHbUF+M792PnVNcnp4pTZFqomC22fCiM2QUbcLutCzPRP2V6DcGRXRogcudmUEIVU4ZZJLKqLjthRpDAgMWEfJdSZMyZJuYGnOqVrfRbfrukxeXC4+q4GXoYSvLFeAnmZuE6n+fb2/KJ/cpr7vivlHbsulWFJdSdlip3DBJQuGCgbR6wY92PqM9iDVDhGwlUAPweO0azb2FEhtZ0JjipICBip5AP49evXVUvgOEaE+TSwIgaPhlyUHIp0QX5NOi+b4ExmStvj8dMlAKL93dauQGOX2/TkiqKGmpJHxvRqgizVpAAGD5Us7qfEV7R6E8cWumAYGX0Cs6XP3B/iMfzKsSYnqTuUcekzpCWAxMVxHPMuw34bnNFL/HQyGwV9EMdYVNirG+Qjvh0yqn3pmNtViiT0Y6iOgWGxadA6LQX+SCYNyjdpcOufT2eGvmrpSbibIBox3qe2ldXD61xbuNZfHaS/Jx0ekNUEzRmGdA9dsc4fs/+N7TKFgzoD6XfCGxvWzBqUVyHe91455F/9TyS+12M12If2QPId0/efJbfO8c2kMeLbdn9IM3yKKakmw+44w3R7dImGpdYRlCEXmt2Who0se2w/jVbidW5usP8IL6BQ3hHkx99KMA71kkbIP8cwRKXhlFXxRLAgi2sy49UgaSj5wSk1YIyQydT0Wdp2OjTTLM9UajjdjnFkWfYQNpkOzi3D9r6+ScGwbIABl8KTU/+POhsaHJHrxtyhJFFy45EuTJNzs3AAjxrj/M7pmMsoqRiRSnLKiZenG9e1OErHyYgxXDWs4J1/Bm/LFVtKlz7V07uKKqgrXNDvoVRN+Ga09SMxsSAA7g5A4TO4vqRlPbyE6wobEE8AHZtiYaLAavLl95d73wmVbCUR8o04Ij4rym3dP8NhMXo+784FrGPxRPZLxr0mN/hKU3/ED3ZAdTB/EZ48IvMPpdQbmuzckb0SEwfZ++apngearur8q9qVybdyGrnW5PYdLY9IMXjHzoVLim34wPgIMxCCC7iMObrWRb0PtQ7u08q2MmyYoHaL5szIOAbBbJsLX1j2eZslE1XOAWK9SkHldU9clR/1ydJ/dz4kRDnoDnI31PV3zyw4x12di4uyFL8xWXXTaPKPRjpjkJCZNlj140aLdTVFgeYAUiIa1tEl/kRBNPVQ4b/VCJLlfKM+TAvnz5pt9hBhLMKxivt1fhT0NZMJjdM7wm0/C4FVBD3Ib2u+bkGdcE62kLatOOwryPCMdOV4d9DJ7isQAwTFIXT87TwON5dopKii4j02Wx17FuQmH4WjIRyvv/KgXjChTCFwapeEJFLO/mB+TyxrxU86eUtt5oyNONdqdLVml+rT2lXqI0ItAY1VhrQQBBfRfXAi0TPNynhztF6z6pamcSLlyDkxhxf8/gslkqZy8+CVh/pDGJFDrWzsChr1xD3aVE/Kkw3QgUTOedwFECXcw0WJDJgpgOdRjJ/FkSWQ/TNgiInpIXLnHqSPirDwoDDVSHGDBEerPSaAEbgHBRHtnKSwnDlBYAF0otlvQ952CTmICOta4kTmwMktH2/XzFzhu/k/wAE/4EZ1KQ9F1ImfQIM6MuSVQMuB5VQd5NEXysLNQOnmuXSq6aw2tpRaWUg0TkgiO0DZii3UUg3VSRA133ynyNry72pe89NAaqs72mqdIPMut9s+39Ryf+6R6xJfyWcnuxCJL9ZhWIhXLYZy3zJYOUniXEEoaFN1HJSbWqETD9j0+aeaXMWb7SithfJwKfJ9xf5460c9J9xeWXRTj4WZjFGSxgev1ToVQPqocj3vqEpbjLu6ZYMW3jUeu8CtQ61yHuQB3qAGqbnBKJtcTbpQSH4HjeY9jtz3T8LvMTvdao3penkXvD4s/j0b2fGegeK8FyIWd93INmQYAgy25D49plrYXlFqOXddN8CjmgVVX1/crRnmg4ffRV9xis84wIXGSHK/vndbzN/sGSsYPLPYsNRnyen8SClAucKH/2w0PPE1uJ0MahCIH/5RLR3w2grMU5NXbaTQnPyXbSWR0WJEyrL06lvtsJro3D5qZVUP8NgFLbFoG/d+A5uNnrONMJoDEZwwOu3Ptyu2nTCPaNza37o1qrqvofec6hTZnOXZHwGRKXspqzRzEGujMQa9+/rsOxxXtuHoVrxFe3b9up8sWLUCnJzD1KnRnp++2p7ebbTUwEquFX0f1VFqQLIV/+hZPwUKkKfAlFo5mK3TN/tiq5CZinZm36VUOSrMpTVWX/rkfiJbP0qUsZO8IpnXsCDAR26z1gBGetnb5My9+uEPMMap0eN27VnjgaBQmmXxtjQe/abdVT6Egne3dMkxZIq4RJLYnIMbKoNaCRQQe+eUl1K0C1v+QEl2lOl3AJ2NCx4Tqf8qLUrtnYi2R2RemhaaIYtV4s5BbUINnsNkxcO6lmqO5JGe7hJuX5kTYMQ51gndUmr66gjy0xuw4/wr1KbRaC1/HzL2dbg+i5pMVa2YmCehsWiz4nkIwU7UhKP0RK4j2+/Yfdb3Lh4oQFEkuLjgGze/eD3Ufc22HN5lwTHXQYPRMzyrCXOj0raglXhIpUrTCWjOpu7aHyBWOuMVZQrmc0JyfZig5fDEDlPWYRPpxUurqiPH0PTOcr1kvPlivEGuZyewoC+yd5/19/YK/xn3QrzZXm5LUViLkun47pgCwZt9oxJsBRyolmePt/sTRrmpBXSMJv6FGhRabupYdy4Bv3ZgiIzMrMCAF2hDr8Cmv1+LqT5mvQSZBYQ5nTAauW76SI6CnQZbksI4mkj77u+pyX0Gb1sD0S+oO9Wafuguw1ELk/o9UV/A8nzZGKRIBGikcjvUg10cLvXXVW7YTHOcJErqgoWuuLCQedA+XY1mTGrxgGCnWPGPc8zyF1tQkSQ7hu2t4AJaO8cMIlqDbO02DoaxDHU9CCW5P59bE9zzc2duAnskinYVBRcPW7THXDheKrTlvjJoozVl1OSJMrAWGhJHpQrLDuGAMqHjjooHL+L41ZY0BUpAshDODGj/oD/k5xpzLZMv8iWpqC4UFi5anhGVsjpmPBBiew8aZ8awWrfU1XYnviRaxcb6Iqz9rNJGNCIMg7OBTenqBUAAkUSVGWBVpS/eJ1z5EJGM1hd164uL5bL5GTz42jnGVIkFifZ9aHQUeFg3MQRxnikovHdkfv7K/d3WGvlc1CbpqKYoxTCl7fzxL+L+n93wuMzXt1OD6nEwcM476pkNpr39zJ2+q6+rl4LwK/aGEhsXOxI69c8Gmmj3i4PXMaFGin/DM7ni4nbh0A8E51+BXXezlnmgO2ev9iqHXvvYxiKSDX7oQuGDd6U875r5N4nuhwvT5biUgNk44nAQpYdzbKGdVKIsFmRMcwLZzxe/x4ZhRXzd5qwoF0reb2W8N1ihgr/Yx0MPlNPWjLdlDsqcfabGG6cnkWoXJ3lldz4HN/qilJ+oIb3rjrBNu6RdU1qN77nraytJ90D7/5GRn/U587p88djBi9uencoVopO3E23kPSQL77kgyOTUMD6mvkGGjGUv2g5hBCZj6RjEbyYHu9UhK1SNRXPNFq6Z5x0mkzuvwOOLOiYN+NY2DeVVjpoK3wQsKQF4yzGFPn9fO4gccaBUrAXeC+A9CvF7JagQDci5TeeVDYo18vaPiwd8PiztxGHcyqMYSXqI/9SI9cOeCUPWhYqDCC3EtJqknFIuSI40EVoRs21HTpixI5hZHZALS+IaFiyZG9/Bfc8tay0e543nk/it0YWR9lUjhfETKu5Z/GkpF0i1XqRvqQehw0J8nFVPa8ahAJX2nKZtcoLR7g/eLRYp54DqVZ1V3K3MhS2H5KYUw/qkw63AT9W5JP3ZGWT2CxQ+RRLO41EJSIw9o17MGm9Oh1YcxZ9z8+w8oOXoLUVXF4tQw8vJMGK6PT6c4OBtQOZqIQuCr3exTAg0wTC4xJC/N/d0Yv9n51EtsV6vH635vwjl9u3QOn8ds314XFH4w7n35t0RV5r5R5atmVHo4osBCPUaU/cD/1R1ulV1KRr4Zm2SUsQ7ymauF5+1mPKP1TN4ppABg7XltyPYrSxqI7P6cNJMzSAMYvQm29GyRG3ZMkFLEoZezWWDziAUJdspNYhUroJHScBjioXLXky7txLVSHWhNaBp6ZK4wE1dVrToKKlWbD3p9MNSo+VyanyevRxzbGJ4vgotDkpo7l9lTny0aRGCAxWeA3nCDD4Dz6TEvidgSHXWDQYub5PgxU+3/ADx0SFMQT2W31wbI6GCB1zvhNrlOvA7ev/wtrBP/V+mNpdO+8/mVaupegJ5XCG4K+gDaZxD9vy8y75CifcbJYif2LnE3ANGGUH6PIo35xXwQJ6+p/TZcY40TcLqY7WZgBGIyG6rnY2XRBWe9DeN1fDcACWz6YI6md48WSwianHgBh8Wt4nB8cY0I2rUiwgSIn9r/ELQi4h8j2rT8V3aHHgieuJyavbFd3igCIHTLkpN/hB4vYou4Wx9ensza0vW8wN+GfSAf+4sO4YULxRcrU0bGgLFqma0jyV2+Yo1hT4jwGWBt1OcrgmSGDU9G1iBvPrq0fVQKnMB/vu1ok48TqnyBhmq41qY3vMVWuki8vwNW/qnq4ofFbgYPMDfWwUhIPH8mWOVRfFUp4ImYHVbrSH+k19Y0Q6E8c4Fh7ERBbLW2Jat8i38Yl+GqUWQAChNLDKwn/7rE1AmJvz4QfnOLmuXx9gBftTpL1EA1HeE4oqlr39WtON+nOCnwQ8alH4Wg2YPdzZzMJVPfyZ6kbQy5Jjh7UzLE3D9X9O/xQQvXK0dDrmjuiQ5awS3oT+PP3xWFUVgOE9SXRlNtqnDIkypOEGpzzrDkn2XobRtl8keYTpFOEBhLU9VqBbVpUCicOZspO0lKmcuGqr+XsCbn3nJ7iysDdDtsZiVNcTLqdHNmKlv1E4xV3FGoVuEWYn96rDCTc++xUK2VA1aOHzZ0pNU9zWRhGXCfDzG318qjw6gcsixuwAs0ArbTLXhqsTzjM2ADcxJcbw9msyHGhG0wwd2eMD3ylmebF3S45vC6rYbALMiW185uH5BX88WqiWAhLJNLRHBdvq2G2kVMi2j8Jz3d9Q3xnRHmbd536nG1ubrmBJoCc/JYpU/Z8kMuTV2yhY8sqRBDO+aO84XGHyDIu2YRFB6/MpsmTj7zfVa9vSRfY+XG106+9qiipkTu7A6gps/oqjJXKawBXnwLWPDN6bsl+4VM4fk0HhXaVkGmFN+1o2JZuwSbY3/DiBRB8BC+/0dDPFdyipDB6fI31YYHbTOwncrKS+fFeRmbBuJ2slpN4zEeJ/KIJyW0jdN+yJXJ+pTH8Suyg3OB0mGXxmh6NGE28GQvlA82qppFHAeCC0sWvJo60J72nxLV65c2M+Bu5VbvFGN9BobM3IHO17Em088CyHrLhBH86CHwB+uXATIRF0ml/vsY9uNZZvq2uh/yPmDeyypE9o92khC9VxtQRrZw9IsV+Hbx6oZkGdmBNg1e7f7Y/UZk3B02R5cB0k0GaO/fxh02HjxZwfSha0ZZFBqSu/62+s6jPotmtV+vFZf44IF3P0uSavjghb0KY6jlwVNimTJCbI1kYMJq3Z15FmxpyXdn3AGXi20yU2Yn+Ac1EeGxbkXmnUUv8I6uUfti7WYAO0FOqZ3RgHq3DDvVQbGYpsXBPxonojYdYR7RTBrnpXVMiaIG+qmVShWHqG+jET37ez8XLc2YNnGZdbJSQylGPnpuRW07Cw7/+8y1Tc6rFVW43WyWj6zgz8wP++IzHVrAWIiSTK3R8ptRoRI7KKUVZFkfFBOiMBnATfQWE9c3L/8B2YC7lPU58l/6zc2hWa98Kk7XYKLQVfnsDxOyeC/KLIxqOprukRRSPa837SaH2ijB1ODOoF0+rPKaRAwiYr5MCoAAA+EuShgFHrA1PcBEznCE7P0qZuieGtzVtID/hWOkNYqwqgvbmrxiR9M2TE3WBy2iNV9WKaLk0jbfRwrdVn6V5wHIDiyP2puawQtrT20Gj8TpJUpSyAcytdZFGuc3pGsngOTFItCwfGDXW9chUTZTJdtYIDLJFdyHHangJFdVxY+Ir6PzKvO1BHXY2aMioStO10B0hy+oBY8q7gAX19cFUpT3z7/0z1dvsjKp71GCc06nCVqvV6tIpiONTRWI42wohDvRwSck6bMIDpruHDIvHZm/OK5zz3tL4mO/Uf/jNuWBm4smOpqyOpFJjdRsl1AqzUy6maxQFZ+qnHZ1PChVkpuDx7yAAe0ROUxBT1GcWs8pm5Exr24QPavS3KZC8wmtvLVw88G6P3y305Oeqv9umwiaBWGpDEPiKUGoK6DFK/7qiMwaHw3D2KsL7gypLSwtntNQWgorpJpW/h0oObTu0JTPVuNA3yFij4xIGr0RsMLy6SI2W7qStPC14EtxmE9yP29jAwjv/UMWni/N6179VgNvueB9eOuNZ4ce7dZ8TWBooyAH3O3k16joPytFiXiRyR5xA9uFK3uYuCESyWwAUjeygb4qck0FWUj+UKtADBQxyf2MU9Ufbb22Jv7NmxCGB8ZnVKCX7DllYFIPMYVd4Ijm5hJ8ph8BKIWrjgSQAGrpIfWoUtRZ+oSAVEDhxGqQ3sPwV3iIVsZ4u5PsTBNkuAJDmZ52EpvzPmPPqZF01b4IrOr08+f/1xoMm/VmYYyKbv1mL06k2AQ9DU3+VJnf0M3iaAI58ZXjj/o/zaczFM7VZ75aznHonsYP7SQ19E3p6dX1d5gtarq6Z8o+naxpeAwhjFpxxc4cln/QP7ltIOAmuDGmMKskilwYiRoimRQ/IoQg81gcOH+1oK6KekskV9YEtkRFpY0UOCSvVgl48MgFmSXebwr+7C4pxKn2+5i+w4K2JRCL8hxa5mCLI1qs7+oY3nLFOPXo0EUqClYXyj0AhyLeirWcDzeSSFLnbxrzSdFZ2tbggQHh0riTY4JgFRbc4eNO20bHi0eNS++nFx9VUpYxRT1QEn3I4HGfMZg6LeP5ELvGR+PPsEbEAVbScaWhQmfIPmNEWa9xmKAE8KBiMV8mzffzRCLP6uIgpVo5EXVhOtO63ppNigu3Kti4gZAZ0yTuZ4tkFg3fw9h39Zm0Ut8Rd7BelzWocUwTOSN96yq4P5J6wJkCznfDSKVaCqH3tRO2xprCYRHGvzyX0Y6TyDlDKmXmr5VqqPsSt2HWcR2e1XVMO9dJFhv/DolMSDWCxlEhxR2Pavzm+e76VuWA8Qb+nxK09nq4EgnxKFaWjmU4CaIr0/ZoPJxZCCWd5nwyMMK2fN4TlEX+ZieWOeYOQey+OE3MktNEBXyi084YpiXain9Iy/E3qHKvqJporKDMoQU9RWDKtjqADuPs/+tChFNQEhx29lj1oKFd6pJuoObq4V55eng5n6WMLeaR/9/SnZWLfIXSy+MTTQqRM/MQvjclQEWDDkCz/EY8Wp2jIvwTuzpvKlROV4StpvDzBKm517G1ode/7Y6UFppjAvjLHeaIxmSLabhpOFi4EspDSOq9hpmUii/Ek8JjQDx9g4NFttyYr3Jo28ZBdzmqiMN6dcFnkV9E+yCE+EeNYBO3LuKpG3ZUYuJHFUBnuVkWAojCZnDsUwmQ6cO9lhknhXeM0+4McQZRswzjWn37FMXSOxAKOJApeNWqLsK9ypr0qiR/G/xO0wAQjJKR+0sseAQ8U6gybqiUnC9Vx3f0cDiUxB+pUI7ep4L0LpuG/OwyyhHxSpXhyXk9PxfNpGlULLTRYEQsZUgWaaFzQmJnStJk4Xmeoh2TVUHZUo1b/ccGp2sW3Ja5LAgFpYJHr0XxkE5w8VymMlnkiSM4WiCcbU9lyo71bJdubQUODcutgQxQnuIlsLX7vc2J5Otd1BwzndUWn24hD7rl+xfzw1MFyQdGNA7+f8LirI4u6mM4/2aG81Z+ZmbKnqzWxPNGBvr8uSATR3wm9eEwG0sl4LmZFA5on+ihvy+bBot4lQq0NfQabCk5iTXE559fKdSGAVurRFGfEP8m4MEGl5Se0c3FxBznifI8d3EfEbER0ZEHwNgndckVbsQODhYeJfDrZoWx8Hg9Qs/aKICXkkk5x6KZni1AaHKTDmp7UCI5iNdIGj9B+ycm3CFl+L5GuqfRNVSFzxvs4vFB10dkNX98ZVssgWNFlZdPmuSOeIjIizgC+KkPzZiTC/YRzP0LPCwplRTi9zl3Z/EjiqMurE7LTvVNWes5aDNnkO4VhBh+GA54i4//YTMUHicdxOXYL8JB3wvfRjtMbAT3DjY4vVtyR+raYqWcp92RgR0YM0MZ8AEMo04HZ/+D1dWus4PaeSWBhktM/yexBAC/pTimr0Kdvr6WhASN4gPL9gv2/hs9KgGfGoBPbWPdFjuJ5vQNdFgONMkrC+wzPM2IQ7gndR1Fc7w2SyugSdD+zvXSgDxe7Qq6FOcHXynH58dnYAxnoNejulsygREP2cBigJTkmuuXvF57Smo1SssawSTCxR9gM5w+4M/KGJp0XeCS0jk2WdfvxK3iUkje23jKkNoW2rPI9eElKgqGIshub40UJs6Z2AF+Z9tlhgrairP0qUsZEL5NEpLmXQMIKtXUAIIiM7sE+D6IQCG1Gh8+tj3iFGa55NDZTguYHQNv+VuwmrPZqoJIGNSyg5I5U79ytdr49EVJYATT8Hh/oZIqM6I19b/IRF7MGpoZyXLGU9Lk6i0hDywGM3PwXLXxvh9pKlImyfPZuCZOR21E44dMEVzngJAAHn9jd7eHc7oU/a0vSRCYsNzRuPKc6kmZJM2HJXk1xN17FPu8zcwA/NJNDt7wqVVR6b9NyF9TygFxPBNm7n2JZ/yqKdPKMZoAPje8qIJIz+hSjbKOq35MblSC1FJPMJxA1woQFdSd/qqVFiUgyYMBAGAC+zboWFBDbLDDHrLu/AaVRn2CHhRNkYBWZaXCEyvmJ6WDp8JlA06Hoa8NtvvwoResB/TQMTlIK+wBcPC65uQROCobnrTjwBYMXmHPGPNgvdXsMO8uCOL2YNVH4X7PDlTRWkKyHa+Y/6by/kNuYyiqbuVgCRTC6P86Qy4BIJQa7hL4tawuvcFk2wEGzpurnv7xjltFMjanDE/nJooBTlpOys4RUkNTOsarbDNUO1AvkfcVH2xU5ArA+u3fUYNe4g5XfBeyR5Lk+lZRQFZj+okxVThwm/uV9A1TOkB2pg6cWpnQaDr8IMqCowm/laaS3Z6f+ZUBhn1Pc6g9uDD08N/XVbzKSGlAmhORpN68SlL66AYI09Zg5qlyH8iTv9+fzgwcFHemqXpPLoLDQD9PadegNeoJPIXSj0br+/zpbuMO44B7Ozd+9Vg5o1tGp8ZSCfRrX9lpz2ikzFNhelFV9Caax8spNep+N3slTcotdGOIgz5kcXIN9fD31k+sIMHV46vYYImMXM5jLRnA/ff8YAS6yVPQsrTUcbWGm6OqeoqW2Vx6C7/eYaq3rQU+NwC4H4p/VSdumwklttc+lHay3Lp4Z7CavinFmbx/VhgSTeDsYFGzpVtx2OzV7LCjzntOO1SklQCQC8PHE1ipAgEDNpdkgFv07C38rk6D7n39DJsUcnrlGsZu4uc4AGdbyWLk56ut6jv91/vbw4sG5gPclSaywNgZ96ZbFjJMoZTnCvkRryxk5pxz+uBXcZBgVU0UllZFnEdX6NdbYj0vwT40UabgMFyEex5laxymPLSTrukfOSwIgoWSQpYlkabEtsLK74AuKBo+wDyg7hs4/02EJSDsMjSVwx/ml9ltgWlbP82ttiBJWEkUGrvpOOEVIVAF8LpKD3tg925VR4iPGLZRicG1AMDKjRzptjVb1z6sF425mDdpvu6EvA+h4YPmm/6vtA9kUA8gR0mo+mNSH3MA/zbpcHReM5u1FiTJTz6S2BdrpyDzdmT/jszmApbHOQctgR+d66XSw1r+xP+5P86QasyTD22+HhACDo8pXNhDcRvRTBQ7wIptA6XenWV7VzQ9lY9XtNNwCKE5sJ9QomQ/HPG1HOW0QtyYcVAXBtkR9wJekoBKSxLz4/L9NreO23flhbJmd8ewv9TV5LISw01H8oBMNapOEOMADEIVzDiDbdCBJxLq8XK71le32tG24JrttbADVfxZZ75Q5gn1RH1RW7XjRX3dR7HcUmUTTZMBGoJcAEqmWbWtQO2Ut7oOhMHA3tczhz6rsE1svlH8BrA4YLcp8B9/fZQuLmwnaEbQIJZcbBRTMtYAbnbh5WGf4pK5HPs95nBLFVRGLFN86IXUtM9G0mY9O0T8cwxCXlAnIfWsSrF11GlmRnpj/ZfmMo5twKPCektPtYViUDDOKrr5MlHkumR8i6N67ZHs7b3K0rutXs/o4qU4Ttum76PnM/QSj8GO7pCI/o2IG1btKLWtZ8Xhu5DloZHJBnrVgBLtmrK1GymidP0c9TXKCPlUTiwsezezT82z/g3MedOnAau+7++dDPg/XOHSqJxTaUhe/IhQnEOLiF6Fe/TYUPc+Gl8hj9+CtIob7N1yh0TFL02Z+zlHRd13aTOUtyPZQlja8NWwyFMEooeX77QsUfLs7sijtiF97naCLKD5qfmEG+AMfRLDL+4D0aYaJi9OrfNe0oikJpj1Id+TCF/oMg/O8pLS3ug29IEw7R8T6QEnpJnw+gBsBrzAJpEonA60n1B2HQggCrmd4e7DDsCaPt6vYLx2uFjMvjHhg1WvhqywUSZEgzPLHFlekkH9IkC5UC61ZlxtUTk6YyRm34c6kmXtEiEVJNVkEgZKHAvnH4E9go09o+0aaNMhjFQmFAxUlC2u0ATv1OaBXOMKz/ldjxLRPJdZGbqO1oLaRxEslMSkne+gpDSltT7YpxRPjc1VhmFxzTCEof/bcZZSZmSJCXyYrB7H/ZZkt2gAQvGplO9elw89hbu9r6duBrU1WoyZmsuIZO+9HMbZ9h/Tw40GkWqHDTonXzlqHMyY6yCCbl0EKf4FqEmXhBQYK9Wqvb/iBWouyoMwS+TLaMIfQdp9SAAGMY6b4xBBkIB/Sw1kNfoHloSjG17Ec97qeLSmfutBVVzNP5CWjZI9+GNLaAD2lyFXpOVeHCbvvxR+cLk71RP4o8V30iCjYKLBZKkH3VQ09Q4RWmgrrsjPuNIv0JS5ZGYUmCdrYKUTLkkWj+DJ7wHS0hnSNyVD8uo0XrdfW2EWQ8sMdvT+QvCPhBKRF5yc7xkq/KUN5Zyml1a2tZqvov24g5H9V5UaWlYW7MGAl5gdENUG0W7AKxXeWQ9SNjVe5PwQ2NrBv6Z9pe6Y0yIJJ9nbKMfPkBNOv/SBz0SUj2fnzQ1MG03VYrBHasMEhpSnMAXjQxTGT4qHRNFMYfuMn680I+ckP0Y4wXcElwQL21a1eNgFpaoofvbgwOTapnzh3POiwxkbn/oVDzykRUGS5vAt6kSJH7i3gjlPkBcQyh1mzV2+mDgldDMv0G9G9pdh+ecbcGJVM+tJKHhkWhQnIOq1dZYOsKWKDXMhy72qPVHHB12zHNNmlv0DSJ4CsyPjDT/jIfr8RISoMWl3uSo/mqXYPUnsc4KWjpZdAPLXd/ciRjyk+cnJTMeUZUUXUoflIi76ZRAcXK/ocDjKHZcb0fHxcijPen7Ltgxc8ueX7w6wfUxx+H9kG5JnrURpIB/hzGgnyrDTwcF5iaHIgNAkhX7ku7+wSuyINMXDELbnoHBq+sabHtnRk3Kt7dZVFiY0ssVCBDTICqG7/SGp7n1HJ/xWJsIFhpQIrP3X28jy5pEZHg8WTidp3NgDes0Viy3uV0RiVYJOl/lxDmN3WNuQhvYfRsLtFzNX3/CVDDfCZA+90HEtfQb2eaxtkGZ6lHX2QTMmlbW2XHo+/xpeZAxDcLp8vEW7DujUHky2NFx4DW7vFZ7bowhelx4WyLVkdWEU59P80gssLAISnb0oDMuXNmsXws08aYEEG+5seq0Tm8bk5TcuOU/ByzSqANPlQDBiZ72IHtV9SAxC4u09bopdrNq2TNzKEaJbmwb6l5AT1mbBKrryAVBW2hofrLyhBBaiAiFLzoPiRvdsaUtmO4d1p80qUDeo9tcU3kii1OpDOPqK063QQkhI+nstTQHznIhHK71J3kyo7trpVIa1y7V1BzzZWI9RtbixZbntAO2kMdWR0wcvlpw98FzrLO4wmRXgRUpCgHX4zskTDrXqNqZDkH0NSNI519qPEqKPhQGmidZ7VWSL01P54bzL5g3DTdc/RdxHCAsJIuNWobYoGmv/afzGWSg4Ipilgn5v+xJi59DIxKDbi1AWNwEx6yCsH/N1ER2a0kuLnYiuvC4UbT2eRZG0y5WArRiqEe+nNZzfmsmQSpB8HTkooG4UdTI3Tm156lLB02KkDv5FDLsWH2U9pZMiUxDAW1FLeuatamapZhc8ql/DDi3Vfs0SqBKC33lfIWLg9XbDf6WcKfyspoAAfQzSY6F8v2IiC6JeqoAMgk7BkyF7K6Gt6wPMPLbWxaspmfsSZQM4qn/8ZNtAQYylrCn2+zWZb5qXuymY7VSlJqXd0Ic6rDjcslAJqHJu7PvAC1fGv//gJouNyazpS2/NeGRAHq0kBrh7euL68lFAlHBYL8nniYInZNbGrHT4rplHo50wPrF+Fh2RgehPfW7jvgWx+6Pe3yw2Az1mUn0DLUE7bedB8xl/1MKJUrn8ysQ0TSz9W7B3+z9ozUaH4DaK0uLdSI7fF8Is6SEoHSJEkKWjDekG7UojimqoNLjq77/8NnYrXZAP6bWspAHqlthmsqjZJTv2cnJgofnZzpR+zC78zoSN9ScivqFr/2uxC9TnCsz+Hf84bpYB51EmAUog5b1dexd0/A94dAJgAyISh/ArAQquNjI3lJBn/LCh/gU8CWnKOCQG/TK3ug2iXH7ZNHPYxGc+Zhp9E+eYQHNQZL86+r8lvSEsMvFHvwEUKq806enEgaRKg7nAO3dV/dWpBbY5X2wSdpKlgZouFWPELNf3f8Yj8jq91/JFPpf04HI5Twga7tildbF7JJdp7UFUbje4GWMedDQT6sXdU52CSSBeK40D2RXitvK6CWMWCFYreT0IHqtI91By1vAuvNzQoDDf1gn6Hz5QSozfmN4iF5hQnNS7IF1ykr0sL0TH6EKnHPhM5o2la2omd2yds4AjYuRP9lcJt+72+ZKqi5A4T31fIiAa8hREBXVLlcM1Hu+ACV1CTBT9DiY71qs6Cx5xYjRIdxZoMuFJrqSGpa3k6JowM8vqiHJEfJZV03hdFno22tdKb5J4ciu/kSjBIw3Pb5wGSpxaBTIBA4uGLg42hlbFaZFzlSaGCotWWBgDVVpLOC/yBLdiMPOZ0U00etLnQdV2/R4VUZx5CZzzKqdo6w2K2IxVnLy2bt/k9YOFKImpnPiiVXbsMILQZE6IAgDb0UAUIiXvS6mVs2Ogn92uJUqEalrom7Y0MFVNyRaDJiTdr5NfrNx5Vyv/AidDbfDPO2zJdS7eNMbbBFhF6joU6uZV4Vmoz+zMDT0K3S8WUTZqpU+azZJaYSPQul0Buf7r2GE/iCBm/8Y1E5BSJBh1pqpY4mTSSBnsCrPhB1aBPpBDFsqGUW40AVTV1Wna4DONMYMU4AAHa/ud81zxGRM8MvepEBHdwoTpxpB2omAeWgteWguAGZs5+B7NeA0VCpawQeTbf/+txh9BFKbp475PsKnN187ANgDwfbQUDoTw1LKzi630/M6I6YqjPSrjLQTkIcFzH2KC2uHsg7JIU/VbGgH6+0K9w7o6JIUUFxdYZFaNRfH4sFloU6NItD0D6jS0PZU+fMmTTCLvnlYK5w7zzCTOYlpgCZInb284q61gekXstoZNoKkqK4DrjHvYTSWrZ/kl9+mh/p3ervznYrlTeBg191uHQBSrFYKXxz/dsVJfoLSYtmwiKGkqzqcWwtThqjUmipKoyKAGOK78kYZcjp97NSXPCgMiRmnB1Pa69Xjvfao5aCCX/q6mHgU3AXiuyL7UZqypbgQBZO6GHROSDVQDOHaUO+/h0kG9zFmR5Qj1bY/jXdEjrkPuZKYbQfSWhxwyT/f/iULqfjzU/Vz/a1VoQ1GRNXthzr+Lemf1fsBp3Fpsd0n8vWVt3/gQjVHsPwfFn+O/kx6EX02l5tdVwK9pwDk4VhyIQAOWQ5k0dJhjTRX4sFISRYc75GgXIDodL4NQvNaoBhwhg7NOrJUl+LhbHNcsfqSBNw3QcCP05wUuy9VDYi5QlFnBFIqEQDdhzG1yto4t76EfWuUUjX5mtlQrY4S+NtmEismqNhRdU6D2jVv43UcenuvWM306NH1fadVAl9GDR6AkuZAUQm2mUQhYIj6ia5XwnisYyDrvJaz4f8m05/TknlHXRQ8LJkvW3swza5pudWlVTBBfDRPOkEsG+OSXGw4gFnufPUsFoyANF9yXD2oZDrAJ6K9GGiYR8SjLVjxiqhhT5xIdS0SMmCiDuB/lRimtAm2gsv90WBE4NsZg0dBxPlvnuKW686IyDxnWzRBSFv9oBu6bEHp48AAhvJEFTrGV8CNh0fws4uzuMj/eLo7VXMatZ8pSuv+qIywWA+pOF7DAwS2uSuEVYdoaJ3KaXPjQqPxdrbHbWZtbbp1eW2yQmX+7QJ3uBX9SUB+0/58xnINtNkrbvrTnVzZWHwEiWIf0EWn0wsFwWi6COFuDTjl5GIjCSNht+IPGNTU5Djz9KSCIjYfGfoTWmXOu4QRStZTEGVdVcZPUcd236tbbufM3oiU1930rCEYZzNdOrd7SxUGHOWbK4NpBIbs1/YdkaLRjGRtCrJu7lmAqpOYd8xOKCAUrlXFEGtG9Ecm6Luy/EIHmV/7Z0+SjiucCFWtrrERkdMKCIhFrWNudfAeM981XXm4ZSydlxPFsNXIpQADC9f7xZbSA7vMQdu4VmuKETmPNyP3Av6emqpAvq2sjT+ti74Yotg6mE0cBgF0/oMDpiAkkUDUtlQTAAo0H74MzbOf5vIewnCwDCrzlsTrSD2SuwvSoDxRU3tbvh0trW+ydGrjO1vyV0YaCPERITie4JUl23ig3ac8OzfTRdWHppO7GWocK6p3TkC9k0s6kYpKgE8KFO2UulpAF9zEZhZl/oUWZlbK+7dBiZ7s3LAfXcUxpzfcDAM+qgJqxSrIf8YhicDwBcw8aFMBNC1uusRAHNtqGmhxBamN4ZOd0qfqJK3jlJ9nRhRrwnhcPXtsU96Hrm1Bve3BiNiEsSdi/4wXcK6KSJKKLtAr6LGtwwnTxYbPml10odvmupVkghhTOG/vtfmUZoLpjYnMFNbvLoxjzYQFa6cemt0htd43tqbA4yqAFLOpqja1gLzu+O0Fkb4A3RSdiNcjMk/9Zw9EXJ3ROrabYjyfD5hiXWJZAUKSXbuLOcuxn7Et9soPtafq5qwUiiRHEqks685yfovQXro72hbevVtppox2Y6/2gWbKRbeevCtVS+PP8K5B/i6tWepp9q1/TTQORjMNRDCcVnTB39iGoa9K6VrqgyA3+80OKOlQ/jimICeuNVLNIAlE0N2fCID3jJT3snI9SHQkgp3ht30b/USm2KuHtweA4IKPa/oaFoktY8bY4kOuRHLajc8ESq5vf9SG/fMHLrrHV7Oaxh1X7mwmZK55YcZhsY5lI/XfPLh6LprFIj+XMgCPEFNmVl8o4i6x28Jwhm2Ub8O90k7mMd0jtonfXcfQoJnuVimDMdTPiCzZtzpj6J/N7Qy4NUbIXgXAxqi2ufSS8ofYvnRejgpN0Eng53WBObY2m7FoyBSLNujV8bZRxgo0RPHdEmIWn/iGUqCjWbRyCruh16lp4JaKDJfRyKm2offdqjGMgD4m006ftvL4w5eZt03zIDUXelnRydOoTsMtEJ1kvJDMfH2tgJwFuIIlf9mEeFT/W1TgVUXzrqBxFuyaKQnZFi95tj0s3t4SbTQKXe1Q444Igcns1nG+P4a5dT8JRxY9S3bi8e6owya+72LNPRZBw2Xy2R1idTV2NLwNDMkYJeKJnVSYq2UhwOaWXvaL/f9GUtSYCinJsiWgkNYS7JEa3aXrBUg47Wx6Ewcyz7oRQHQzkYdlyFEPUBd0pr04mgYoG47xGztH5APhDq6wA6f8YMKNspIf3WNMEjOVZ8F2SWdgP1suH5ToeF/SYeXrwantHhPMB+1V4gnwWH0mNdcy8gSpAZPewnjbrhNPymb+Y2dX8I1gkxph+crESE5jTgn0Uy8TpPMaxmVl0HKdiPMaEYtyfxK1vPigE+7JXs6ZtHfINlkr4SpYDeNapnIVguDvtUD5OEaWCsZ/rvyZajx5pAEsmePBtCIml+WBPO9aLSJSQAl/p17ail9gpVWtRQlwnOwWCyFYgfonnVd3RElUVMut+0MZv8l4Kjk7OKIwJMvrCNT+u10sT9Z44FL8HkUCQPzG5G4FDHJPv3qN6u+ASWspcTE7uIK+NnnVrSc+rzLuX5y8hjfbtk2Hh+JKKAr0XzXjXy8uoPWvDrc5CIE4QUjFt9gUR/SfbfQs2po74PSDGi9QRKzPwsjD2KJdao+M6Btbpa2zD9+eL6Z6HKvUjv5FD/xa2WOCb/IC04OJWLXF4tO1sLb6dLAntETMvVVxYlSAwrEInNdiu6KStKncsxQHbJBV0P5vFcUbPoXN7IZrIn+MyChmHPfUhx9/wn0Ze5vI9Ahccm64Z9rcAbmQwxmYKn7StHa8VCXRQc3ezmgYUIJjFlqmxwUkiXFj7snbnQlaTsm09ieFIRTVOO2yIuP4GwuPOdHCgDTXu/+GyYgKB1ig1AXyfWNIQQP8lT2mMZYBqND19e4E2cWtZUpWpHiAkCxWtZc8UsMvjM79BZG25ondbNyW9IIfjHd9Jdym9k4/ocUNOd7cRzuSytDzoVJ2RnuMBTUFE1NK99Pn/d90oVJ+MPlBvARZpX4hVYclXg2o1+w0KGLOfYs+bsiT0WULR3zvV6fabrkapunjNYmsMD2pzKcHYxSWcd9APl9DC3STjLX8HB3HUfx8g2Q3uEK77SkfhY8HDcMXV166OJRgMmzTzTdWNXV0E45Zqca0ascS57RIJPSlkHX332eCa9/O6Ef62VihcpRuCMItudL0/e9xqisyoY9cEkHdIMNbvO7bXEue23bBPxSVo1fso5mhqMJIJOWvBQrVe+LKNB9gY5GzJyuMPAt9HPGmKevwZjSMmniKD4Fwj0pq+NCjjySa5VgbP5/aIzbGQerQDszYbzUnvrZ+OIYftMHvi5bdd50moxgiDpWa2INcE6xFiKB9ciM5GX7fvnDdbc+B9xJJs0LeL4zN5c+rPDbxu1qtm/rIr173uG0P4hTKQL4Y4LtIUCyTxdwj/QOoIhiy6yr0imvt50IXOybVNVdRvntEFQVzkQbCJ9fJZgxEU2phOy9dkfgij4aS7lxZ+iER3b9HWjD/HpvLvOJpSPLdvVp4vOF6klhzvH9ctIlwagYZykqWdeam1T2lFgN4GUVq4hIHQB2aFWGWdtBkiZRkVfEVTjtEu231o4HCAy/HIqQIcfiY1MVpYw5fYWmW457B4uHgb6IvN1p+iPVcjRsnW7BN9pFW0Gze/c4tigDhKmpWCW/U5bqHa3enECAQMAp7moO1eAZ28KURSpjx5OR/5weMhzVRhFZLX8u4VCFCraTXR4VPt8J7D1C28hQWH35rIp2OnGPbzvS3zc4D1iI0dSEyoAcVZDtOAzDk4sTwLZQCEMiMy8yEkGWf+2VvjHuaTpZMsRb93R5wnMQCPsJL6u39AIupBYp1lpXLjJoHlnkOflL1Fkl8AAA9h3s654RufwsKxntd4p5yDYkdYMIkcoEPM94hPX6494g1J9SBDEvqrhhvEq7u6XyLICZa+aHwq/OWcxc0p/Pp5nRQzXG7ORf/9vcHHr//r0T1/EazecMdldA1uftT3t4Q+07c4dh1ff+bQdfmVO61fve77MPX90fhsdtXJ5n6I6+io3uGVEHXB4UC9XbQcL0I5+TbRxdmx4oLtxibgPVRq/5wDhzMf7h5LkRRl5TeUEtgZzId9gqssB3SvnmTua3ZZyKItz+Og23JICPL8pwBxVszBt3wCZMmFwqH/wfzEe9VPwK/QYTV5zpDEev6Ssqh4lBnSbEJvKKfTFcsZYhD2Biv6L4HZ+iwqKn4PZF5uj8OU/T1XXzzaEIypvSapUveuYkDFbmQicfap/efHBIUUFwMHeiS3tuHS1x2N/6jvc7tWelIDaiybIVkw9IEEg0oojmSncvLr4wmiWy57GkwZE4X8i06MehSIiG9fFEkfel2097cE7bywW3lJ7d9Zpq2HQ3RoppEXK+tX/feLjAOhF9blskYP3mkSwxjre4C05m88GozvlAI4vfgfCCb4n41Z3+9cqGBQhkA9tWruAxUjWhe1nvvApWZSJGQdAX6iYWTTkLSpv5Fq7ucgpupi5hUJnwbyzV8tp6lXZeSOJDasNaCB75Y1nd9mLQLSuQR5SWecnBKX83FQORjFOcxk/yDpWivPQnOnSps5RFs1G6e0BL1S1hQ+Wbz1UZuflAu2YGsxzS0IRyT0XKlTw3EmunKvXxRhZu9Kmu9cFeIqzQICA+Ycx5sECQ2RfH908NJnu7R9NaFj3OUr715arHA/IlCChFQ6bidJueseIRM+ZQpN4X3dX740awlI/yJo4ndkiEhW4YEfWjAfs8f5rGzGssGPa5B/6WqroxpCCyhvOP/W9vVQSodfogCFDgnfT3iUgzHE+EijnC6louYA+hiZHftEDfZ83uhaxZep2n9Dz7irfow5RF4MNweBGbEwPXDPZH1+9d54nJaXk8JaFvT+X4NdE9k3evrQnT96y4vhcWWXH6Hx396COs3tdeA79hRmn18jREdoEBjaBjRM6eqcKm8qYeFUjopxk4DxRbLL+5lOvHTG40d9Q2+VABYCvIIg05x0jcc3vKmDP0Bzs+90XbA+ttJT8jXiGS0rONl+3zOCobJsCIdkj9Bud4RV7Tv4c9MCPKzEkLSUOtcUSZ5szX6R71Y599vdWv+3N3zg53wlUHFvsIkS2BwqE1fTa9N1eWBHCDJTJzxLdzRjbNdr1owdhZn5kSTCg2/zwyeakunm+pDE2zW0mSF9ihv3hMUaxVsnU53F4BuKSLWMULP0l6k5IT4wDcZEIc5K+E+gGCK+sNMCHZ4QjczpQUCEvZjxOYZHMYc/JomF9cxRqkSuVNNBYWICBM4H454aFtlnIHCp8/90xYARsraVcD8fyoggJKjXrjHFXFDDZPKHW8j7Ch3Y57HOBCRVzs/9T1VksHSKSCwEQXBVLjFjFjWeS9Nc8OVHyh3QMvZFfescgAN/aS/XvVjfKWHzvS0h6YYDi6koJWyMbLziNvGuB/WQRRhRt7K/kzNzEp+2FGuSH67i6Ezrm7jmiGN2FXSYvXACIY+mDR6DCZJK2lPcxhzVWP8W67ogcMdlflyPVxfipJSRsMdHHNPJ7+QbObDZ8LEL4Ur5jMQsW8UkMdL1WjsyHRq74hKkwQ9NLDTiZJ+ds7FkSYx7mINkzzOwRrkHDgqMmuhhhhCqaRYNPW2TriTf6bx+Sj6XvWFXKuf3/XykoIYLEMg/YsQyaQdWMvmdMgon6UHiX7CO5qxshhccHDBemQt+1Cx70m94QP341nkjs6Rq+/MOZTKJ4wDoTGzgt/poKT1qSn53O/veOVTbw67r8QB8PejMJmz7OK9YoH/QLho2pj4JNJ/IwYse5iSm8j4DI/OX7E3RmZzVOHeQIIV0FoYKaErrImmZdYQy5ugN2uiyOzQqSRyNXOKZ2djZXa5bpHUY/pgGnvp1wCaGfzEXsaVpNL7N+6DjCh/ZZVoZDW6ji0KhCT8l0kDjqT94tL2k/z7uC+lC7k+LaGvSM1WRdd1bS6R+MeOa026HGnL1IdW8vWDPXCqiqgIGDkdozTMD7ddgwU3DdDMdZGQuHna8m0RyoaFFehXJpI1c6FXn5/6LkWR92bloShiAr2tImKu7+gZyOGOKrUFBhufnEbd4nrm3MojQnQG8hf/LjkunmDVkiU9QjPuceyt7nNcdHH9E1/5h38f/9cpODHUNPTLN32DCiJh5k929WnO2WO5E+xebAOBmrgBbgIX0mODgU1YQGxCAHywO3kTiNK3h2GFocjb9EqgkVJYKcTubfPAxV6r97sg1ZMy7ecbTACk4Pm6+yBzNxUmY629Q/WGS3z9+t3VFehQdPHqiggJ/TL2CpVOm16kMWyZzg8BW6PoXY3G1kRqEZancSqvxGZwVNKuAPPdUwWGZiD6mwO9nXOpUjAHGfOOlxln8Ht3k7hUaF7/mh4sqijBfshwsoKhK9iUBeYL9vxkoXTeVP15ey9sMNvlo1AGBBXzxX2CoyXUZlTp140AEnhJvCV33J67ZVZ06Y7jL5cIIXLbkrqiEzwUvyqA8GREDAndmTUvxpoRvN8OM6u15qV2fVi0Q+sUgfyK0sOWcfad0LbEMX9GRpsC7QNIpJeDNdnlMkKl5awQvk4hKzkkNR7ZeY0wcM/qbfV71BBmvs7GcJkUdIS86JF98zAp/qoTUmf4k5ZxTrduJlvoD1SL28fh/qlkxKP02ldXQxDBLS0QZC5N7EZVfJ4bwQV9Hg5WWBAIo/+jTo+jjGyQ0Xn9hQdS8JfMeRrSjuyvL1qsgrj6R6TB0GYVU63Su+IIM91/SJb0ln0ymfTCVhJyZm0LiZn64fPY+CkJaNSlYXNepuDF+tgZfKGbIO+SFARIc49Wxphf/7BGwR7EqXI8+AqghZV4eLN6Nil3DwFi3fCkzeyahEzT88GBqfzikmVGDP+RNu+30inZ58lqBYP9REUQNrAj6ajQoMax0WY56Mb9lz3ADaWAx0hKAQzZjHwpFM/o0DRiunUKlCpimp7HWUydyZTa//P4sxXrh4XAB/JEkvJEc6NZ7EHTXX0bJ2VT5eVj7jmoguQ2hN8t24R1MhBzzyyii4z18hEC/sBQ/vyWI0aVHMfCgMMmxjQdsDBBqRRr4KO1nTlH0eBOCakXv32SNQo1Xrq8gLYnP61xGypUKfzOihsZmQDsRgK7uNeIy0l4nLwvUx/RP9+dDI5+5jXpQya0QDo+47UnGVS2W9Ad041q+NP/t7C9GG9ZjE5FDcA63cPpEMVNQplItTyd8Z/a0xWQaWsBE/aG6/TixW+IPRvZsv1UTOnmW7VsR4gPdaRKsvzeWb0LTo4b65hXcNh84c2Khr1LvazlUvqzD5ckqXawv5TMJohr9M8eRqN6dNuv9XEg1/kKEfJdS1AElWaxvE/HDvHihZkg12u0+T7V4t0XnlSu67Po/MaU9Rjfw/ruIJ9nO1qoVIMMYi56J4WWb6hsNGSQZSHRkqUndgK8gIIaX2RQ85Ar7kzmRImEwj911+N9p7gpxbutcyJ4khS1+kDRpQKAKOh0z8GFd7LJW3+v7W1TjFV8FFIWTRmeClAgjohNt3KSK4GFUFdvL6Cf0QncWVUwe2XyCf1I1DuG1GI7xx7wD/CPlnQ1yquXxXHumG9jOype20+bDsjLoV5Hr8YHFHRiwtrwmq2/bVDtdsOf81zNcQuXhrzd71exUBPHTtwbSpk91/Ls73NPD19rvaTG/DYhescBNlE5O+aaSg0meuWTRdV/heZpcyy7EwNgD+jST3wBHf5m9jjhlWa4rcfks3YqxoIhpl7RB2Y3IyEnfPVCL3WVTcYLm1Ir6CSPwiHDvpPTJ9cE5x6tnnTaTpQ6sEuj/maBzsddw7TGKputG5mjbAfLYNdS9Euq2lRK9Mik3CQkyl/CTFGPpNEmgBTfidLCrwEYhNpeU6zRMhoRF7eMidau8OjKT0sILr7LXJQUj6Li52RMxwuMS9GKgR0y4Oh+u86bP0k5k8pl0LbksXGuh8ZhcvW2ZrCfoQjWyYJwObroSF57FBjos6oTywOQEM8wXIDn7f9tzGjTOt7vwTCLZ5PyqTd0yAtGBYW7O/Obh2imcdoJJfwws8Sl9/aDbwJOfjoqVJmCXR3Ka5szhnXKiO42Qf1p5bXOxXDHFOPnxYWQJnQZPb4qPOk7XZy2ltGYDNeKoHJcMhADBax5lITudl/2wjFDnXomH6DHsCFcbrRR5SnaCxWOWrnO4yN506MfEl88RkAT0EuqWqCIAdck19ha6eq/bc/sU8o2oztj/BE1bKRlLKb7b892jUC3RvBenUisKoMZvkQEyT/ZJlCduF1eLJX/rPPN4zCJ0F8b5NvH3X/N6P1j47CgEjsmWCttTKOR6ZbqexAWFXaRhXi2kRFmGRdwRldxZnvPjI3feiOKoE7FQiPcCZvLYGVqXf8AZfmdBGfuj4vy0p8+NZnOX2ppfma7m97h4+PRH3vGA38DT7xIMDolVOK+EAbY/Xp6tKaCncq0ATSigL193l9sFbhmF0k2tOgbvWZgAPZKxT+JHiVeHaJ0e+d3jMKYuPGBT3drDlfZRe2eRux5aBJxEFYHAEsh0+Qix1skeonoTqJPscdfM6S4R74++RTQaHMglQm4irRLBJ5Sv1tCbyDFxquMReuFVnT8BgERr6K8fL7B/f0YJimobeWvAuAcYyoY6n2CsoK9KZmyb674I3XugEVFXW6AR3HSUKGuXzBvi1pNOGs8FkXkyoYIgxx1Fq9KZnf0d+VRhvhcRZBhU5N0KEtoquuKpr3r6fiKvz3dwywDnzOSUJBCeRpHxxVtlm7DvpMwSctNN8rotq0zanuElUEvg7CoQIdUh+33X5Zuj536I2wA28Q6iJPmhtC1sG4XTtq5Afld9r9xp2qZmkZo0DG8Mv+0jCeXuSoOXmri+KvT6rEK0J6uxP7wT27wDhS4/ivilU2ap/QIzwYeMzKy3D311bed0NBIqSwU4nNDocO1Wgir8T7bsg1VzZT8ho1Lnhxw9UeoWeG8Mv+1FBCsqSwU4ndNLk6WkNsuXkn8QHuXB6Hs961F48B8O5u3H6PsNHQu42jn+SuH5dM8j6MVw494ALl3e+HLGjz/hCVNl3FoswW1rCrGhl0Xg4RDSrkgOYfaXZ36I1xNRtZ7imxxySqpNkMgoEcwfq7axiLwaC3leNNz6iA1TtDFF2nM7CPVGx3Ir1XjquRynesu0MIbAi45+o4RkhbrEFyvMcHcRALfzsXCnYKBIVUYr3rKQY0v0+H2wrYtdSOXD9wtZgThGezatbspV5cHJSUO7f9EwCS3NwKCDulOjLK6SvVEPEMzrhiNxCmstZArMRIaIVaDjoYIt0KoHk6yDzO9zMI5hlEEqLnpjDGweBCo+CfAzSCxZJqgV/ESxp0g4HqxwuZlQUOn6kyLezpNjmklzizfawFWyWKf6zqHfoFce7AI1MC49hY654AFIlz2jL6eeJzEEE2rRMOlc2N1zf8I2r6wmiwVxqHHVA67CImGE+ZBZ9TmeYC+i+GBZiwd0FOREi6TnCIJHZraVUQnxNR9PX2xffKgSOc7emnYcvD9svCb99FYAp5M5MWx/2Yz9CEPyg22aWXF5Yxu6DTHgKHPbwDmUW9VU4zylO6R1lDCD7abqYF62bXkPWOj5bfh86/farYZtgt6EUjAyE5CBEZD4FT1dEcuEZQHdphRNl21TiGtma6u/kRYadvqlXSt8H+dpkbY33OjXlaYcJmqhDev5JA2Cc8bKs2dlHmnXLS1dbUSlig7wQZf34YUjhCbdcjDLtcEG5QwMwgAOA2f/RWiCoBIGR1OBX+nY5Ys4NvGWihxEwkYStsBIFKujSK4Yb+29xt0hQStIzsNf0t+10jLAkgfsyXS9Qqahkq1k7yPAkPkJw2gmQozibOr5keuLE9SBR+Y1YVMdMCwox93UKL+4vaiScEBoz/BFVFcaZZABwvEn7G5kIqTHjU/Psce36LAXbL5ja/KwB/j1SYlmUX/4kjDWkvcg7gvbloTW7mz7V6w6aQNhM0dgYaPaqC8ip902sJYD7Z5Q3hSo22yZ6bDdziNczdoBNABwXo5eqA1nP1UxVpBs1l/spXZtBMNP1IS85Y90bVX2f1BGHwi1GCTyqxm57ESBrgarvL4BlkUf5xlw0g4wI9+DGD5lEibqvqrBNO2slLg7PjjIgRPg68BychtIt5k2ApVU0bRDq0lGwmhi4U+Guc0tgvNpuBeQwAaydz3KMSF5NEtiekAIzl63NKOaZfyhC7otMiPaiG+cUGF/LxCGoMs6CfEckYD8XHDEPIt9Xv+aXg4dneWxPWSJvMKXpMMTW0AMfbUd6fiLaO7DuEmDkCHMdnRpRriN8nvP97IWaT3OY1/iiWNIHImdOK/R+FPMdE5NGHQfM+XKR7ZwSFgBx9lAju7ErZrfaGGgHq7QMfbYD1E3ACBPGY7hWPqiMMrTB9H4U8Vu04GFS4Z8JvQ3Q0mEJ1J6voiKPat32bnDElOEiVCHf2V/ZAkASWJ+zPoIwTBlK0A801yEFk0nSBJfxHY7DYLqzuZ22Fsqqqf7SQf0YBNyFw/WwJSNyDbV0rna/ccCb1h6eXhodIxCM7w39lOdu16WUdTEJJUkWSIs/5wOTAgsIr/oKCY1kRYUlohkjGDbwM4B6IY3tKNIdPpMrD6GG5hmVAFFUaIJ3Pqb0mWldNhmeCqIdquvTsFdRxCgmTThJBtTyaGUjQqLnSXtPZjo1QlbKWbpHsykk5wxLDML1IcnvfttzF/awzAdjI/51zNXM9uDyb6XcTqEjEZZo7MNHODjI8OrTBQi4ZmIg4t1Sfjtmgh7yYjddmu/0dSPwkhR0/jD1qompheQOF0jshgbWUZ19Lly3PWkXixuWo/nVX+dWXbkt3Od6hlAi/JB8h6IXtnXNLAg5/sU4NeBIxFFoeAxzNR2cn63U44ULlXii24ueLUvX2XeyQYkjijjLwxCkSRwgRtqbNhdC2Bn+/dNgfIT9+C3ACe7NczrjUEa5FBZpO4GUuHJ2CFTOBx0glgUdNggVJT7LESA/uJ083IpXNpNSK9Z62ktw7U8X25DrKrY7QIDYnBlrMBPcp41mPDd4suzohgNKc58LHL5PLax+octnMRFGJEumFQN0NNfM2e0zhZv+y7Rkl2xyd1qUOPTbxuIWEN4kEJeaS4BC+StDatGcQmd6zGfgXhfvPmeR/mc26Eh/tofU/ENjVA4gQL70X2ZB5F8WFdKTkBfk+An2KgQLvvAGqpoG0pWR8tR7P/1nDi+14gtkmou+13O3rUYRZjpdFx4pa6UPUnYee91V/goVRzpXtmvBDubeOelO17V1Eru/BPWVVXLz78bvOn6bNesBqMrgfi2J4f4etEZsg6LU+EqkL98v5ziRmZ7+W2lPnu0EpF2ndUhOxR3LLS89hQ5+j+KmnUhXvSJ7ZUc4J9Ku/XwjgptpKnXhe7aRv56kOCCtRS+kid8fTcWiHd8Ai8H3tU+XvTw2WE5OWQn7xqK2Vhhiui3KyywRhdAaGX9KkNR7c6DVj4nCe9Zi2d1vIPbySABk+7sGp8Z6EM7FwK+DE9TBBiCFTH5WmQEHkeGxC+Ebx1YR5MMQjNiy0FUWnPmnHEuVErTUEAcUUI3Zt4mMvUc8/owHq6CVYqxKO2n2LaifDWFcL2UTi5e/dnHw9wRzZGaF3izYotv8paTzlK2Uk0LGjJu8wc9SizjJrnSWve7nktNkG0+xc0eg6j9s1plzHSOiKjF2HjSG69JvHcpd8VBAtRgHpl1H5Q4Ymda1Re7I3CXshonmkF9NrvUKPFtEDCCAqoxbswEK3Smz6JzbBYrVSeBmHggsp/rchnAkcsm0jrdg1Y06bmN5LarJlJevYLFCZ39h+H/taFVgS3mp1niZ4fYxbTsAkxjcOBP1dEKDJF36sOBa9t9tWqH6QRm1/U22Y1wgkcK44GVwqxhBznO6xBZZ8nheST1xv1WHSQe7LwjfFSo0EgHY/2ridr1diQpzAAjigCMo/XIhYiRLOnFMATMuhFtKnt4c+loyYnvRVf06jvevnrxDZBVu6qt4Xu5oTyIbbTjmQxMxeDP/f5ca7JpH7yfFqUfb2Jw/qCR6jSt133acapetsa9E9Jw3TJ77RuQ/KKhYys1n2blLqR0WYGHeY8xf5kygVnYb1I5bMTjpsMaodaJeTGkEQXHwuPdoMoxpxxAiscCojLSpcfkwrnfs+hX6p9cGj5dS5w33UDkaQRCFL+lYiW7jVa3YRjWRqSC7QSEqHf9BNUzsNK5ffqQyNB1POtX/FwBa0AQKJjkx7APf0SRWyQXOzaKVDThGtlW1ncvUAqioXzoa4QWCbhnCQoBAkvin3Iawq+0rHxVV527GqsRK6ID6GfN/7zogdwKdOm5JUsSAZivhriYXR78lrJj2qvT2+BehAmgqIzwuCRgVzJgnEcoHBq8hZWMUqqufWufUa1eILppjAMA6imm1YtZzWajhdTJeiQ/VWd8ltJwnqwUfAaPsKtCaBlo9nEsdav9gNVaM5nW40ywrLFgkSX5Lk4UIHCbbBtCKU2vnqkh/u7Bw/e9TsGFNRksdvcgClQJts+RNgs1beAjZW5imIjzAoCN3TP8gPCFL23HHaLPu42+f+l19VBkL9ynIewcuFutL+9cZvBtlhUnAFf8ZaMX9gv0Q2kBycTzRX3/JQwzjeWBNxiWQUPc55fpZrGxMLyeD5FZi+JyBRg3oOVJQgFvfaPGJTIYHnTSbNVWDqzf//GH/6r3VuIN7/NV4aWOMvXwI3gjSYVNBz5oE9Cg6W+g2+KBs28OXbjhwk8g8P77OH8Cwxh76EBFC2ELZvglLeRSBK2nqjcKcqX3kWd+50MK2Gft/W8gFHhbAx7azvaxnpPZM7bs1TlWjXmrN/P37pcaDmlQdLmblzlJ30v80g8wzhYLbIwbizkp10AMNpaqSJSvBbLkfgyaxUhMDD8kMLyh+9KcsnPuWh7m9dACQQ5b3eoOOkH2Uci1kkJdm8C5/nVYZ6A+bkroylFiCmagLi2Awwt5QvtLwyR6eNLLbKYNU2wbigdo77EQHB7HradufNZ9QhYBZnmZqnQtZKTxBQHfunleiUbqo1FRmv/R02IRYudRN8LOKDmiruxRaznPc5SwnlPbPL1zxcZwZz5o18bqGjT6xCXjguoAozabUwJ5wiYgolggO2G4ft5hh/QCYrgtm7DgQ8szTjckQ6tAyoLYj+WULvndvYpY3KwWDx96WfsmkCptdFCj/oG+jqdYyECUv91cfInabWTrBAaXoyP3iLzSCjYoGgc86jRNyTM0ZPBP8C7TNeHHNWspFUTh6eamsa/zegC82DtlXDpjKVwRlB9DzFvGXOK+BFzN6lOv4/Mot7RfW5kpCuorJTJfnA/VajCc3HPTZtZTxCkaRNZyplf1GoXXvDK4XVxpSY2ZtCP8w1uzPFGpuwiPXPJ59FMoQM0yHiM6UbdAcZZs00NhiinsQqbX2FjWFoHipfPpt8tXuBGDAgoVFkcsTsnz7r0Ib+FOR2qx2LT+x5JjpFnLNlSIs3YlzkBi5LlHePQ3nvVv6pHu1Vq9bAOYEbTOrw2JNXh2HpMjEzHUydymcdJLsJ9RgFZ7wl6SL9+ErfeU/OTieSi9gz1R/b0jMhTSJqJfAe4Jh4E16QKzXdMZbn6WvAeIHk8uy5IETWngPZDmt9fHoFcW64WiTJJmcKtSyAepXG1JkPdRSMBx4OPjlmcW5xS5o7pPFr8Wl4vGz8YzTh8gxQnEXbr6gE51HH+QgKB4ek6OtzeSt7iVIrvyvhOABiX3sBm19vDlNGrp+erdHY3ZZoMF6Fh1RzM29d8lRR6eq0DODjh5yxL0oAiLg3HjQqvEsyhveg3fwrPsZBczzUD/O9siOVVMeVgMVQsGREhgGur0Llcu45mEQS5sGdcnbryjleDmvnTtKHwGUer4L/htCAfL9vFnK1QdNZgxrk7kwcC/In3NQBYFBwhf0jURkRUCLagHk0bPjtQDVvuV8wUo3K+zsy5V6LMMJmgaQm8cNJjCX6MdJ5Bwp3XJCaSlSdCuBInX/HjP/RQl71W2dMVlI0qXjbCTYAKVEPM4Dqur5SlzNSeGyksyw/AY8IuCc3+cCz4Yd11yyDQMRKVKAa3u63OLZ/xZ82UIXPBxH5GOZRT0Y7Uaz0zaS4veDHUEI/hBsToOvJ/mKRbch9krsN0D5jjBjLl4llxPwHql1sj3tI7fnXINm+8XwbAHr8frLOBE7GZnT7r7t0AcLDpfTazF5pcc/m0c4vYL1vUirto3tR4hA/7UjHSC0V/EyCla4sDSXUiUnYmOuzBiBkE6eNGQ/kWjbc368kgYGjDjsnDGxJQ1cl7Q9hDIQSWhuuBqjQBhb8yZA18pLZJszpa6OeRL7vcEmZxhFU7KMkFyjcfIo6P413xp0Q/aP2YlHOjlaMoOO89x7YXpvlWIRh8AxoCkc0TSmN9I1JF9c2ZdFnRVbGPrxjq1ayt1sQ1tpP13WnqURZz56viVpJECa+oSP2yPv4cT9r1GbPMsXTNJ6SLnvdeuNRx09YzNsEaXUSr28SNr9VDdnayxBGuRFrySRhx6PHcCEY6OeaFjbbbPJjzIkyCinSfIMRq1K2nyI0/ieXNru+uvbshEVLyFQM7FjtO1CsqNp+N2QKJrIEdMbcQLLwxJay0PTxEkL2G3SOYn3JPws5WOFOrZsP2a/pXk4STSXep3+cfZYIf/RwAYhrM0MAqIZGOBvlcd6qj4GDocm8Zn9qX3jaI7Mr9i2RkiVAfFx8GwP/kmEPnNd2yLEr9sVkh289uF2gmH7HF+islAd5icJ7pXgGhzmRK4DxJQ3P56n85bpcAl6wfubQ33ijtgXR/StFjJ6uvBBv+t4YkhVZmAxbVXm/+AZF3TPZ/zccEg9nTI9FU3rYwQC+AEEKtQzxG9ullwLebe08IPyZIPgfBEGZMp7eHrj3DKzg/4B+TyR4TOQrNh1xABc5i0+sU6dlKEhUBM46fgcSR/XOxETlhTA5HQa1czTC3U9NcoLkepY8g61CK3BajzQpH6/HT7mdiM6OcH6ghRr06u42mHR73AX9clcCOErH6MfmR3iESu/ln/61+OEsLCptfZQm0Px41Fy564DR/T4cKD5hxD4PqAyOeV0B2va/Pl+TdM2RgAzlAt/f/gzWj0GUJHmm/0TRKfXbbkrZVqTozGBUnx9hiLOmT2IwZoHFgb3vH7c5Yf182m67Wt0OLVDTUkY5PFgGFopOok4L83dMBFPcw4Cqt+VSkbcDHw5FM5i/STKbF2EGZGemY4JQQoVrUhyqL53E8aJ6E1X2KUEv1ldkwPia66J9Iah4WbJltHzD3VHXArH7DvyDvGkuXmCqLLUd+zATTKxPCtcBM3MIBfHqr14cFcIlRsoZSQS29xeWdMmzAE1peTFqDcvGRXAhC4KX0fGnYmJz5VAKMnMBKXPL22rPunszb8fL0n1FWQbyEQEia/RJrTWRFD+gzdkINY/m1cEPyRmAOXhB02j5SXx/wCTTt4fhd4313I1UMQkbzVH4OkFZZPjpYpKPc0el20mdlmPNwBndnB0PfrcvxbxEcrGcjDPmjHs8vsXSCOU8RmyJPvApDBA07dqUqDbdz8x2plp7w4ADCP8ILS1TVHmBcrgq0pIMTb0j5Ud3mbsGSi3x21rjXm1+3X/WEe9YqWVSv9ZkHKnF1HpD6B3IjmGIdoM14+sdEOO65bxXK+uCt9hm/o1BqLyS1QSgepJU2Wy2okM60Ir/u1fr6CSa0k4vUedm3CZFI0AxQxysjMHLH6JTEbCM9eIFPfrKXqxmL9CXWhU5EFL1cIJW9gt6sGGXlSRnaQ5FNxGpB0Hny2HrsFC0aCUJckAxNCiVRg4cuFB7Eupj/GbVDceURfb0DW3+ls0v5smHzjQVslS1PMqOSb/ulsvCbzkmu4GhOCGeGwHVyrzm9TQh2fpzipOs1kA7zyj8u1yT1KRI4pkiVDgenqIf+SJVLH8eMdLjBAjLJZFq4n9uBO9Dcl9lAW0VHD9E12VkWfUuaZ+PcBKkWE3ytidrbXrHteEugQamuFdZ332yQEqbV0lf0PxeSpOdiP5S2zmhzBZbsG9LNgrt4KgOlJEM8HyRLGU2WxhZKSl+PCuMvPMZqKG0CoIlokls6LwRT8GkLJDxLpy29F41qZZqRByB99Tg6ezJaxgUL8vHLtNPiqgkBtBS2cVHo7ylYqW4qkIaXCguyeg2mK8xdsJY25qmvnAT4COeJNDnkxnUwkv8BVfJsCLhlJ5LmIvh0pTxoFdIj4FnMhOzIWNP5JgjqSE48urSvJpbplYYm86a/+GarqPl4cTN84FXsRCcUTbETaw6fPKCJ+pzqPJWprQeJRENH9DYAB+Il92Gy+cQpG83KPfC2ELYCxbavnieIROga31JGMi1RjHGjGuDg3iI+Yebld5HaVcHNrmUsgCl2YIXpyYLvSQWfclD5oekb05ebqKBAAEUQPzwb8vrszczSpL4WKCWmUk3jemifwnL6oG/kMno9btkR6cPxZ9FBJOuGmcDuBKPBaMTlcnCXD3cA0nwNXDXS0jRfLQjd30Rneit2lcEOO9L/vgOgIpN8YHIPiX1RLuLkq2lZJR/DRD8gaIahaky92jFnWky0v0pz2eadDLzZtmbHKhbXmPqWDOW48g2OoHe71EnqRQ0RSdhQrcqpxPly7eHh44/zfc4kWFsTPIJna/AjZMWdzrvyfVli1wB4Bi7nDn4RTcZ40jVs/GTtZEXWe7e7qYrXD8ek1b2t7CtoOZXFub38+JuBQYoj20zO3c9rw0A9NtkJlg5YFyjlbZkbsW6Phv3L4Zfkq+WTlPeDGoWmh/KgDEmy2zrov5MATf/C3qlJArLg8jllNei3ehsy7DAto5l+on2zccTNjQwicaGDTTyFZaAvhbSyL2bbv1C5mNMBM7FjgDml15iYdpZqD6sSyCundnUdUxFoifELl+qYyt+x7Tq7M6a5SUo1pWRXZN7OFFRsN45xtRzE7tieMqWgTR1SDqN3WZyOOeRvPxO6NdG+7arBg/avPC5TJ2o46EINPWcJpvWTJmSAZO0myRLg8cmF+iAvFgtc7YzgXMDyTL7tcoZL8i0C4hN+v6Nwlxd73CmEp6DyK63/ZTsTM/nGr/T9cFcVulTeLD0sJSwD0VFEjzlzO9e6vhGZhDTkOtDz3AoaSTXAPiuuLtiMn2In0lh6zJseH5evxUPzeYas3ls2vmBDJE5/OozDzIaY1k7rWNcSuXs4Bk3cRFKEfoxXsh8WMZJ9NR4eAUapJaMUL5HRAiQdcyZSFjmdIjbJRMH9XcwEK6iYFKaNowtCEaTT/VzQB+cRliy8zzRCE3h/DcNg+aX8BQxznjz3V9w5PfKxdZq6Q7Bw9J3MaZA2Ydcv0Rm+s5zSaStFlxlsSuFq2N5/UBqArYI+FpUsXMx/CVCRxp46A6MfIPQWXmp2r+w+4qQe91NNUMJH6EP6pIiSomLw4q+Ct/5YGRPECCp5rQ8AdEF2vVbUB4yqK88YkYa++VOpqRXujlpwjmmYb5ggUQlbv7B1TjgFS6G3H/dD9usfhJ5uoK6Ko67h2qOzgmmWCytq9Ku8OjHl6GeF4GVeRjxevK5k1uKyJQ/0RUs3YMQDnoMoOaMKKxRyCRVvMhmThSYCwzBFhWSxNp7e6wWwQmuMrTnYUnZBSUhMpj/j4TJtsTgM6sMhhJlAhpAKp/Xtb1FByH1XzMCA2ZQsw8w5tNU9J/+6clact88WXqhX2FPw11iBSg4V9B7Cwcs9EnFEOrsvoROfXuVgOpOzU/0aFP93Qf0J5SQfAxx7ruSik0glKxTFYJQpq49RceipGIMrOnmHqynnxbCEDKcjVUy6MEKp0EvorsZKYmgyEGZc7Qp+aKSe518zh2iqNBbLMtAqx0K9pFrIhIrBGNM//MF8N12qSAWZsN6LrEwfnPn/zj4O7QAlcz28KQV7i9iiTVIR57KMGdUjob1IrSAPUFNXMXnyVdjamUyMZTkKeToWRZo+vu4+sbYZ2SjQnNpn4XvKgZMDKEbO9M2uMBUL1PD1dp4+oDb4/u/xKttnET25duV2QyLdLOLeOlv1bCAUpibmBGUOP11m9uWpDDhYTZDHi1HeKQLUmFfUd3NBjJNEMHDii8MxznhIc9AhoRwgImMYpyAR1BxDGbWkCOsT/qvaS2RPaPMA2VLPz7+FC8UpoC/6PT7GUIi9U3kFE8YksMZt4TIVRpJhGI21VGGobhTUcUi0ke88YnEGrElEq1koApP3IxBfPzsGzNVPD8goe1fJWMkxm+kgwlVRJMNi5kKgMI8DMXetmnS9+x0Fbvmi2K6K+H5q6Nu5ZRzuhQRwjJLt8Z4BQSPjQGsZvpiwaYIV6DzKfGOCquwRa0hqvWzXd/mdiUsm8YselID0DMUAaUSPhk/ZgixqhIcHZ/EEepO1ATtPlJ8fR7JM4VUMDI2N73NHwaMf4COU6TF/teREIz9bM592KQKaFadThUbz4sdRx7THAPkELA/ZLhlBwx4YYHDRvzhl/4pkqLf36WDdgdlrAjAEAPg48zP4RAQwcjMIGmLaO1sCnppxolWhp/iZVoiIm4qawZiyfT4eYtiGM30kENK2jI7JswJdboR0ucXrDiCnVq22TmBI3OCAkui5Aa3QMQXRdy18zqg/rCcTtyz/XqPp0e+UIagHgz6qyuTMd+FOKRRsVTEE1iQIdATbWZDeLIBDtUNdw1M+o1PhgGvVb8zeRIEUvkiaJh/A2ye3lglF4TkghIUKfJEZN4/Ousf4Xm/8dZM7HIbjBKZBnCVB6rsEqbipjcVDFJmsSi2hijgB0OmS1ErSmyNcFWQX2W49au3Anbe5NxePnBD5yha3DJD3H+oIfUeV3TE6XBGTb/QStzikEKwWJmFMsE6/y0K0OJMprL1xznhQ4CVCcT0lhmA1YiHQIvCNZBRD1hill22B4IX64PHRrIvEIkumiBMX8W+o0DUBiPYhMzMror11A6RPTWv9wZvQZJItwinvtZ+6+RwApuSw/QK6sPO0C1G4tSnULIx0xFdq9Pj4R1I7BmlLCdwPsAhlm1FazUrnvx8uT6/5kR8uUJK26aRF5nYQkAsx6MN9tIBSifbxklJPFC9zkmUgL+XvTzqLKgRZOFowCt7EaFpcpSRK58xpsnYaDPOtPOnKOQV8wDbjq8rwtFs5K4nJyVO1pXh5uE/BmamfpZ6ZD8gN+u2ZWyTrBihMDmKuyFdkntmWDVLfDYgI0c1daJ0lR11LRPyMkf49o5xr220MV0UFsac7udqtjZkXsgbLRDUvL0xAofgdjRlPl7aZDrfxkSBpVy900Ryul7mnS+zdm1qaho9vp8ujKsb0ZXDZ51GGD8LngWkpwamCPkdljkGBX/sicTArwgecssAZ1WuSwIRDMg2fvvUKoYIVVllX3Xzsu4xDOz51BBY9GXgdEW9JtNVWfhcbGYnWn6VFYXdegdvPLTD8p2kpIhQH6KhM/cBrv7WOIiw8s8PAOOyIKr9a+uCYjpbx0oIoTUsKQ3ZP3Wb0RnGYDqsRj48RvMKz59fOO/yyb8dN9ZggMDDnUMKlL7e3eEM++cwx46lPONzhAV/h26EGHltjjn5VSSmJCe4OzliJx7QXMCHS5TK4t9JMK+498Oj35lnEsIPux7EQJgI0WQJodkq8nmg8gbEfPrjeqEdC5LT2fZds8B7QpUDX8IOHJN1bPW4ImCaarngRg8G3m1EjMOyQcSEsSj420G2Lw6jlM0So4LS12/nHDsluq0vvfR87T4eS+mMvR+ldFLyZ9J4Y6JUxlzpsmFgq3thFGlo0r0IXfYOZVh88MTJI4dNVRGVvEz5NBZ267w//p8iGN9ByQ5Txjf8wRkm+T002o+KSXFnkyeBR+rybb98r5n6TlKpKKmB8dGi9TfOcWjrjEC5DsoIekyHlhJx4HTsfh/QiM2iT/mtu4vjn0ItA/rZQh1euUYW+0zuKOv+xHoXAH3ntknYM2oc053z9hG60VUdEXRGMUjl627xxF78IxhulwabwvIrED3cMUoTaUw2vTjF5JO2YT7HmFZF3P+zABUtPUyRSh77P+SToNcpXW6kqeB701SE/PS+K5GfxViqjl9WMvfwKXE2+VQdueWn8LDOTtA2yt3eSOeIVCAKPOFmncTDa4Bzq/4WbTjOeRmbDWtR08+Kv6gZOx4Vg/J4HIRpsCaYnrmJ+t/Ke1ZNIeDIL4yfApxLVADwJYuvQE5e7JTfJvK1N6sBGY90L/xw2/0MqP9itgFfGQBOflsKRj8oMNjs3sOoRyHQwcWlfrpihgSJ3VgKmpwEV9hPN+3LpJ+zjsbFp9PioljBgI5WV7FTVeqYwJ4eD4Woud47+7WV4YEJJxnuF35n2U+EtwsRcQHH8LvENBrC2wpd0Lx1CtU+FbEAoTKamMyw1EfoKOMDC7KeqF+NsQChguuTU3QMwy3A/AGENsUf1Fw1BKC1XYiOeUyAn0oDY9Y/1rYMuECmya3nMDbAxJBJTteICWv4hvTX1Ly1enKNCgt4IEFssetHwIV4RCFSjcLcHDBbUmAFXxjGCIU72dXcmUWXtB2keNoss45EpCmHGbmbA2M1Zw3SFXCL855fQHIkBdZt8ffj1Q1F7ZVGwI+rp03/0AWBddw1mkb9wlPoz4CG7AhIgHRTtxkBoaPte54UmrIU5OVYQYpKztybjlPBzdO5AVGCLW7NBLDk5SD2/oG29neDh4lChXWXs8gVS5FQklrCxKJn+bL8hBhJ25RdwBtgMiTsJR5ODjCVg5jkFrf0yORpOhxxNiSRApaaWF7OJ0CIeiJ6rxKBBIKOZBQ+S0d3HAmm99eCAZvIFRQuqQfv6YOS1wT5pgvAQuvzBXwdsOed8LpBxD6SgozA/VQMOh3Wnfl5Xzm3AV6A/PhghgxGxZrgAN/CaJG8hYgtRsg1Oqdm6gvdYhDSp+26zS3n4455IkClHduUkH2l+fmUBYVJBPxzV9/aPnLk5ZvQDkIlGIPtYnyO40dJnXnKYP28y2SOlV8wBYr2yhugmuw+nofADLBM7ClKOIgV6LGt0iHqluykfF87hJ5XWT442Z9AkzITJ1OIpxXoEgkj5emmo4uvjgO1zSzZClp6Vhho12mEIPOE11wfGhlsbWyABBfNZzFORGJPDPpfgLmzuxnaK6E4wBkpN1ATIGkWWAm80sCfCyDdkCa0OUda0UmEpj98p1CxSLGBAhSCuRZ1bo0IBojgJiUTdxAHjmFReHCPaSvXU1NnyJSIoWQuW7WvhIs+cXjAD7OKwU/QiQBJt13KIPXxG64tnAZ5rnuRZRQrXl4NA5VxQ7Bqzcphp34vYR2OYNJcGDhd1XmFdE/O+On2MQ60PZECyKqF9DlRo6kMQi4JjsRWBxqE6E9QaxB51f+g4Dq/QEKWUAE4IzAmQO+Y+ocje3/PDk6PRCWJtkN70REYBXV93fLN/KTUb3+Sih0+aDfQLNfc6uTlAPGf4w+Ez+Wno54sp+LMknLlskmdNq31WToS+FvXOmJqZphoYDw+MfvmkhwT7h9d++EPPGBVnuDuGtnSYnQK8wxrad2WhaTiVCFeKonwRWqYgGxmCjIhYp5+IkBKlmORxiNNYPNdxPmfvf12e0BnkTuySCFPCRno5uq5CsCw2org/SaRi8WK8Qvw8HlEWfb7uTU9hGV5b9xmYAqx66ZfjifnZBAFzCpQvi1gCKoSljCOLsROUJEcLqQOtu7dkeUwJ7CXNKRUeYqfZS6kjiXsefIXmxjWs9Ow14yZ/VkVHLWLJlfK4dJp7vijq69+XF14PE6Qn50fKQEZyKAKjmYliGw02BwrvoBOnsI5t0/73imzjdFEwZn2eH3b06ay82IgygdosGLE03Jo5bk5JgQQ+AG5opde2AcwHlkmohtyM55tmOZLNpmPb65LtB7/pykMl4hfMPxzHjPpJBOaTr17erd4EC0W09TtV5KL0LxSfVpkl1MwOolS6gtKSBuQof2MCH9po8U2aF/s2jfmtjfyd7RhAOIVP7iA1mA3CuFhfcl+Be/17HEzlGkYPQ4LfM7AZhMikEBelmOKUtICU18zx/wy94LkD+KhzWS5jvvYn60KPfo6YEXFtrKWx98sjgn4fB3BG0JlQ3oWS4o+JRn5UCnGnKv+7d0Ox0DMI/14bHZnnzyGAHKEBUA20cdRMGKKt07mYRNvHQBJmw2mq2GQOwuDi9z77l3z97QO5phPrYxVL5DJIryRhiaj0mqoKtE5nHC12m5YrNN4x3QZYpCF52QZLPN3IHDbCI7FX/av/8Mcc/btoNsbsQHNDbkZgt08z33XCGlSMot+xPzY3ACFj/o9n8Q8Qx9OLmIx+joDaxbUzx2EdqlGusWAJzicTbxfgEXgVplf99p4faJLI4LDE6/Ci9iycXWQRK/mtFZ6r09I152JqesSmzGlgo/mLvVdvkPVb9w98c/5hNQv8YAiJmvZa8UwNUWLC2KJEKbSoVLRLU5+EqQFiB+VEumyhhZdAyyuWbWjuAT809ahYfuWDQ4+zSwp5AVP2A/Pg1BqwTk27Qt1fDUsxYMjnqfodGUPeezt3tus+Hrgs3z66UIuLpt9VOiHG6uJpCbQoHOLRl0qBg23t1+GogZv9jFlCsM0EJ1zLsDqnV+oxhpOfkponJpMHJJ60dSgGgX0k6QVZ88GXkhBlZb+0VzckKl2UYPwE0qI/lb0PlOp9GfMeyy8u2qc/PbFSpsUG9phxuqZId3J2fwOX1XZc3t6vzAiyQU0/O1kYLj0AouL733uBIs4vWEDWPO6WJvPzknvch6yEqYj5iYRtYKooxk9rk/GvQA8y/iUx75qy/3tT6Gj0SAztsk/LQC5x6SiAp/BCZoJMSGV+qi2TOtBbONp61TWEiQdkCN6gLcqXjc0es9ObOkhUQB2TxXQNRPvKgPDYA/w0PVKMQQW86SaNQp0zeOxjOZKzjONR0TbK/WtboyG+xv/hfhrSYcQtb3ZdgWdKS3ZMjvNQITblZ+KvvKAttHlRE2yMt7gWNCX9xuIK8AZw0DsauABmK7/IwGOLvrdAUU2gI1M1b6loS2cuKPSstVk/g44dF0sDAVLLc4Jmq6rJY31oEyDCra3xcjWmYSpcE6tePWlJhpyj9zjNZJdm64+2rqYMRA4KufpwYeB6Nh3Ufzpor9MkaxH/DSVYJ2dca0fSNEFbBd9+hCGUGzeYXKvosCrN2t+zkwehl2yFMudFsgwdd1PhynMvkBgMydgbLE/Yk6AyFx6DHcv/9FEg7b+KO6v3SP/A74E2MTMDoj+5Sr6zJDWgWgWWupXmEXPKqh+zTn9h/6bkADwB1C8Fnwx9tgq6GO4JQIVxpNHoQ8U4m1v7ASEhdi/TDw+S9v976cwLxfzdXyCXs2Ati3kNqdf0fxovTiaFNe6C+cTwaM7rcbOgc4HiAICLwLfq8jYUfgDxlMcYyCKUZcW8BotRoCUY7e8OqtLNhVkTr8Iikyy0Ear8l86rC5TzK46+gawoQG2g7ApX+P6MtTqtNwMcBrPMJemClFZW2lF2Rws2QSn3UKTGM5HFOKls1YbFdxmiCwz35CDx7jpvLQzoBZ1E9sO3okxmDuP1POKIThrNJxzOgyniPWq/4QbfNmQIrmFBWEr2g3wmRh5aniau5sRsA4o4JjB2eGKPWOxMRNxmNWITt+9aU0ytyXW9axJeUW1NfE2otElq8/+SNbX26mGpH+hzEMOmOMzFLkwA/rfDb+UfTYc1cUg0pTWsMeQoC8AlvLokz0ITj4eGGpSMtko3TACJn9x7WlC617wSwbNnGQy1yfmZG9OribD76y93E1ZY/opYeugFxpBRqXCxWl3MRQiwBCl4kTGa3AUws8mirZjT5Z4yrsr48sw9hiDv+dVwW7eCUFFlksihm/mqeaRvgmNJ/8RIogO6AIdTMLcN/jMQOrf6wnU0E2n/jIF01Q7SwKNz6WadzjJVH0P1Cx532df6Grad5ZRSJa+icG4RpPYbfA7Jh0wc8dOxuXdvk4Qzpxz2RNNOKOg1+Ac6tkkcABlqMaQUuNOMWkF21iwicur91Z1euj/3FlqrJ7i3hqBAd8TR9TuqPdMU6PGDoubjJbUzPZIi1OwFMtlFbPoTM1kY4zTbKjtWYoOvFTXdUhyEjl/4ZhUP24Fy2VpfDZvqWWHft8ahaRYW+WbhwuoY5thxMRV7PkxJ3O2vvoBTBNmo/5G/tqe7VIOO/fwaa5VNF6OKMI8de6HMIBNNWIrWvtOJf1eLVcfD617udAeLc1wwX2ue+kGD3v/QN4aQQOYg7Igj1i3QGwug4fl1JdSHI4PkwIxJrQyO+rjfieguEgK0p8iDiAtcXrDsLRJbfg1zVkqzxJXj6C8TB9UfWfwUHnvyfejkP1g8zkbUXhFGN9BR6d3Y+ENl54QrPkWbvXc7Wyu79He6AVidK9MkfxHZraNZrJ8lO7dub73AK0YZAuTCEH4SNxrJHUIyv1gpm80Ad9N8Uq4sHt2MqYwzMoRyrvfa5TTm/mFyhtcah4T9GTEnFtc2bZ46CUMoBqjF70FT1Vix5NV/6lXs6f8iGwU87L9YOEFaRjIppYfp9h3qyTY9jr4aEqitDgxgb+qUeY7nXgcwPrcUZgYmafjwbw4zrNKGPe41NAgOhk6g6MCNMrQMwJhKy2ZNNaKuAPHdW8gTW+JwTzKhgcYAvp1vt7yuI8TuRlOxWAcJzCTpfkDVoNE+5W+wuT24f4zlX7ovgxz31yOtXif+pq8f3axHWvh6JQH/7yg7NrpJfT2ukPOJOYYxyYD+YsT05mxr39QrWJ8dO76UT4MnxajWcW1XCxe8Pgm1+VSZO94Yu+7eJACvTUZAJSjprRO+ps7TuuZq0mSgxwWwVJR7GzGaqZPRrCqqIi5qh5bWZM8AhEXjBzSXYR/4r+wG4yv/YaB3wZvIEGNwDfLJ1ZHiFG1pOfnyischUXPVW9LO/VnXPvL86zgKV+8Xef174vcAt8XL9IOFexy2MeR3gY6ROcW27N4GQgdUV+lMhjoB1w046zzbZEILwiByoSwusc6MuohlUiZFoq45WItNXqclYrCHSOisf7HkP0PRqIg+T7rItZrUeX0foRyjZaxxXWPH79Heo23oeTQznTKhVT0/SBf31C+URsdI8oKuF6veOgjV8js0YeiWk1dWg4Hp3qIaEfpdAZTi264BXWOxjBWPh6SZmbiaNCmE7nbfv9vRYEfmczxWVC9UeI+EspBeozrA2MXJvmcXixQg7PL0fzYy7sagCJF6Cqr+tMpPjg3SnH2TYrgDomXGolLETjazHUHP9OdtqeDGrkUSzVayCwspZ66R+bvYdJgIbs1+159MQxw1mea6arUI89VAymXR6N4JZrqLxypkkIa1cyJ0NYCF1/qPuEbMmJTP3nL7JnERqGssYQERKErP0d/rlLDUf+HsF2LO+VAD4aGvfDeywCptvfy6ini+BTT1VSR1cF1+wMPZKLDo0SL5fLn4fxmM1k+EiKkWSi4YjaJ4lFmJmAgBE1AeCbWC91vLqIKyfTEaq9FUXO4e8iTuvboLbNpfxmydwIMPql8lIrqzmvg6NZNwdY5Q1FsP5jNvXtb5HWWCKnSwDHgguD3zK0fRzGe82OHL8vYl5PwhveM6/ReSkUdfn71x+D+gAp+2zRz6kd4bIIPpN6YL4GPtNo92cwHQXMdLtekATxcPBGsEs4D98Bp4oxyBuOnv9vCsN+hLPy/Sg4xozCS+mU4V7qJlkQo/zJPRG1VkvFTdxj9fUlBmuxYQ7Ah5ZZKzWgGBFnuPvK2zXLOPVU8qaSMZg+3Q7kh6xY8wmESdWLS6ZzIuR5FUzmJDOWF1s8kt3qtH7i5dVTK37PzqGPr1gSpxkQZmh37AjuHwVTbcoI670016JLUwiZnxFW+g6FqR6s2AzbnTn7JLaBlCC9i5yb3UvVFFMuxUTKGDsQUbjQCmUcv2ZOttFQG8YhVEie7SHw/m33gJbf32hEsSPypXIzl55IjzL34bPFYWmHayh0jC0Lcy/hvd1s0va3dOANWBFMGhEXTHuZY4tqOe6XahjIaQzbtv1Y12bdyc5dEMf9gt/mlAC0rqTsCeK0EzEOznU5qigiKFCO42Raq0XrfZPL3s0ZCdOE4alEnDGXT0ezXefpm7HBuDQgGqn7Bv0Y4Fub1OC+DJRrMqWxomlZ0KvVKHwDdQP4RuXQk9iyKJj6gmA1HvuP0ukhDE9OSfQX2SXSe/WLaSNXLFuvBlY+HNmNrxodIIH/9Enx9pl006mKqI6q1dsGrqtkLPDq+VWbxxPGwTlFCTdfrSc3dkBusCnN5Wl3IBGPuoWY3H6nzywTVIIpvXfzWGVMOXdGbfedMSxvWSAtBNo8oYP1qdc0i0TgLtQtGVtHFF7Na3IZJxD4PivIRvDIFUwbNKWmk0y5DEqdFDV9VVuaBsSL4G9qnuPEELmZ0lhRleDwCJtsDGaclLKiX7rz+YFfwk62YSRlnzs0WaYTL3b4zh1a8s4khy2w/6qcx7BAHPmL5bVlaBJfoEu49LGtYNarF2TzZj3yX6extLcq1/DBRF6g5R3c5D7rIKt6h5rDn2OHmQHpR9HAE6NTMIRID3qwirrcb7zw3PKwLJIBOEX7ggMQUmXddqqqEwaZ3ptWkG9yWOO29/RgzzDWlztKhjweC6eE2zHpHP4dcOmcgnOjTN0Z6T/rSsZGB8M4x7x2GM2731SXu+Eo8k6BX6GYL3F7CMahaIMInpfiquRgH1fR7w//UtJySnZXpnYHvq/VVmh/o/KCXzb7BQdZ6UdTAkf6qP2LblhxBgLC/n3wdXn75tw+tX2vi6Znv61G12Dp821S7oGoJAPKkjOhTUW2v42sWQPiJEbRNYczjEfHhBlkJiCHNwwVGlegndLkh3PBefxq+/7cn79MIH8weoZYjH2Iv9MfnYdbGtGNCFF/lNq0KOKcms4a2b1TQQQ5ZndrGCTCfs3j6n1/9K3j+WfQ6CxmoMbNkS8YItJXau+HwHl9c+tUwBd7O07VyKuqdS4CCuQ+MYkh+2WSYNAWA1NR4mYxHiVNXUU1hrgbccLIA97weqj8va0jDel3hsLkxtct601cyxwpNrlsbOiy73uFWAzPwwA4WMoVxuvm7mJjo0tCKrjUMqWsgu/dx5B5DC0dm9LA2DPR/yW+jNPSMwDwTDOOapQWAKW4yTUpaDZfkAJhporMTDbvh4Hp0TiIi+tcVc41A5rZG3QkyfXsQM9Z3SIV1fZ/FucUQJ6UMXinw7+TyfB7WZBUYTMfxJ+QODJCqcLXs5vzkmH4jR0ea0EKuZj2kL3FS3M9etCYyjqLb4QYI4CQLG+ODfbyK3AJjAImGPM4MK1FtcCcwuf6GDyeCz/XnHnNW6+A3JbIOcvjQpr8+Mg0XmradHl1yk5WiRHUVTW16mYXzzkmueCz0Cphp+/asn6UFR+o3g/pxX7PIk5D1Jwpxm1DedEVNBNDF/JDCU00ElhoqbVJT3vsWVoDNXa1fr788cHL+rdztDCEvOEhqojaRWlLiMvr95U971wR3720N1xw2OS9PIvf44KndvbNpmmEegtVOGZ22SZ0naMnzifd/BywP0L/N0MrBmgbz52cWu3PZFKHIm8mKhUQU6euex90f6kcvr+9oteHtaE/QsmL27R34b93P7G48W6v9IgYn6PmikDTIaayiU1FvfZiWP0WgFsBJnjqAsnz12MEVaWmKpSEJXI9DXRxxjjZyaZFJsjg+2L9gqsmH4UsCJ4YgVdnCpf5q9vtKF3mqi4hVmYIZ9Any1FEnAM1pkiUmPG6TR4sLMYJohVCo44xy9qO5ZbM3za9h0o9gAITwEwoJqc8ctPcu7+g2KkY/ow0CfzSGiEkYSVBXAPWVhH/WUbSjp/KCKzg1z8PTgMJ1MwVjv3Ck9/HBfTXdiJzlRsTwWGgoX2X3mT9rBvphR1/d5fnSv5V3uD5EN9Ts2j//U8c6NJsB7ei/BHiamPW4aWqa7g7kX9pHxrq12g2qyJn8GlT9jzZAxcF9IsRJMPDwro1RvSfIyxeHlWhkoqPQDbPxB/ACNGC4HcCikF7RJIV7gqs5KKeKGd4mDzHIh1NojdqDK3tk2xO1LTepLMHr1pmo6Vrq0e8NYxaZ+po1NriuXKoXcPH59AkC0K+p3rjXYec3+ERPM+cznXJoX597aIWHQyEC+zrp68kQxo9FLUpDWugMldolH7PJ1Il6bBYJ2PjamNfZw1+vikjMGvrRuGxyei5c3Pn9qEtWbU4Bqi75tzcDJ02at4sfio+4hGj2Y1P1AT2QZR6qtDzh9Uatp4NhtpfKlml269YBiIUsp6HIQmDpOgD3qJHCXyb+OsItr4t1QeXBTbsgMn5IC8TQRzdJC5Jy13hOojM6cX71CW9UlNs/dH/eDjtI5m7+wGUFiri2tO9AUVHFc9tgv8tjTZDkiCEhmBKfFgybxKCRFZveElxjUhll9VpC8kwbZl0R4b9xQxvnC5R7a97vEDPJNu23T1jTSwkJP1b+a328MIsr+VNCXOGreqgmfcT9MACqCuLRqX7v3ErzC+/X6ZwVv16jx3w5fuqpnwat3/c6iX0zgrf4BJx/5hPTjFCVOUkrkceYiWmQClPB/fVAN6trW2eE+9mgFGuuqRaeielNWoB226kD5rXMKB2l5Rd/qu4mKEzoWQ+G8tg+sQwgOoX0jWlmZLV8CEtoWUm7dF9fTmTkvJr3RyxG55H23R22dab/6BfrSWrF1MWkDKrvUqfB6M8HwCDoUQ/Ew+p+ZWpLZ8FB1kSoFrOt4fAq8JOdCrRhXhmsGbHy/6fjTKDJAo355QChDM3GqhNmgZtxjnDz4HS1kvDgFlKFV3pnbf2zCgri8hsq2ewAWfGXFowvXAF3XJPQAg0WUWKZrAJ7rBWbXxH8qVWhp+UEE96MhsptvYWaLZ6rmTnX2kuT0+vn7058XpyihDO3J4UbfrbqP8c+wbLU7/eeyEeq6K8fvzcxyM+EX69NeztmG1KSJCs6yCxsyUpnnnV6U2h/sFcCgOeAjvZOhAo27N0GehX9Qp9zozq9aXBPqVXRUmdi3cme7QGcikRLw/QZI8G+Jbte6aOM8ZYu218Y2n+pdZ/CFXH7U+XE2LepQXBTxJg4/+Vo56G6cPyjQcinFBPNNS8nOclH0MR9CNCZrk+DZsALXIYRREQAueza8Cpn1iTHFK1dGpNX194vbhK3whx/co/4X1kVBpCaCEI1eP9twYrpWaNNNIUAsxz2HkBQOwEsdPxKcd1lj3R18rINtKBSQaIRtxlqe4aczS/BTJQgNuY+lVUSWrbOXyoYpJZFFRTzKwzSvh/vefUnqU0Sh0LCBBdK+eYlmdwr2hoArZpnW7xWW6Tbd0ZeJD+eJHpA6oCV6af36OyljwHxfv2epx+8Dh5KnzAShCGi/SPmn9Tx4XiI7aaUJlmIpQPohyAgXvEGkIT0ToQrn3MPksl0DQ7EH3BCM7ce39CBh/IC3aXLkTEEy/p3z1SyVuT5A/BLG0089AVWdDc0Mn8+pTXGklVene4iqj/4dKMlzmF+ckKqTzGQo3oMinXphpDPKStc005AbAmgwk9HoGKrMXoDovjdlaOWjd02xdrtLbFXroCFXgt6pYUhLEMi45GlNi4o+Inuht/DlKxG/U9qgMy5j6J2qxkWmF5onrd9dgUEG0K9+eamFEwn+JID6N1ONYU93V7YKstJIGX06nD92iPD0YePUMXSfY3oB7hFmDO3zfrsh7w9HfRVlU4lvlEvYMPm30lmAv6apwN+bbAZ5hDTyBDsdLJYhfJ0kL7Ci/n+8PLUSzXKu+xmEkF2+JSF4rXB0GwEX1RLerUa+uY9ZuDUDKmBPPOJPvA4WgDG8lpGdTeyia7QeN1muePMPWKv1ZHNFUxLLq9nkRAHfivhiDdUvnEl2LGftcCN1KiEg5o57zKtorNApaAaBjieASJtK6ANNmb/oIu1vI+/ElxAc93j3LVLq/IcWDVmeg8dDHCr+7I2S2wNPjvZjYR4KGyxaOMIQLhEvOlLcNk6dqIYknkg6dECxoIujdGTMCra22d0S9PixwdZl4z01Qfw4uVde+lEChJ0QQRFv0Zc7YuUuwO2pGhHljPr42a9p7Wlom+DYxeHqPcCLuK9N4b2z00VRzBejXG7cK8sd4U08B079eV5vax9MuFaU+RNta7vPpT/3MmEeC1vSqT3W910/PuQnxWKal3NUdEMOH8oif1TMjKBeK1pG3YYwbNoFwZRYv5NBnsZvANCzSGitBT04OPdbky3PcRwIPHtVhuGRnjmNinzV75Y1ILssJrISkK3WunzxF8xOdki09/jPqBQaKxHENOprmPhcuaprdWDd6QfcNyfyQJSFrPiXBYoi692Xg5Dy8BIHoMFrOGWBkjXnC7sttuMFnxjx53wJBTY/WFPkjIcozpaeYG4NFM7UGdls55oY5ZWqxUX1vHsAP+CQp7jnYvSuBW6W3DzKCt9qsn3QIEwjxFjO6iSd+ac0u4jVR4XPJLf6OTqwA46I0FeTYXJnOCy8L4aFL/kyh9m91iYE27vlAO9aiV9wvQtOJBPzg4REqoFUb8VJJmdxfagEBH3Z3sw429/cgeE9XlAfd14QKVQSSJdH5sreeWCpNfYR5mDJiVC8ZUJfjfhdBC7jIsLNUeRZOqFUCmI9PlmBVd0XuFw0zr0Y6VUccVgPzs3cp8DnXmSJOE7dCHOa2Chs4CpVIz7tGOe1Iz/jIhS6C+t1lzAbH1Vxm5bU55N+bK6ywKuc+octqc0OvcXha19ujkAzaXEn9J9UDH4qP+XnIfqMfUenl0V0eyHM+p77IANDlb+oGwTpComNqWpvDJ/KZ8Rhk7eRF7Gl8oedQHh0YetpP59Er1XaBFqYyW1kZ53kl65/PvlOL6UcIkGsJ6DbNczuS4V2uQM/qbVujcQiWFLb8cePPnegu9qurgOuHiuRencqZFohymW5nfSWC0+g10VDuJZkyZKYXJ064z2mtICkSyZhr5qIQGvZmMpZAYFa8FRLHmv+TTgVy2zJla86nMMCriu12N/GrrZNaRfOiWKWhhEyfjNyXsHBHK3+GJf6UKTtyoZw+/ShGDgehVvsTitkfciXUGsKZwEUKv2moE+e63Am84LFCBPFjfr6BFBCW6FH5i0MDWtnVjwxXEJn5nfc+Ta0+a0lekdRxFw4mqBacxlZSufK+ajy5WMwsrWk/8zgtMiT5Y+Woo/Tce598YpQiKbhX99UXex68rZo1KRR39nfw8Mw6xvyw0jUaMwk1LcUXTqm8DwYTSHq/PbCgbgPex4R+4v8wSsXNPiEEooIq/3+kzmPFqrQbvJT4nJ5fs1nnjwKpf99rU71QWI3N2JfbEOxH9/Ros916eYNr+XogMU4FgKC3DNUW3BASslxQyA//comYWyIMNFKQbhyVyXCmtSc6Z73Noj+64iuyHur1UuBST40Dh70IxpRUWy7H0+fcs/WJ8tpiJBYQC8oubkbd7fgwgr9bEye0yvU71OQ6Lqr4P5524NiSgLd2M6cownNyQgABHzI8/d50Ab7P7Kd5Nso/SucZDaSWtJAgnrSAQCry9KdJckmfXDbYHtjbR1nSkViguuwlZn0W9YGTDxTaGWAUPUjWOpYvopbzH7x6ly2Ft59j/x/kKEVt5bD9nhQZUWzIGEG5xBw2o11Dna8aW7KlvPBPZjFx34V8hAGM39IMuXBvlQn2w+heV0IF8YBWJycbXUpepwV/HJwX6CQtrrnkxqSZtY+sCh4B81yU0b8fb/34Ui3183EyBjEutaCIPbz6zSVIV0psc7nC9tknTw2MUEoZZPkj5eylqteTUMvT1d+RHv06uiEqcybfm4KEerGSAGwIuHHG7wDnh2C7XAQKmz9O9lE+Z8TS1XYHim12/7vl9P3p4oJ6kQEpAaKKhLS0l/qyvr8ZJBF9smbrQlLBcRR9mZ3pL0rAFUqBqZojozd/lBRFirelZRNxJ1PZWGQB/bGxY3s7YTe69qGT6J4v0P0+MteJCyAU0lSmKK9PWEFbAWltEcQMJ02MoQvFTS6c3RF96XTDh2/xQfxT+6Sxn4bB6y2MSE4LNa2QB5PcUSOKn56g37pKfb/MGqxxI/EBpD+GRlb6zs0+WzFWxiC0VuOesjnvlpm6t4yPVKQDvJmRUKUw9X5hLZHFVtlB/yJlmHVN1p55MDKA9KBv6mcUj+NzKh4vU1Q2s3Hhyh5PpjooH1H87hjHDdMnEurqlIkjj3U25dz3vAK4o+2SurTPWH3FOmQz2S1+daXrq7SA1/13dEdJagAzqpVpd97YK1w7E+/cCR37Ipk93ZDZPRETwhPPThNngTz7DqWgkgAc9l1hEdeJyMGfgzmwzQiJWAMb2e2RKn8qI2QtM/avOgt2mk3F1Cjsz2B+RVYJaSJCjZKIG3nE5UophuH2hZ1DQ/5+e6b+VnJ8ldKoHDtQH0uyqawpLJ8Mjwl8be9sgIXeie99wlYcdnIC2W0L7l8TV9WhthAplKTxoC2m6n8zV1QZz29cCPknFTOKkmDghjQpFJ89Gnr+kzb/rjxt3WI/cF2tJj6n2bHSSHGt0A7MzBeW249wmiZLQPWB1hOFmdsOj8OZAXD4jZmU72Em/PYzj7PN7BeivDAN+XBT+pphWdVEgLkfHqOm2BOI7C5WqFzugdXmg2oj90kp8sMLbRGTiDNP4wuPNAEDvK1S0bWHEBZQFGFYB8TTPmVDLBGyvg+QEquKYyX2ekjYfTlzhojhgdy8pu/53M75oEeDL5zGj1fVdm0+/WiMBetR91cLMeUb7OHiNhLxeJjT5pirrTo1RRH53foFIoUPuH4YstQ23iZOSIjYvqHCgATAebN6z+bxiUu0uJbj4gFn/nlp2QD0jYi1ZPOr6b0wu4IuvbhbTQC+kpXaX6TlJVfX7HNtY7+C8FC619RGmqjAKqoMhN385s/ZSUuMXmPwXoFhE016J+mx7icerUIOX3URA3qywTF0KPgJoy73XNx/Jq56Nc+xVMdEhGK6D3/XHlL1b1FUoWK7y6MXpfxTq+4y4NubTKNyOOee8AeUbFYXcmhg2MDsdJEg/1pv6+4HGA0561mMZ13gmrzZ/y2lDsEmZlb64tf07swloANX1OC81JWc6VnvFWDMubRhawDPauUyc+ald7SG67MMIzkiplfEDezEnVbdlNMnWHIAu7S/I5VAfsr+ixAa/ta1wbAruhNhjA39qk1CtqA9jDUsVHSjHfVcpfTG0CYjGZToUahs4sRu+z8dfI2Ab2j4z/q2RNbvLt4wktc553yqzd7vxQyCpQPCkVLTKfwabcLr+p6842Nk/zBU6zHzREBwIgdCy7MyyBsdctkqGw51mgM0J/h4HPKv+p0+JRlVj2feUKF2CGpAn1ujI8EvHuofDh34k5CZ2of8wu/I4Q+Y3hAJJ/pufPsAzO0QHxzJ4gAIcWIMo6UgxwZ0Kth9mTsFLSZphZF0xQCoDQCeQUBJeJ4Qv6noQLLSy7zguLADNVtFtIF+Pvo7xfTdiGYel9J29avNEGzaxl+rCPfJEmlrN9m7mJ7e0MZyAGdB6XOZQENWjszVl3NupqTz4bm4hPjIM9ixUA02tZby+uIklAMAHYRCRhtnT0r6+t8aV39snW0mOxbeQUTqnHExNwkMkymJNMIw8KMz97EpKuS+PwYzLFcv0jOVFB5IgiLjHCwK2hn+CbKN1UrkvwZKZ6Np3CiGJ2CKwDLlzze98hWaMfshGKhRGWxfhLuIwBbgnC8wL/JxDhM1fOUba0QC+k1sgH5RYUGrdguA2kuB0y78rdk5ec6U/PVNkZp23Wvp2M43TNMAEqGQuqxSFHIq4cuLf4SYoWtW+KUfaFTYnzvLNq7VWrFApWCngxzTJZMmwL/kMbhMEyPnEVYYgJ6lsIe7Xh29hUgYLKg/4p3r+5P51NNLkoqazyE1n1l/dhtOQjeajv32wHuxGmgn1TGIC6kFoUNgFPEM8sHUGRG//bJjPsZDLCxwcbSx260qn6O/YaQXKHbEFiEfEBWwm9rPC2A1aplVCb8yYtmIUJD/Y2w9hJg7R9A4nRnjc6XGG/ppfDye8Mw9obtrqguD2CNM2DdHQDdeuI5hK42+6o83YBXZ3Jq8ntmICkY3S6Gb0CVxTfXSwetvPQc/gqKy+ITZKCGsRkw247blAzEMHGHJKFcDTQSFdRbfTCyZz90FmLLVlZj7DuHVZHTc4suzUAFP6m9jfb8UHX0ek/MFqsWnhAvlcDqktN0kkcF7/a7JQMsWlXrWS6TsAyH8LHfo09CeuzoW4wef9v8roDl8+CdEbiGRKKquIzhxAtFXm8c3MmtLoSthBk/FwBITq4S9JJJ75C7yZhZdw7uqv3Ae4ChZ/gB4OQAMi+76qjxItk8PAoWgoW0OzF8Btz2PXi1arG+pLXJVUmcSihSLVXQHa5JXQhe2P7JUBDcYOcR0g3mPde11zfiMD7spWGJtk03b1qb//pYXV9i2TrhnEBdqozN3NdI2BOoNG+eblWyrdYcDHI/+W87bJ+e29fWY7blWht69DyLupgQPnS+q1cBNCgZO0EZBY+f63ETSIuIgfOsxq74j224+u0YYecJ/g2qdVSDD8rPF/jlRH0FAbAnuCL7hKpJDJdS5Y08ztRdXkSx38E4qXxbOP6k9/Oz1vpedaZ1ynGOF/8YvVAqK+5V2Pf5+0u9l7PzWXbT5PEIzBeNfDXTYlzs9q6xuAgHC7zm3aa0JN67b1iMk6WwUcXf8uHJT2YYVh4rsWdxA2DJuZ7ZgTHzqzk8uDvW8W4TIzrEDAluWJIf/MIBGei86zoyZyz1odKrNLyYLymLFc3DtQol2vc1DHKsN6cups7NhBqXt9jhr6RazH1fpyqK82/Y92f0JM+S1w0SgZnUOIb8V4ZzPnfwDm5uNoYvi3RTpoV/2bSiehW8KbYNpfB3fjNg1Gj1bXBiq4Q2EFiHyE2kHX7ieofLrMNIPvfycLWbEmB9WUu4sLUhL/uTebrU/gRfrBGl+8c1r0imx0uXWmGebZ/G53qgnZrfducalW9QG5wLPOsJ4fsiB807+vlmVrr24GAbPZzWG6throz4ZsQYhOeje+Rbvc6UpWB4X0jaQedR/WqJMOptjU7QLtZjdB/GAxpC3Pr3f/FpgY4dSI6rdpaUmM610ELos5U/jo6hSBmsB6uJqHviq3Z0kVivtTpxZX4P9gEtUenF+EE7yZnIcduJapeaO84K6wzFDWcJW0SV5MzC8xd1Oa6ziT2+3dNoQsbhSBkJQSIcXopGHSwiqH4qGp2RyXlYonPw1gJwxkADk0pifV1C3EihN69cufW8AfgMs6Zm9CqrGq2mNPJOzkAWu56Rciu130DCiWQ5v3h5uS6yREOyWW7p9idxWLMrGyzsGi3sZYz2Noq8l6L3KZSlCVBkOCq7kUm2U1ne7QlO/NWee42P8O+Jope571JSePOqFdVeuWHgDIomlGA3yV/FzdeWyfbxB+5TSH2tzJLVgzBcr1NOsYSHvzwc/OfFNAYAppFUCnUgBk3dEdvXi7tFZdSmZPeT4uyGYM/DSje8S6utgwvxLemGiiVgiP1EQQ7vUnTwe//ljL3kDC8JuTsDwHiV1yLCz8VIwS2PclQv+2u2slGrt71rREawkXGx7WUdPuFl6NsOti0Sri/F+qpqnCkHgeGiE4nZ1bgqDv8QHSNFaIh8a4LZKrhX4LI6SWAorHNvKVKCM4rpcBi8HNC2/YdiRxDqnDWPaimxj96h51Z8LWxSyboywHPUYnHL3zxbMyTv+KxXMg2cDJmxH8lJS7dAMmIGTinUEL3NdNIpxweeDhJE9m8wGyy01R+SrZyy4d/deHldOOXAmh6VnOBG0f5cPRhCXpGc4yOdtFIEscz5PexXPlGGioO1bpnvMC1y9CujPc32RKfrzRwL/P27JV1uFlaZDuCRwW6UHLb7MRRxO91eu9/VeFWCz1/mATcaKhMBnAnTTdfuFVqiIE9TsP/AZlb1e6NSZ7kvKiHnYMAqk/eXARrGHVAibirP0CIzQlaISg3mKkxjbgbX3XcTTblOxQl20ZgRa1D5lXQ2prSz868vyDAQ/93ZkoGNPV0hjP5GoOQM7AwAABRnb294b935qmk19ha6feW1v3VzHC4ZD5V8ew/IpxUY2vbyhOpunRqCkQPkmXR6OMCmFJgKssApBEDVbcBWaKYXJhMqRIaTmC7hG9GQVrCA7jfBLWMkiqnUQPlPn3Qa3wwbxKx2kvCbMlrRlx9HsHa3yPgKuIu0gKa/OMjFaVKhWKcnauCgR3j/ru8iizOPxk+59Yn7TR8wMRKwjeMQCaybZtVi/Gou+4oKpvsNTYw/qJ5VMuo3sNqGTwa4zFDNsDp9GCiASrcb25THOBq+gKTxONEkquJax/HKgxsgC7mdVPEQ+R45GNRMnLFOFget93aW3md4UvVsWx82t+WfBkI9+fwsK+JgVMjhqg1XJZ0j2Y6aEVMV/iX/Z7O6+2cX3uDFi9nFvrpYXu85jHpNL2f1upJLiynFQy9edCHoGJOobp0EEMOz0OCcR7w3+4ueMN//LIb5y3KekKeEZB2UYGq0cF6rQ7uTN0LM/fT9v0fLYLrV6UUCaQlbzbPNnIYdB2rDOfwC+C72CqVyf6HJ6JXjiPnYlxkfn5+h4njjLodcnGds7aTSQyb8vdw/E1+GQV8XlUsuS+O01S1nUDAaKdmpiffSy6F8p30UXB/sTCtp5VnBYZsVm3j1JRA8k+ogRchdmqfp9bf3ij6uBypQ4fsW4tJiSR2xUSlGQlyPRmumJnYyPlGzvuxWJoMJIn5c1dpiPkF/HfwCl8KqBovRZwji4L0998bGHeA5dLu3RdOGTcTIyDHmvgZsPKQOH3ZrzlEa5Hsp4JnmO8rEUqJTvXM8rhPWPjEjAUNiBjx+aVVCEI7u3WN/RO0umeMQ6lUQ/pmHFj5ygZa6qsDY4AlIv61/eqB6Pt3BWtUbZ1WND/hwSiNP46+3Bj0a9oFfTv+HTARs1Pi9FXmerpiaqABDTxRUv/TJaWiJIfxJ7ar3GQSXDtGEZbb7Vvuowfr825P2kvhK/Ymyuk4JqFmUrbmn0MlJ219eKTvUA2K5bD+2liKMvuQQFbyAih/E7l4MmFwbJc5eKyTpIyqWzlHnI145wX2kL3JPKb1ulEToKkM28N0DCOqKJqxazF0DXvg0TJhHiaFMYiQcDSO5SZsuaA+1s73pRZhfXwMGcle0jmvTAH+13+9A7sOfMjIGRnFh/kZDw4NcCtYNRdXRsqLd/iitlYBZmymlcW5KNw4ro9FrY9Nxpxk/m06LfS7qvBFflsBZDOHEOvUJMVmM6pSzaNNzmYULTTJEBqnLhNmOullW+yqdMeMiBTE3CYZiCiIjr4MqfJnKouG8xGBXl9EKg+rP2EabLyVhACayieJpCkzvtXMiQAjgqAJ3vzARyJXuk/KDcwxwhXLE9Wgk9UB/+h4NkyZc3qzEAHhOjzAhV8M6n3JLfasolCIZIoCnotsRdEhuEn8auyAnV0PpgXxJmWim77lfgZC9076FV5DMxle+il7wjafGVzsEZSxa6lCJMjsPjA0cvKEQoqLcRfdZrYjTpogvxAOAgqNtoJthVkWptFoF0XQ67s1aBa2TXzfnrBc3u0h8T2h9mabqDHjfwVNfVWhqxCsU7cGQi4tRkOIQ+giaXsCh2vjxdh1Q/syj4Z1pSMewYraGmZBwT9WQOYmOvmRBFGqX6NvJpLqqPPY1WwGt/V/mleDgErN9bW5isceoG4O5ZDupjSY2fXy35ZMI7Xr7p0qzhBrPneGzTzlo6CjNUzvJJmZSHK3bfXOnh2CBg3McMoMqKPJDcgtrBDuWze213zeaiVs1btdfz4M37Elaq1JKO1+M6UpeDWs/iie92+ZE7DAlY1FhDPKbS86V147h5doCAE2qTz+djowJh5rA6+Js35JAXBPmxqVCyKJlkr5W6aWoW2S5o2zeuLc8nFkcc/Pmc40lzPLQ9ZvnD6bEWGdglHfi9Bfbq9ZiJuunpn6kLI9e65IDFUhrFzENQQSAF8aNqiQUqT3BZ2lk6+ck/HTD3Uxog1Vjh/8F7TOwt6N6WTT3UpW9hBkAUokN1pENdGmeyYrwa6QRsgYthZxGZE5js5vxoAVA1xZaXHvexuboxqJnCpjtf8GxJTbSdLAX6esgzSXaAAAAA;" vertex="1" parent="1">
                    <mxGeometry x="670" y="10" width="800" height="460" as="geometry"/>
                </mxCell>
            </root>
        </mxGraphModel>
    </diagram>
</mxfile>